<svg width="16" height="16" viewBox="0 0 16 16" fill="none" xmlns="http://www.w3.org/2000/svg">
<path d="M6.3052 3.37195C6.95673 1.74768 7.2825 0.935547 7.84269 0.935547C8.40288 0.935547 8.72864 1.74768 9.38018 3.37195L9.41052 3.44758C9.7786 4.36521 9.96264 4.82403 10.3377 5.1029C10.7128 5.38178 11.2052 5.42587 12.19 5.51407L12.368 5.53001C13.9797 5.67435 14.7855 5.74652 14.958 6.25922C15.1304 6.77191 14.5319 7.31638 13.335 8.40532L12.9356 8.76875C12.3297 9.31999 12.0267 9.5956 11.8855 9.95684C11.8592 10.0242 11.8373 10.0933 11.82 10.1635C11.7272 10.5401 11.8159 10.9399 11.9933 11.7396L12.0485 11.9885C12.3746 13.4582 12.5376 14.193 12.253 14.51C12.1466 14.6284 12.0083 14.7137 11.8548 14.7556C11.4438 14.8677 10.8603 14.3923 9.69325 13.4413C8.92694 12.8169 8.54379 12.5047 8.10388 12.4344C7.93085 12.4068 7.75453 12.4068 7.58149 12.4344C7.14159 12.5047 6.75843 12.8169 5.99213 13.4413C4.82511 14.3923 4.2416 14.8677 3.83061 14.7556C3.67703 14.7137 3.53878 14.6284 3.43241 14.51C3.14774 14.193 3.31078 13.4582 3.63686 11.9885L3.69208 11.7396C3.86951 10.9399 3.95822 10.5401 3.86541 10.1635C3.8481 10.0933 3.8262 10.0242 3.79986 9.95684C3.65866 9.5956 3.35571 9.31999 2.74981 8.76875L2.35035 8.40532C1.15344 7.31638 0.554984 6.77191 0.727415 6.25922C0.899846 5.74652 1.70569 5.67435 3.31738 5.53001L3.49541 5.51407C4.48017 5.42587 4.97255 5.38178 5.34764 5.1029C5.72273 4.82403 5.90677 4.36521 6.27486 3.44758L6.3052 3.37195Z" fill="#FBB040" stroke="#FBB040" stroke-width="1.25028"/>
</svg>
