<svg width="17" height="17" viewBox="0 0 17 17" fill="none" xmlns="http://www.w3.org/2000/svg">
<path d="M1.92844 1.33941L2.74769 0.520158C3.09645 0.171398 3.6619 0.171397 4.01066 0.520157L6.53716 3.04666C6.88592 3.39542 6.88592 3.96087 6.53716 4.30963L4.80069 6.04611C4.51753 6.32926 4.44734 6.76183 4.62642 7.12C5.66166 9.19048 7.34052 10.8693 9.41101 11.9046C9.76917 12.0837 10.2017 12.0135 10.4849 11.7303L12.2214 9.99384C12.5701 9.64508 13.1356 9.64508 13.4843 9.99384L16.0108 12.5203C16.3596 12.8691 16.3596 13.4346 16.0108 13.7833L15.1916 14.6026C13.306 16.4881 10.3209 16.7003 8.18769 15.1003L6.674 13.9651C5.11694 12.7973 3.73375 11.4141 2.56595 9.857L1.43069 8.34332C-0.169257 6.21006 0.0428851 3.22496 1.92844 1.33941Z" fill="#80C678"/>
</svg>
