<svg width="19" height="19" viewBox="0 0 19 19" fill="none" xmlns="http://www.w3.org/2000/svg">
<path fill-rule="evenodd" clip-rule="evenodd" d="M8.74931 0.230469L8.74931 6.25062C7.14839 6.0898 5.66827 5.50108 4.54867 4.59141C3.9508 4.10564 3.48155 3.55064 3.14705 2.95684C4.59164 1.4511 6.55472 0.446642 8.74931 0.230469ZM10.5354 0.230475V6.25062C12.1363 6.0898 13.6165 5.50108 14.7361 4.59141C15.3339 4.10565 15.8032 3.55066 16.1377 2.95688C14.6931 1.45113 12.73 0.446663 10.5354 0.230475ZM17.2992 4.45439C16.9037 5.01105 16.4211 5.52369 15.8624 5.97763C14.4045 7.16218 12.5195 7.87825 10.5354 8.04414L10.5354 10.3325C11.3753 10.4027 12.2016 10.5718 12.9887 10.8367C14.0534 11.195 15.031 11.7235 15.8624 12.399C16.4168 12.8495 16.9003 13.3607 17.2982 13.9206C18.1504 12.5454 18.6423 10.9235 18.6423 9.18672C18.6423 7.4506 18.1508 5.82929 17.2992 4.45439ZM16.1365 15.4178C15.7995 14.8209 15.3283 14.2664 14.7361 13.7852C14.0817 13.2536 13.2955 12.8245 12.419 12.5295C11.817 12.3269 11.1832 12.1912 10.5354 12.1261V18.143C12.7294 17.9268 14.692 16.9229 16.1365 15.4178ZM8.74931 18.143V12.1261C8.10153 12.1912 7.46773 12.3269 6.86575 12.5295C5.98921 12.8245 5.20304 13.2536 4.54867 13.7852C3.95646 14.2664 3.48518 14.8209 3.14824 15.4178C4.59272 16.9229 6.55533 17.9269 8.74931 18.143ZM1.98646 13.9206C2.3844 13.3607 2.86789 12.8495 3.42236 12.399C4.25372 11.7235 5.23138 11.195 6.29604 10.8367C7.08309 10.5718 7.90942 10.4027 8.74931 10.3325V8.04414C6.76524 7.87825 4.88027 7.16218 3.42236 5.97763C2.86365 5.52368 2.38096 5.01102 1.98551 4.45434C1.13393 5.82925 0.642334 7.45058 0.642334 9.18672C0.642334 10.9235 1.13429 12.5454 1.98646 13.9206Z" fill="#80C678"/>
</svg>
