<svg width="17" height="19" viewBox="0 0 17 19" fill="none" xmlns="http://www.w3.org/2000/svg">
<path fill-rule="evenodd" clip-rule="evenodd" d="M8.91204 18.2696C10.4555 17.4834 16.4662 14.0503 16.4662 8.27133C16.4662 3.90168 12.9239 0.359375 8.55429 0.359375C4.18464 0.359375 0.642334 3.90168 0.642334 8.27133C0.642334 14.0503 6.65314 17.4834 8.19654 18.2696C8.42321 18.3851 8.68537 18.3851 8.91204 18.2696ZM8.5543 11.6617C10.427 11.6617 11.9451 10.1435 11.9451 8.27082C11.9451 6.39811 10.427 4.87998 8.5543 4.87998C6.68159 4.87998 5.16346 6.39811 5.16346 8.27082C5.16346 10.1435 6.68159 11.6617 8.5543 11.6617Z" fill="#80C678"/>
</svg>
