<svg width="19" height="15" viewBox="0 0 19 15" fill="none" xmlns="http://www.w3.org/2000/svg">
<path fill-rule="evenodd" clip-rule="evenodd" d="M1.42704 1.70268C0.642334 2.48739 0.642334 3.75036 0.642334 6.2763V9.55964C0.642334 12.0856 0.642334 13.3485 1.42704 14.1333C2.21175 14.918 3.47473 14.918 6.00067 14.918H13.284C15.8099 14.918 17.0729 14.918 17.8576 14.1333C18.6423 13.3485 18.6423 12.0856 18.6423 9.55964V6.2763C18.6423 3.75036 18.6423 2.48739 17.8576 1.70268C17.0729 0.917969 15.8099 0.917969 13.284 0.917969H6.00067C3.47473 0.917969 2.21175 0.917969 1.42704 1.70268ZM4.13863 4.17526C3.72824 3.90167 3.17377 4.01257 2.90018 4.42295C2.62659 4.83334 2.73749 5.38781 3.14787 5.6614L8.65249 9.33114C9.25245 9.73111 10.0341 9.73111 10.634 9.33114L16.1386 5.6614C16.549 5.38781 16.6599 4.83334 16.3863 4.42295C16.1127 4.01257 15.5583 3.90167 15.1479 4.17526L9.64325 7.84501L4.13863 4.17526Z" fill="#80C678"/>
</svg>
