<svg width="19" height="19" viewBox="0 0 19 19" fill="none" xmlns="http://www.w3.org/2000/svg">
<path d="M9.03103 6.03388C7.37844 6.03388 6.02981 7.38254 6.02981 9.03516C6.02981 10.6878 7.37844 12.0364 9.03103 12.0364C10.6836 12.0364 12.0323 10.6878 12.0323 9.03516C12.0323 7.38254 10.6836 6.03388 9.03103 6.03388ZM18.0324 9.03516C18.0324 7.79232 18.0437 6.56073 17.9739 5.32015C17.9041 3.87917 17.5754 2.60031 16.5217 1.5466C15.4658 0.490633 14.1892 0.164163 12.7482 0.0943655C11.5054 0.0245683 10.2738 0.035826 9.03328 0.035826C7.79046 0.035826 6.5589 0.0245683 5.31834 0.0943655C3.87739 0.164163 2.59855 0.492885 1.54486 1.5466C0.488916 2.60256 0.162451 3.87917 0.0926554 5.32015C0.0228595 6.56299 0.034117 7.79457 0.034117 9.03516C0.034117 10.2757 0.0228595 11.5096 0.0926554 12.7502C0.162451 14.1911 0.491167 15.47 1.54486 16.5237C2.6008 17.5797 3.87739 17.9062 5.31834 17.9759C6.56116 18.0457 7.79271 18.0345 9.03328 18.0345C10.2761 18.0345 11.5077 18.0457 12.7482 17.9759C14.1892 17.9062 15.468 17.5774 16.5217 16.5237C17.5776 15.4678 17.9041 14.1911 17.9739 12.7502C18.046 11.5096 18.0324 10.278 18.0324 9.03516ZM9.03103 13.653C6.4756 13.653 4.41324 11.5906 4.41324 9.03516C4.41324 6.47968 6.4756 4.41729 9.03103 4.41729C11.5865 4.41729 13.6488 6.47968 13.6488 9.03516C13.6488 11.5906 11.5865 13.653 9.03103 13.653ZM13.8379 5.30664C13.2413 5.30664 12.7595 4.82481 12.7595 4.22816C12.7595 3.63151 13.2413 3.14968 13.8379 3.14968C14.4346 3.14968 14.9164 3.63151 14.9164 4.22816C14.9166 4.36984 14.8888 4.51016 14.8347 4.64108C14.7805 4.77201 14.7011 4.89097 14.6009 4.99115C14.5007 5.09134 14.3818 5.17077 14.2509 5.22491C14.1199 5.27904 13.9796 5.30681 13.8379 5.30664Z" fill="white"/>
</svg>
