<svg width="67" height="30" viewBox="0 0 67 30" fill="none" xmlns="http://www.w3.org/2000/svg">
<rect x="0.150024" y="5.84961" width="66" height="19" rx="5.68377" fill="#D7DF23"/>
<path d="M9.32021 14.6249C9.32021 15.3282 9.18689 15.9265 8.92026 16.4199C8.65573 16.9133 8.29463 17.2901 7.83695 17.5504C7.38137 17.8087 6.8691 17.9378 6.30015 17.9378C5.727 17.9378 5.21264 17.8076 4.75706 17.5473C4.30148 17.287 3.94143 16.9101 3.6769 16.4167C3.41237 15.9234 3.2801 15.3261 3.2801 14.6249C3.2801 13.9215 3.41237 13.3232 3.6769 12.8298C3.94143 12.3365 4.30148 11.9607 4.75706 11.7024C5.21264 11.4421 5.727 11.3119 6.30015 11.3119C6.8691 11.3119 7.38137 11.4421 7.83695 11.7024C8.29463 11.9607 8.65573 12.3365 8.92026 12.8298C9.18689 13.3232 9.32021 13.9215 9.32021 14.6249ZM7.93772 14.6249C7.93772 14.1693 7.86949 13.7851 7.73302 13.4723C7.59866 13.1594 7.40866 12.9222 7.16303 12.7606C6.91739 12.5989 6.62977 12.5181 6.30015 12.5181C5.97054 12.5181 5.68292 12.5989 5.43728 12.7606C5.19165 12.9222 5.0006 13.1594 4.86413 13.4723C4.72977 13.7851 4.66259 14.1693 4.66259 14.6249C4.66259 15.0804 4.72977 15.4646 4.86413 15.7775C5.0006 16.0903 5.19165 16.3275 5.43728 16.4892C5.68292 16.6508 5.97054 16.7317 6.30015 16.7317C6.62977 16.7317 6.91739 16.6508 7.16303 16.4892C7.40866 16.3275 7.59866 16.0903 7.73302 15.7775C7.86949 15.4646 7.93772 15.0804 7.93772 14.6249ZM10.3051 17.8496V13.0125H11.6057V13.8565H11.6561C11.7443 13.5562 11.8923 13.3295 12.1001 13.1762C12.308 13.0209 12.5473 12.9432 12.8181 12.9432C12.8853 12.9432 12.9578 12.9474 13.0354 12.9558C13.1131 12.9642 13.1813 12.9757 13.2401 12.9904V14.1808C13.1771 14.1619 13.09 14.1451 12.9788 14.1304C12.8675 14.1157 12.7657 14.1084 12.6733 14.1084C12.4759 14.1084 12.2996 14.1514 12.1442 14.2375C11.991 14.3215 11.8692 14.4391 11.7789 14.5902C11.6907 14.7414 11.6467 14.9156 11.6467 15.113V17.8496H10.3051ZM15.8878 19.7643C15.4532 19.7643 15.0806 19.7045 14.7698 19.5848C14.4612 19.4672 14.2156 19.3066 14.0329 19.103C13.8503 18.8993 13.7317 18.6705 13.6771 18.4165L14.9178 18.2496C14.9556 18.3461 15.0155 18.4364 15.0974 18.5204C15.1792 18.6044 15.2874 18.6715 15.4217 18.7219C15.5582 18.7744 15.724 18.8007 15.9193 18.8007C16.2111 18.8007 16.4515 18.7293 16.6404 18.5865C16.8315 18.4459 16.927 18.2097 16.927 17.878V16.993H16.8703C16.8115 17.1274 16.7234 17.2544 16.6058 17.3741C16.4882 17.4938 16.3371 17.5914 16.1523 17.667C15.9676 17.7425 15.7471 17.7803 15.491 17.7803C15.1278 17.7803 14.7971 17.6963 14.499 17.5284C14.203 17.3583 13.9668 17.0991 13.7904 16.7505C13.6162 16.3999 13.5291 15.957 13.5291 15.4216C13.5291 14.8736 13.6183 14.416 13.7967 14.0486C13.9752 13.6812 14.2124 13.4061 14.5085 13.2235C14.8066 13.0408 15.133 12.9495 15.4878 12.9495C15.7587 12.9495 15.9854 12.9957 16.1681 13.0881C16.3507 13.1783 16.4977 13.2917 16.609 13.4282C16.7223 13.5625 16.8094 13.6948 16.8703 13.825H16.9207V13.0125H18.2528V17.8968C18.2528 18.3083 18.152 18.6526 17.9505 18.9298C17.749 19.2069 17.4697 19.4147 17.1128 19.5533C16.758 19.694 16.3497 19.7643 15.8878 19.7643ZM15.9161 16.7726C16.1324 16.7726 16.315 16.7191 16.4641 16.612C16.6153 16.5028 16.7307 16.3475 16.8105 16.1459C16.8924 15.9423 16.9333 15.6987 16.9333 15.4153C16.9333 15.1319 16.8934 14.8862 16.8136 14.6784C16.7339 14.4685 16.6184 14.3057 16.4672 14.1903C16.3161 14.0748 16.1324 14.0171 15.9161 14.0171C15.6957 14.0171 15.5099 14.0769 15.3587 14.1966C15.2076 14.3141 15.0932 14.4779 15.0155 14.6878C14.9378 14.8978 14.899 15.1403 14.899 15.4153C14.899 15.6945 14.9378 15.936 15.0155 16.1396C15.0953 16.3412 15.2097 16.4976 15.3587 16.6088C15.5099 16.718 15.6957 16.7726 15.9161 16.7726ZM20.6997 17.9409C20.3911 17.9409 20.1161 17.8874 19.8746 17.7803C19.6332 17.6712 19.4422 17.5105 19.3015 17.2985C19.1629 17.0844 19.0936 16.8177 19.0936 16.4986C19.0936 16.2299 19.143 16.0042 19.2417 15.8215C19.3403 15.6389 19.4747 15.4919 19.6447 15.3807C19.8148 15.2694 20.008 15.1854 20.2242 15.1287C20.4425 15.072 20.6714 15.0322 20.9107 15.0091C21.192 14.9797 21.4188 14.9524 21.5909 14.9272C21.7631 14.8999 21.888 14.86 21.9657 14.8075C22.0434 14.755 22.0822 14.6773 22.0822 14.5745V14.5556C22.0822 14.3561 22.0192 14.2018 21.8933 14.0927C21.7694 13.9835 21.593 13.9289 21.3642 13.9289C21.1228 13.9289 20.9307 13.9824 20.7879 14.0895C20.6451 14.1945 20.5507 14.3267 20.5045 14.4863L19.2637 14.3855C19.3267 14.0916 19.4506 13.8376 19.6353 13.6234C19.8201 13.4072 20.0583 13.2413 20.3502 13.1259C20.6441 13.0083 20.9842 12.9495 21.3705 12.9495C21.6392 12.9495 21.8964 12.981 22.142 13.044C22.3898 13.107 22.6092 13.2046 22.8002 13.3369C22.9934 13.4691 23.1456 13.6392 23.2568 13.847C23.3681 14.0528 23.4238 14.2994 23.4238 14.5871V17.8496H22.1515V17.1788H22.1137C22.036 17.33 21.9321 17.4633 21.8019 17.5788C21.6718 17.6922 21.5154 17.7814 21.3327 17.8465C21.1501 17.9094 20.9391 17.9409 20.6997 17.9409ZM21.0839 17.0151C21.2813 17.0151 21.4555 16.9762 21.6067 16.8986C21.7578 16.8188 21.8765 16.7117 21.9625 16.5773C22.0486 16.443 22.0917 16.2908 22.0917 16.1207V15.6074C22.0497 15.6347 21.9919 15.6599 21.9184 15.683C21.8471 15.704 21.7662 15.7239 21.676 15.7428C21.5857 15.7596 21.4954 15.7754 21.4051 15.7901C21.3149 15.8027 21.233 15.8142 21.1595 15.8247C21.002 15.8478 20.8645 15.8845 20.747 15.9349C20.6294 15.9853 20.5381 16.0535 20.473 16.1396C20.4079 16.2236 20.3754 16.3286 20.3754 16.4545C20.3754 16.6372 20.4415 16.7768 20.5738 16.8734C20.7081 16.9678 20.8782 17.0151 21.0839 17.0151ZM25.8061 15.0531V17.8496H24.4646V13.0125H25.7431V13.8659H25.7998C25.9069 13.5846 26.0864 13.362 26.3383 13.1983C26.5902 13.0324 26.8957 12.9495 27.2547 12.9495C27.5906 12.9495 27.8835 13.023 28.1333 13.1699C28.3832 13.3169 28.5774 13.5269 28.7159 13.7998C28.8545 14.0706 28.9238 14.3939 28.9238 14.7697V17.8496H27.5822V15.0091C27.5843 14.713 27.5087 14.4821 27.3555 14.3162C27.2022 14.1483 26.9912 14.0643 26.7225 14.0643C26.542 14.0643 26.3824 14.1031 26.2438 14.1808C26.1074 14.2585 26.0003 14.3719 25.9226 14.5209C25.847 14.6679 25.8082 14.8453 25.8061 15.0531ZM29.9811 17.8496V13.0125H31.3227V17.8496H29.9811ZM30.655 12.389C30.4556 12.389 30.2845 12.3228 30.1417 12.1906C30.0011 12.0562 29.9307 11.8956 29.9307 11.7087C29.9307 11.524 30.0011 11.3655 30.1417 11.2332C30.2845 11.0988 30.4556 11.0317 30.655 11.0317C30.8545 11.0317 31.0245 11.0988 31.1652 11.2332C31.308 11.3655 31.3793 11.524 31.3793 11.7087C31.3793 11.8956 31.308 12.0562 31.1652 12.1906C31.0245 12.3228 30.8545 12.389 30.655 12.389ZM34.5828 17.9441C34.0874 17.9441 33.6612 17.8391 33.3043 17.6292C32.9495 17.4171 32.6765 17.1232 32.4855 16.7474C32.2965 16.3716 32.2021 15.9391 32.2021 15.4499C32.2021 14.9545 32.2976 14.5199 32.4886 14.1462C32.6818 13.7704 32.9558 13.4775 33.3106 13.2676C33.6654 13.0555 34.0874 12.9495 34.5765 12.9495C34.9985 12.9495 35.368 13.0261 35.685 13.1794C36.0021 13.3327 36.2529 13.5478 36.4377 13.825C36.6224 14.1021 36.7243 14.4275 36.7432 14.8012H35.4772C35.4415 14.5598 35.347 14.3656 35.1938 14.2186C35.0426 14.0696 34.8442 13.995 34.5986 13.995C34.3907 13.995 34.2091 14.0517 34.0538 14.1651C33.9005 14.2764 33.7808 14.4391 33.6948 14.6532C33.6087 14.8673 33.5656 15.1266 33.5656 15.431C33.5656 15.7397 33.6076 16.0021 33.6916 16.2183C33.7777 16.4346 33.8984 16.5994 34.0538 16.7128C34.2091 16.8261 34.3907 16.8828 34.5986 16.8828C34.7518 16.8828 34.8893 16.8513 35.0111 16.7883C35.135 16.7254 35.2368 16.634 35.3166 16.5144C35.3985 16.3926 35.452 16.2467 35.4772 16.0766H36.7432C36.7222 16.4461 36.6214 16.7715 36.4408 17.0529C36.2624 17.3321 36.0157 17.5504 35.7008 17.7079C35.3859 17.8654 35.0132 17.9441 34.5828 17.9441ZM43.1785 13.255C43.1533 13.0009 43.0452 12.8036 42.8541 12.6629C42.6631 12.5223 42.4038 12.4519 42.0763 12.4519C41.8537 12.4519 41.6658 12.4834 41.5126 12.5464C41.3593 12.6073 41.2417 12.6923 41.1599 12.8015C41.0801 12.9107 41.0402 13.0345 41.0402 13.1731C41.036 13.2886 41.0601 13.3893 41.1126 13.4754C41.1672 13.5615 41.2417 13.636 41.3362 13.699C41.4307 13.7599 41.5399 13.8134 41.6637 13.8596C41.7876 13.9037 41.9199 13.9415 42.0605 13.973L42.64 14.1115C42.9213 14.1745 43.1795 14.2585 43.4147 14.3635C43.6498 14.4685 43.8535 14.5976 44.0256 14.7508C44.1978 14.9041 44.3311 15.0846 44.4255 15.2925C44.5221 15.5003 44.5715 15.7386 44.5736 16.0073C44.5715 16.402 44.4707 16.7443 44.2712 17.034C44.0739 17.3216 43.7884 17.5452 43.4147 17.7047C43.0431 17.8622 42.5948 17.9409 42.07 17.9409C41.5493 17.9409 41.0958 17.8612 40.7095 17.7016C40.3253 17.542 40.0251 17.3059 39.8089 16.993C39.5947 16.6781 39.4824 16.2887 39.4719 15.8247H40.7914C40.8061 16.0409 40.868 16.2215 40.9772 16.3664C41.0885 16.5091 41.2365 16.6172 41.4212 16.6907C41.6081 16.7621 41.8191 16.7978 42.0542 16.7978C42.2852 16.7978 42.4857 16.7642 42.6557 16.697C42.8279 16.6298 42.9612 16.5364 43.0557 16.4167C43.1501 16.2971 43.1974 16.1596 43.1974 16.0042C43.1974 15.8593 43.1543 15.7376 43.0683 15.6389C42.9843 15.5402 42.8604 15.4562 42.6967 15.387C42.535 15.3177 42.3366 15.2547 42.1015 15.198L41.3992 15.0217C40.8554 14.8894 40.4261 14.6826 40.1112 14.4013C39.7963 14.1199 39.6399 13.741 39.642 13.2644C39.6399 12.8739 39.7438 12.5328 39.9537 12.2409C40.1658 11.9491 40.4565 11.7213 40.8261 11.5576C41.1956 11.3938 41.6154 11.3119 42.0857 11.3119C42.5644 11.3119 42.9822 11.3938 43.3391 11.5576C43.6981 11.7213 43.9773 11.9491 44.1768 12.2409C44.3762 12.5328 44.4791 12.8708 44.4854 13.255H43.1785ZM48.0384 13.0125V14.0202H45.1255V13.0125H48.0384ZM45.7868 11.8536H47.1283V16.3632C47.1283 16.4871 47.1472 16.5836 47.185 16.6529C47.2228 16.7201 47.2753 16.7673 47.3425 16.7946C47.4117 16.8219 47.4915 16.8356 47.5818 16.8356C47.6448 16.8356 47.7078 16.8303 47.7708 16.8198C47.8337 16.8072 47.882 16.7978 47.9156 16.7915L48.1266 17.7898C48.0594 17.8108 47.965 17.8349 47.8432 17.8622C47.7214 17.8916 47.5734 17.9094 47.3991 17.9157C47.0758 17.9283 46.7924 17.8853 46.5489 17.7866C46.3074 17.688 46.1195 17.5347 45.9852 17.3268C45.8508 17.119 45.7847 16.8566 45.7868 16.5396V11.8536ZM51.0459 17.9441C50.5567 17.9441 50.1337 17.8402 49.7768 17.6323C49.422 17.4224 49.148 17.1305 48.9548 16.7568C48.7617 16.381 48.6651 15.9454 48.6651 15.4499C48.6651 14.9503 48.7617 14.5136 48.9548 14.1399C49.148 13.7641 49.422 13.4723 49.7768 13.2644C50.1337 13.0545 50.5567 12.9495 51.0459 12.9495C51.5351 12.9495 51.957 13.0545 52.3119 13.2644C52.6688 13.4723 52.9438 13.7641 53.1369 14.1399C53.3301 14.5136 53.4267 14.9503 53.4267 15.4499C53.4267 15.9454 53.3301 16.381 53.1369 16.7568C52.9438 17.1305 52.6688 17.4224 52.3119 17.6323C51.957 17.8402 51.5351 17.9441 51.0459 17.9441ZM51.0522 16.9049C51.2747 16.9049 51.4605 16.8419 51.6096 16.7159C51.7586 16.5878 51.871 16.4136 51.9465 16.1931C52.0242 15.9727 52.0631 15.7218 52.0631 15.4405C52.0631 15.1592 52.0242 14.9083 51.9465 14.6878C51.871 14.4674 51.7586 14.2931 51.6096 14.1651C51.4605 14.037 51.2747 13.973 51.0522 13.973C50.8275 13.973 50.6386 14.037 50.4853 14.1651C50.3342 14.2931 50.2198 14.4674 50.1421 14.6878C50.0665 14.9083 50.0287 15.1592 50.0287 15.4405C50.0287 15.7218 50.0665 15.9727 50.1421 16.1931C50.2198 16.4136 50.3342 16.5878 50.4853 16.7159C50.6386 16.8419 50.8275 16.9049 51.0522 16.9049ZM54.299 17.8496V13.0125H55.5996V13.8565H55.65C55.7381 13.5562 55.8862 13.3295 56.094 13.1762C56.3018 13.0209 56.5412 12.9432 56.812 12.9432C56.8792 12.9432 56.9516 12.9474 57.0293 12.9558C57.107 12.9642 57.1752 12.9757 57.234 12.9904V14.1808C57.171 14.1619 57.0839 14.1451 56.9726 14.1304C56.8613 14.1157 56.7595 14.1084 56.6672 14.1084C56.4698 14.1084 56.2934 14.1514 56.1381 14.2375C55.9848 14.3215 55.8631 14.4391 55.7728 14.5902C55.6846 14.7414 55.6405 14.9156 55.6405 15.113V17.8496H54.299ZM59.9069 17.9441C59.4093 17.9441 58.981 17.8433 58.622 17.6418C58.2651 17.4381 57.9901 17.1505 57.7969 16.7789C57.6038 16.4052 57.5072 15.9633 57.5072 15.4531C57.5072 14.9555 57.6038 14.5188 57.7969 14.143C57.9901 13.7672 58.2619 13.4744 58.6125 13.2644C58.9653 13.0545 59.3788 12.9495 59.8533 12.9495C60.1724 12.9495 60.4695 13.0009 60.7445 13.1038C61.0217 13.2046 61.2631 13.3568 61.4688 13.5604C61.6767 13.7641 61.8383 14.0202 61.9538 14.3288C62.0693 14.6354 62.127 14.9944 62.127 15.4059V15.7743H58.0425V14.9429H60.8642C60.8642 14.7498 60.8222 14.5787 60.7382 14.4296C60.6543 14.2806 60.5377 14.164 60.3887 14.0801C60.2417 13.994 60.0706 13.9509 59.8754 13.9509C59.6717 13.9509 59.4912 13.9982 59.3337 14.0927C59.1783 14.185 59.0566 14.3099 58.9684 14.4674C58.8802 14.6228 58.8351 14.796 58.833 14.987V15.7775C58.833 16.0168 58.8771 16.2236 58.9653 16.3978C59.0555 16.5721 59.1825 16.7065 59.3463 16.8009C59.5101 16.8954 59.7043 16.9426 59.9289 16.9426C60.078 16.9426 60.2144 16.9217 60.3383 16.8797C60.4622 16.8377 60.5682 16.7747 60.6564 16.6907C60.7445 16.6067 60.8117 16.5039 60.8579 16.3821L62.0987 16.464C62.0357 16.7621 61.9066 17.0224 61.7113 17.245C61.5182 17.4654 61.2683 17.6376 60.9618 17.7614C60.6574 17.8832 60.3058 17.9441 59.9069 17.9441Z" fill="#05352E"/>
</svg>
