<svg width="17" height="19" viewBox="0 0 17 19" fill="none" xmlns="http://www.w3.org/2000/svg">
<path d="M11.0879 13.5088C11.2593 12.0996 10.3525 11.2002 7.95605 10.4355C6.7959 10.04 6.24805 9.52149 6.26123 8.80664C6.30957 8.01563 7.04639 7.43848 8.0249 7.41943C8.70312 7.43262 9.45606 7.59814 10.187 8.0874C10.2734 8.1416 10.335 8.13428 10.3848 8.05811C10.4521 7.94971 10.6206 7.6875 10.6777 7.59375C10.7158 7.53223 10.7231 7.45313 10.6265 7.38281C10.4873 7.28027 10.0991 7.0708 9.88965 6.98438C9.32129 6.74707 8.68408 6.59766 8.00586 6.59912C6.57471 6.60498 5.44678 7.51025 5.35156 8.71875C5.29004 9.59033 5.72217 10.2993 6.64941 10.8384C6.8457 10.9526 7.90918 11.376 8.33252 11.5078C9.6626 11.9224 10.354 12.665 10.1914 13.5308C10.0435 14.3159 9.21729 14.8242 8.07764 14.8389C7.17383 14.8037 6.3623 14.436 5.73096 13.9453C5.71484 13.9336 5.63574 13.8721 5.62549 13.8633C5.54785 13.8018 5.46289 13.8062 5.41016 13.8853C5.37207 13.9438 5.12891 14.2954 5.06738 14.3877C5.01025 14.4683 5.04102 14.5137 5.10107 14.5635C5.36475 14.7832 5.71338 15.0234 5.95215 15.145C6.60693 15.479 7.31738 15.6621 8.07324 15.6899C8.55957 15.7222 9.17188 15.6182 9.63037 15.4248C10.4507 15.0747 10.981 14.3789 11.0879 13.5088ZM8.13037 1.08691C6.5791 1.08691 5.31494 2.54883 5.25635 4.37842H11.0059C10.9458 2.54883 9.68164 1.08691 8.13037 1.08691ZM14.019 18.0352L2.12012 18.0337C1.31445 18.0029 0.722656 17.3511 0.64209 16.541L0.634766 16.3945L0.105957 4.74902C0.104492 4.74023 0.104492 4.73145 0.104492 4.72266C0.104492 4.53516 0.255371 4.38135 0.441406 4.37842H4.17383C4.26611 1.96143 6.00195 0.0351562 8.13037 0.0351562C10.2588 0.0351562 11.9961 1.96143 12.0869 4.37842H15.8135C16.0039 4.37842 16.1577 4.53223 16.1577 4.72266C16.1577 4.72852 16.1577 4.73438 16.1577 4.74023L15.5776 16.4312L15.5718 16.5308C15.5029 17.3511 14.8394 18.0132 14.019 18.0352Z" fill="white"/>
</svg>
