<svg width="16" height="19" viewBox="0 0 16 19" fill="none" xmlns="http://www.w3.org/2000/svg">
<path d="M12.0342 3.56133C11.8373 1.57852 10.2131 0.0351562 8.23731 0.0351562C6.26504 0.0351562 4.64082 1.56445 4.41582 3.53672L5.43887 3.61758C5.62168 2.19375 6.7959 1.09336 8.23027 1.09336C9.66465 1.09336 10.8529 2.21133 11.0041 3.65273L12.0342 3.56133ZM15.3494 3.33281C14.2244 3.33281 13.1029 3.27305 11.9814 3.37148L10.9584 3.46289C10.0479 3.54375 9.04942 3.77578 8.23027 4.19766C7.3584 3.74414 6.46543 3.50156 5.4916 3.42422L4.46856 3.34336C3.34356 3.25195 2.22559 3.3293 1.10059 3.3293H0.485352V18.0352H10.8354C13.6619 18.0352 15.9717 15.6551 15.9717 12.7441V3.33281H15.3494ZM1.87402 9.52734C1.87402 7.81875 3.22051 6.43008 4.87988 6.43008C6.53926 6.43008 7.88574 7.81524 7.88574 9.52734C7.88574 11.2359 6.53926 12.6246 4.87988 12.6246C3.21699 12.6246 1.87402 11.2359 1.87402 9.52734ZM8.22324 14.3367C7.77676 13.848 7.33027 13.3629 6.88379 12.8777C7.16504 12.3785 7.6959 12.1289 8.22324 12.1324C8.75059 12.1324 9.28145 12.3785 9.5627 12.8777C9.11621 13.3629 8.66973 13.848 8.22324 14.3367ZM11.5666 12.6246C9.90723 12.6246 8.56074 11.2395 8.56074 9.52734C8.56074 7.81875 9.90723 6.43008 11.5666 6.43008C13.226 6.43008 14.5725 7.81524 14.5725 9.52734C14.5725 11.2359 13.226 12.6246 11.5666 12.6246ZM5.25606 7.6043C6.32832 7.6043 7.19668 8.50078 7.19668 9.60117C7.19668 10.7051 6.32832 11.6016 5.25606 11.6016C4.18379 11.6016 3.31543 10.7051 3.31543 9.60117C3.31543 9.23203 3.41387 8.8875 3.58262 8.59219C3.71973 8.94375 4.05723 9.19336 4.45098 9.19336C4.96777 9.19336 5.38613 8.76445 5.38613 8.23008C5.38613 7.99102 5.30176 7.77305 5.16113 7.6043H5.25606ZM11.1904 7.6043C12.2627 7.6043 13.1311 8.50078 13.1311 9.60117C13.1311 10.7051 12.2627 11.6016 11.1904 11.6016C10.1182 11.6016 9.24981 10.7051 9.24981 9.60117C9.24981 9.23203 9.34473 8.8875 9.51348 8.59219C9.6541 8.94375 9.98809 9.19336 10.3818 9.19336C10.8986 9.19336 11.317 8.76445 11.317 8.23008C11.317 7.99102 11.2326 7.77305 11.092 7.6043H11.1904Z" fill="white"/>
</svg>
