<svg width="16" height="15" viewBox="0 0 16 15" fill="none" xmlns="http://www.w3.org/2000/svg">
<path fill-rule="evenodd" clip-rule="evenodd" d="M7.92032 14.9979C11.8661 14.9979 15.0648 11.7992 15.0648 7.85343C15.0648 3.90766 11.8661 0.708984 7.92032 0.708984C3.97456 0.708984 0.775879 3.90766 0.775879 7.85343C0.775879 11.7992 3.97456 14.9979 7.92032 14.9979ZM8.81342 3.48752C8.81342 2.99429 8.41358 2.59446 7.92036 2.59446C7.42714 2.59446 7.02731 2.99429 7.02731 3.48752V7.6303C7.02731 8.24683 7.5271 8.74662 8.14363 8.74662H10.6988C11.192 8.74662 11.5918 8.34679 11.5918 7.85357C11.5918 7.36034 11.192 6.96051 10.6988 6.96051H8.81342V3.48752Z" fill="#FBB040"/>
</svg>
