<svg width="19" height="19" viewBox="0 0 19 19" fill="none" xmlns="http://www.w3.org/2000/svg">
<path fill-rule="evenodd" clip-rule="evenodd" d="M15.3395 4.35859C13.8569 2.71122 11.708 1.67539 9.31714 1.67539C5.50491 1.67539 2.30779 4.30898 1.44589 7.85606L3.60745 7.4958C5.13029 7.24199 6.45054 8.56223 6.19673 10.0851L6.07567 10.8114C5.8914 11.9171 6.44977 13.0136 7.45231 13.5149C8.58521 14.0813 9.17268 15.3586 8.86548 16.5874L8.55239 17.8398C8.80414 17.8633 9.05923 17.8754 9.31714 17.8754C10.3298 17.8754 11.299 17.6896 12.1926 17.3502L12.5863 16.3658C12.8122 15.8012 12.9607 15.2086 13.0278 14.6043L13.0458 14.4428C13.231 12.7753 12.5591 11.1275 11.2606 10.0651L9.4606 8.59237C8.78416 8.03893 8.58136 7.09073 8.97222 6.309C9.28895 5.67554 9.9364 5.27539 10.6446 5.27539H13.6671C13.9592 5.27539 14.2435 5.18065 14.4771 5.00539L15.3395 4.35859ZM13.3907 16.778L13.422 16.7C13.6779 16.0601 13.8462 15.3886 13.9223 14.7037L13.9403 14.5422C14.1592 12.5715 13.3651 10.6241 11.8305 9.36852L10.0305 7.89581C9.67966 7.60876 9.57447 7.11695 9.7772 6.71149C9.94148 6.38293 10.2773 6.17539 10.6446 6.17539H13.6671C14.154 6.17539 14.6277 6.01749 15.0171 5.72539L15.904 5.06022C16.8564 6.38834 17.4171 8.01639 17.4171 9.77539C17.4171 12.7638 15.7988 15.3742 13.3907 16.778ZM12.8859 18.0401C16.0812 16.6584 18.3171 13.478 18.3171 9.77539C18.3171 4.80483 14.2877 0.775391 9.31714 0.775391C4.34658 0.775391 0.317139 4.80483 0.317139 9.77539C0.317139 14.746 4.34658 18.7754 9.31714 18.7754C10.5837 18.7754 11.7892 18.5137 12.8825 18.0415L12.8859 18.0401ZM7.65829 17.7054L7.99236 16.3691C8.19725 15.5496 7.80542 14.6976 7.04982 14.3198C5.69389 13.6419 4.93869 12.1588 5.18791 10.6635L5.30898 9.93712C5.46126 9.02342 4.66911 8.23127 3.75541 8.38355L1.27564 8.79685C1.23702 9.11763 1.21714 9.44419 1.21714 9.77539C1.21714 13.6804 3.98044 16.9399 7.65829 17.7054Z" fill="white"/>
<path d="M9.31714 1.67539C11.708 1.67539 13.8569 2.71122 15.3395 4.35859L14.4771 5.00539C14.2435 5.18065 13.9592 5.27539 13.6671 5.27539H10.6446C9.9364 5.27539 9.28895 5.67554 8.97222 6.309C8.58136 7.09073 8.78416 8.03893 9.4606 8.59237L11.2606 10.0651C12.5591 11.1275 13.231 12.7753 13.0458 14.4428L13.0278 14.6043C12.9607 15.2086 12.8122 15.8012 12.5863 16.3658L12.1926 17.3502C11.299 17.6896 10.3298 17.8754 9.31714 17.8754C9.05923 17.8754 8.80414 17.8633 8.55239 17.8398L8.86548 16.5874C9.17268 15.3586 8.58521 14.0813 7.45231 13.5149C6.44977 13.0136 5.8914 11.9171 6.07567 10.8114L6.19673 10.0851C6.45054 8.56223 5.13029 7.24199 3.60745 7.4958L1.44589 7.85606C2.30779 4.30898 5.50491 1.67539 9.31714 1.67539Z" fill="white"/>
</svg>
