<svg width="22" height="22" viewBox="0 0 22 22" fill="none" xmlns="http://www.w3.org/2000/svg">
<path fill-rule="evenodd" clip-rule="evenodd" d="M10.7467 21.968C16.6587 21.968 21.4514 17.1753 21.4514 11.2633C21.4514 5.35125 16.6587 0.558594 10.7467 0.558594C4.83465 0.558594 0.0419922 5.35125 0.0419922 11.2633C0.0419922 17.1753 4.83465 21.968 10.7467 21.968ZM11.6388 4.72168C11.6388 4.22901 11.2394 3.82962 10.7467 3.82962C10.254 3.82962 9.85466 4.22901 9.85466 4.72168V11.0404C9.85466 11.6563 10.3539 12.1555 10.9697 12.1555H14.9097C15.4023 12.1555 15.8017 11.7561 15.8017 11.2634C15.8017 10.7708 15.4023 10.3714 14.9097 10.3714H11.6388V4.72168Z" fill="#0F9288"/>
</svg>
