<svg width="22" height="22" viewBox="0 0 22 22" fill="none" xmlns="http://www.w3.org/2000/svg">
<path fill-rule="evenodd" clip-rule="evenodd" d="M8.83908 18.0024C13.7078 18.0024 17.6547 14.0555 17.6547 9.18673C17.6547 4.31799 13.7078 0.371094 8.83908 0.371094C3.97033 0.371094 0.0234375 4.31799 0.0234375 9.18673C0.0234375 14.0555 3.97033 18.0024 8.83908 18.0024ZM8.83908 2.88985C8.01216 2.88985 7.19333 3.05272 6.42936 3.36917C5.66539 3.68562 4.97123 4.14944 4.38651 4.73416C3.80179 5.31888 3.33796 6.01305 3.02151 6.77702C2.70506 7.54099 2.54219 8.35981 2.54219 9.18673C2.54219 9.88227 3.10603 10.4461 3.80157 10.4461C4.4971 10.4461 5.06094 9.88227 5.06094 9.18673C5.06094 8.69058 5.15867 8.19929 5.34854 7.7409C5.53841 7.28252 5.8167 6.86602 6.16753 6.51519C6.51836 6.16436 6.93486 5.88606 7.39325 5.69619C7.85163 5.50632 8.34292 5.4086 8.83908 5.4086C9.53461 5.4086 10.0985 4.84476 10.0985 4.14922C10.0985 3.45369 9.53461 2.88985 8.83908 2.88985Z" fill="#0F9288"/>
<path fill-rule="evenodd" clip-rule="evenodd" d="M16.7644 17.1111C17.2562 16.6192 18.0536 16.6192 18.5454 17.1111L21.0642 19.6298C21.556 20.1216 21.556 20.919 21.0642 21.4108C20.5723 21.9026 19.7749 21.9026 19.2831 21.4108L16.7644 18.8921C16.2726 18.4003 16.2726 17.6029 16.7644 17.1111Z" fill="#0F9288"/>
</svg>
