<svg width="49" height="56" viewBox="0 0 49 56" fill="none" xmlns="http://www.w3.org/2000/svg">
<path fill-rule="evenodd" clip-rule="evenodd" d="M6.98145 18.2668L11.2863 22.5716L21.3097 12.5482L21.3097 24.9852L27.3977 24.9852L27.3977 12.5482L37.4212 22.5716L41.726 18.2668L24.3537 0.89453L6.98145 18.2668Z" fill="#0F9288"/>
<path fill-rule="evenodd" clip-rule="evenodd" d="M21.3098 31.0723V41.7262C21.3098 43.4073 22.6726 44.7701 24.3537 44.7701C26.0349 44.7701 27.3977 43.4073 27.3977 41.7262V31.0723H42.6176C45.9798 31.0723 48.7055 33.7979 48.7055 37.1602V49.3361C48.7055 52.6984 45.9798 55.424 42.6176 55.424H6.0899C2.72762 55.424 0.00195312 52.6984 0.00195312 49.3361V37.1602C0.00195312 33.7979 2.72762 31.0723 6.0899 31.0723H21.3098Z" fill="#0F9288"/>
</svg>
