<svg width="22" height="18" viewBox="0 0 22 18" fill="none" xmlns="http://www.w3.org/2000/svg">
<path fill-rule="evenodd" clip-rule="evenodd" d="M1.28383 1.74477C0.5 2.5286 0.5 3.79017 0.5 6.31329V12.2603C0.5 14.7835 0.5 16.045 1.28383 16.8289C2.06767 17.6127 3.32923 17.6127 5.85235 17.6127H16.5571C19.0802 17.6127 20.3417 17.6127 21.1256 16.8289C21.9094 16.045 21.9094 14.7835 21.9094 12.2603V6.31329C21.9094 3.79017 21.9094 2.5286 21.1256 1.74477C20.3417 0.960938 19.0802 0.960938 16.5571 0.960938H5.85235C3.32923 0.960938 2.06767 0.960938 1.28383 1.74477ZM4.5648 4.97606C4.15488 4.70277 3.60102 4.81354 3.32774 5.22347C3.05445 5.63339 3.16523 6.18725 3.57515 6.46053L10.2168 10.8883C10.8161 11.2878 11.5968 11.2878 12.1961 10.8883L18.8377 6.46053C19.2477 6.18725 19.3584 5.63339 19.0852 5.22347C18.8119 4.81354 18.258 4.70277 17.8481 4.97606L11.2064 9.40382L4.5648 4.97606Z" fill="#0F9288"/>
</svg>
