<svg width="554" height="412" viewBox="0 0 554 412" fill="none" xmlns="http://www.w3.org/2000/svg">
<path d="M146.072 118.042C145.897 116.653 145.542 115.293 145.016 113.995C144.949 113.75 144.832 113.521 144.671 113.324C144.511 113.126 144.312 112.964 144.085 112.848C143.783 112.77 143.466 112.766 143.162 112.838L138.421 113.564C138.024 113.582 137.644 113.73 137.339 113.984C136.722 114.634 137.33 115.681 137.311 116.577C137.29 117.585 136.395 118.403 135.424 118.674C134.433 118.874 133.411 118.861 132.425 118.637L125.796 117.606C127.749 116.982 129.486 115.822 130.811 114.257C131.684 113.223 132.148 111.293 130.887 110.803C130.512 110.7 130.122 110.669 129.736 110.71C126.732 110.734 124.369 108.225 121.557 107.168C119.757 106.535 117.804 106.488 115.976 107.033C114.148 107.579 112.539 108.688 111.379 110.204L114.911 110.374C115.243 110.356 115.572 110.443 115.851 110.625C116.625 111.261 115.663 112.483 115.772 113.48C115.914 114.774 117.631 115.05 118.926 115.181C120.221 115.312 121.864 116.365 121.241 117.508C114.733 119.751 108.11 113.124 101.276 113.939C99.5461 114.146 97.9127 114.826 96.2238 115.253C85.907 117.865 75.2413 110.897 64.7022 112.373C62.3592 112.772 60.0565 113.38 57.8213 114.188C56.3869 114.66 54.8907 115.169 53.8485 116.262C52.8063 117.355 52.4096 119.224 53.397 120.366C50.6756 120.591 47.936 120.33 45.3056 119.597C46.0169 119.992 46.6087 120.572 47.0188 121.276C47.4288 121.979 47.6421 122.78 47.6362 123.594C43.3871 124.288 39.2505 125.55 35.3377 127.346C36.068 128.561 36.9209 129.698 37.8832 130.739L32.5039 134.197C34.3213 134.655 35.2609 137.135 34.204 138.683C36.0884 137.845 37.2563 135.675 39.2714 135.235C40.5915 134.947 41.9348 135.487 43.1871 135.994C44.4395 136.502 45.8159 136.994 47.1124 136.613C48.4088 136.232 49.365 134.55 48.5413 133.479C54.0826 131.861 59.8095 130.966 65.5799 130.815C66.0251 130.759 66.4765 130.845 66.8703 131.06C67.6215 131.582 67.4238 132.708 67.3834 133.622C67.3429 134.536 68.0548 135.737 68.8711 135.325C67.9107 136.158 68.7317 137.727 69.6531 138.603C70.5745 139.479 71.685 140.688 71.1209 141.828C70.9737 142.126 70.724 142.364 70.5823 142.664C70.1642 143.55 70.8281 144.583 71.6111 145.171C72.3942 145.76 73.3534 146.171 73.8973 146.986C74.4413 147.8 74.1943 149.227 73.2216 149.34L70.4569 145.828C69.5123 146.808 68.8648 148.036 68.5893 149.369C71.521 151.767 71.962 156.648 69.5076 159.533C68.2533 161.008 66.4697 161.904 64.9129 163.054C63.3562 164.204 61.9157 165.841 61.9196 167.777C61.9263 171.123 61.6532 174.23 62.9059 177.331C65.216 183.05 67.8831 188.617 70.8914 194.001C71.6814 195.415 72.7023 196.964 74.3027 197.208C72.2802 192.281 70.4595 187.278 68.8407 182.198C69.895 182.202 71.1135 182.286 71.7316 183.141C72.2434 183.848 72.1335 184.811 72.2925 185.67C72.4948 186.502 72.8321 187.295 73.291 188.018L82.9492 205.232C83.7498 206.659 84.6682 208.191 86.1984 208.769C87.1768 209.138 88.3086 209.069 89.2091 209.601C89.9149 210.018 90.3903 210.758 91.1099 211.151C93.1444 212.261 95.9736 210.131 97.875 211.457C98.4186 211.836 98.7645 212.439 99.2654 212.873C101.021 214.394 103.902 213.376 105.929 214.511C107.236 215.243 107.913 216.706 108.61 218.032C110.355 221.353 113.18 224.606 116.92 224.871C118.096 224.954 119.296 224.731 120.444 224.993C121.593 225.254 122.724 226.257 122.539 227.421C122.223 229.417 123.209 231.602 122.944 233.606C122.462 237.255 117.289 238.858 116.845 242.512C116.747 243.312 116.9 244.138 116.709 244.921C116.476 245.881 115.756 246.662 115.5 247.616C115.015 249.424 116.309 251.223 117.731 252.439C119.153 253.655 120.849 254.704 121.627 256.406C122.448 258.206 122.045 260.304 122.312 262.265C122.896 266.544 126.59 269.717 130.392 271.762C131.55 272.386 132.794 272.989 133.544 274.07C134.522 275.481 134.425 277.342 134.751 279.028C135.552 283.158 139.026 286.56 139.125 290.766C139.195 293.755 137.534 296.466 136.542 299.287C135.612 301.989 135.276 304.86 135.556 307.704C135.836 310.548 136.725 313.299 138.164 315.767C138.906 317.021 139.794 318.203 140.319 319.562C141.255 321.988 140.951 324.745 141.815 327.197C142.957 330.44 146.095 333.118 145.794 336.542C147.219 339.502 150.365 340.956 153.528 341.837L159.197 343.416C160.282 343.719 161.416 344.023 162.521 343.804C163.627 343.585 164.682 342.667 164.653 341.54C161.873 340.913 159.004 340.246 156.712 338.551C154.421 336.856 152.851 333.838 153.72 331.122C154.124 329.863 154.981 328.409 154.166 327.369C153.699 326.773 152.845 326.617 152.319 326.074C151.497 325.226 151.779 323.802 152.37 322.78C152.96 321.757 153.814 320.844 154.052 319.687C154.172 319.04 154.092 318.372 153.822 317.772C153.552 317.172 153.105 316.669 152.541 316.331C153.592 315.934 154.548 315.32 155.347 314.529C156.085 313.686 156.425 312.386 155.845 311.428C157.569 311.647 159.604 311.754 160.735 310.434C161.639 309.381 161.577 307.806 161.22 306.464C160.863 305.123 160.259 303.82 160.24 302.431C164.217 302.62 168.202 302.485 172.156 302.027C171.584 300.1 170.285 298.472 168.533 297.487C170.324 297.184 171.956 295.039 172.522 293.312C173.088 291.585 172.943 289.704 172.594 287.92C172.459 287.461 172.441 286.976 172.54 286.508C172.742 285.865 173.373 285.472 173.957 285.137L182.847 280.028C183.377 279.762 183.858 279.407 184.268 278.978C185.2 277.884 185.062 276.231 184.585 274.875C184.108 273.519 183.344 272.244 183.16 270.818C182.611 266.554 187.173 263.494 188.713 259.48C189.317 257.905 189.44 256.193 189.557 254.51C189.683 252.702 189.692 250.602 188.305 249.437C186.975 248.32 184.897 248.569 183.505 247.531C182.23 246.578 181.789 244.729 180.396 243.959C179.13 243.261 177.543 243.705 176.135 243.377C173.657 242.798 172.097 239.94 169.566 239.675C168.137 239.526 166.521 240.224 165.35 239.392C164.319 238.659 164.278 237.185 164.081 235.934C163.737 233.99 162.806 232.199 161.413 230.801C160.02 229.403 158.233 228.465 156.291 228.115C154.819 227.878 153.216 227.968 151.963 227.158C150.694 226.338 150.113 224.803 149.116 223.668C147.51 221.838 144.981 221.188 142.612 220.63L132.974 218.363C131.263 217.961 129.058 217.748 128.14 219.247C127.868 219.818 127.676 220.424 127.568 221.047C127.224 222.174 126.532 223.163 125.591 223.872C124.65 224.58 123.508 224.972 122.33 224.991C121.523 223.613 120.214 222.6 118.678 222.164C117.701 221.891 116.655 221.861 115.723 221.46C115.215 221.212 114.763 220.863 114.395 220.434C114.027 220.006 113.75 219.506 113.581 218.967C113.413 218.428 113.356 217.859 113.414 217.297C113.473 216.735 113.645 216.191 113.921 215.698C114.477 214.708 114.691 213.563 114.532 212.439C114.372 211.315 113.847 210.274 113.038 209.479C111.399 208.006 109.028 207.651 106.831 207.798C106.255 206.541 107.218 205.123 108.255 204.21C109.292 203.297 110.551 202.399 110.777 201.036C111.132 198.891 108.397 197.261 106.32 197.901C104.243 198.54 102.917 200.559 102.041 202.549C101.538 203.69 101.111 204.893 100.318 205.855C99.5245 206.818 98.2473 207.507 97.0393 207.198C95.3291 206.761 94.6686 204.728 94.2901 203.003C93.7823 200.688 93.2715 198.341 93.3779 195.974C93.4843 193.607 94.2819 191.176 96.0265 189.574C98.8694 186.962 103.231 187.218 107.067 187.635C106.161 186.613 106.385 184.891 107.355 183.929C107.867 183.474 108.482 183.151 109.147 182.987C109.812 182.824 110.507 182.825 111.172 182.991C112.328 183.232 113.369 183.855 114.128 184.76C115.219 186.09 115.529 187.886 116.353 189.395C117.177 190.905 119.03 192.193 120.547 191.383C121.857 190.683 122.065 188.865 121.739 187.416C121.413 185.966 120.72 184.557 120.838 183.076C121.064 180.25 123.991 178.549 126.575 177.385C129.159 176.221 132.117 174.655 132.527 171.85C132.541 171.301 132.644 170.758 132.833 170.242C133.12 169.786 133.518 169.411 133.99 169.153C141.531 164.167 149.197 159.12 157.815 156.395C158.264 156.254 158.316 156.411 158.773 156.3C159.413 155.93 158.989 154.907 158.376 154.495C157.763 154.083 156.943 153.767 156.787 153.044C156.673 152.513 156.986 151.992 157.067 151.455C157.267 150.135 155.689 148.916 154.463 149.444C153.771 148.526 155.14 147.46 156.248 147.155C159.574 146.239 162.989 145.681 166.433 145.49C166.831 145.427 167.238 145.496 167.592 145.688C168.171 146.089 168.097 147.008 167.687 147.581C167.277 148.153 166.639 148.512 166.128 148.997C165.57 149.541 165.172 150.228 164.977 150.983C164.782 151.738 164.799 152.532 165.024 153.278C166.823 154.193 168.777 155.136 170.769 154.813C172.761 154.491 174.528 152.252 173.592 150.464C172.72 148.798 170.102 148.423 169.652 146.598C169.124 144.461 172.148 142.561 171.467 140.468C171.168 139.551 170.255 139.012 169.555 138.35C168.727 137.538 168.164 136.495 167.94 135.358C167.716 134.221 167.84 133.042 168.298 131.977C167.156 132.178 165.984 132.102 164.878 131.756C163.772 131.409 162.765 130.803 161.942 129.987C160.422 128.452 159.209 126.03 157.05 126.099C155.069 126.162 153.363 128.474 151.511 127.769C151.055 127.595 150.575 127.242 150.133 127.449C149.988 127.543 149.867 127.669 149.778 127.817C149.689 127.965 149.635 128.131 149.619 128.303C149.148 130.554 149.958 133.12 148.732 135.066C147.397 137.183 144.31 137.477 142.691 139.386C141.813 140.423 141.473 141.82 140.665 142.912C139.858 144.005 138.144 144.7 137.175 143.748C137.652 142.768 137.782 141.656 137.544 140.593C137.307 139.53 136.716 138.579 135.869 137.895C134.969 137.308 133.999 136.836 132.982 136.49C131.846 136.009 130.765 135.406 129.758 134.692C129.253 134.388 128.843 133.949 128.574 133.425C128.361 132.769 128.39 132.058 128.655 131.421C129.146 130.011 130.013 128.763 131.162 127.81C132.31 126.858 133.697 126.237 135.172 126.016C136.462 125.84 137.964 125.902 138.818 124.918C139.269 124.398 139.506 123.611 140.162 123.4C140.582 123.316 141.017 123.369 141.404 123.553L146.219 125.249C146.756 125.491 147.347 125.589 147.934 125.533C148.225 125.493 148.49 125.345 148.677 125.119C148.863 124.892 148.957 124.603 148.94 124.31C148.786 123.51 147.555 123.126 147.667 122.319C147.73 122.057 147.871 121.821 148.07 121.641C149.808 119.79 151.933 118.347 154.294 117.414C156.654 116.481 159.192 116.082 161.724 116.246C162.332 117.245 161.371 118.427 160.571 119.28C159.771 120.132 159.129 121.656 160.096 122.312C160.492 122.514 160.933 122.614 161.378 122.601C162.564 122.762 163.716 123.111 164.791 123.637C166.454 124.361 168.087 125.154 169.687 126.015C169.545 124.959 169.41 123.847 169.81 122.86C170.21 121.873 171.347 121.099 172.339 121.483C173.296 121.854 173.787 123.121 174.806 123.237C176.165 123.392 176.702 121.383 176.134 120.137C175.566 118.891 174.442 117.848 174.348 116.482C174.285 115.561 174.635 114.418 173.899 113.86C173.638 113.692 173.34 113.588 173.031 113.555L154.662 110.173C153.571 109.972 151.995 110.126 151.947 111.235C151.92 111.854 152.472 112.466 152.228 113.035C151.967 113.642 151.109 113.587 150.484 113.802C149.514 114.135 149.027 115.287 149.121 116.308C149.291 117.324 149.684 118.288 150.271 119.134C149.076 118.634 147.267 118.542 146.072 118.042Z" fill="#3F3D56"/>
<path d="M131.415 102.44C130.257 102.056 129.009 102.039 127.84 102.389C126.671 102.739 125.638 103.441 124.881 104.398C124.579 104.796 124.325 105.346 124.578 105.777C124.941 106.396 125.866 106.151 126.548 105.93C127.551 105.572 128.642 105.546 129.66 105.856C130.3 106.076 130.873 106.465 131.516 106.676C131.829 106.807 132.172 106.851 132.508 106.802C132.844 106.753 133.16 106.613 133.422 106.398C133.864 105.947 133.892 105.247 133.892 104.616C133.923 104.405 133.906 104.19 133.843 103.986C133.78 103.782 133.672 103.595 133.527 103.438C133.27 103.289 132.981 103.204 132.684 103.189C132.018 103.065 131.416 102.714 130.982 102.194" fill="#3F3D56"/>
<path d="M138.04 100.594C137.781 100.58 137.522 100.633 137.289 100.747C137.056 100.862 136.857 101.035 136.71 101.249C136.563 101.463 136.474 101.712 136.45 101.97C136.427 102.229 136.471 102.489 136.577 102.726C137.373 102.944 138.205 102.998 139.023 102.886C139.43 102.823 139.81 102.64 140.115 102.361C140.419 102.082 140.633 101.719 140.732 101.318C139.769 101.493 138.776 101.303 137.946 100.786" fill="#3F3D56"/>
<path d="M160.262 97.5123C158.095 97.9732 155.99 98.6886 153.991 99.6436C154.934 100.006 155.735 100.662 156.276 101.514C156.818 102.367 157.072 103.371 157 104.378C156.916 104.765 156.926 105.167 157.029 105.549C157.259 106.108 157.927 106.317 158.513 106.461C159.567 106.782 160.668 106.922 161.769 106.877C162.32 106.848 162.854 106.682 163.325 106.394C163.795 106.107 164.187 105.706 164.464 105.229C164.623 104.776 164.81 104.333 165.024 103.903C166.43 101.76 170.608 104.352 172.118 102.28C172.65 101.551 172.601 100.452 173.295 99.8742C173.653 99.6223 174.069 99.4636 174.504 99.4124C177.541 98.8087 180.608 98.3717 183.692 98.1031C185.153 97.9758 187.058 97.4508 187.07 95.9832C181.566 94.9016 175.859 95.6698 170.836 98.1684C169.026 99.0753 166.633 100.983 164.89 99.7807C164.237 99.3305 164.269 98.1183 163.371 97.6121C162.453 97.0945 161.237 97.305 160.262 97.5123Z" fill="#3F3D56"/>
<path d="M178.263 100.88L180.847 101.377C180.371 101.356 179.897 101.437 179.455 101.614C179.013 101.791 178.613 102.06 178.284 102.403C177.954 102.747 177.701 103.157 177.542 103.606C177.384 104.055 177.322 104.533 177.363 105.008C179.782 105.816 182.42 105.029 184.969 105.137C187.518 105.244 190.483 107.066 190.048 109.581C189.917 110.342 189.477 111.102 189.706 111.839C189.866 112.355 190.321 112.722 190.578 113.198C191.114 114.19 190.686 115.444 190.009 116.345C189.333 117.247 188.424 117.966 187.83 118.924C186.353 121.307 187.192 124.387 188.072 127.049C188.326 128.054 188.796 128.993 189.449 129.799C190.752 131.186 192.876 131.306 194.778 131.334C196.162 131.354 197.748 131.286 198.623 130.212C199.766 128.811 198.967 126.625 199.719 124.981C200.403 123.488 202.144 122.847 203.722 122.392C206.612 121.56 209.557 120.852 212.289 119.595C215.682 118.033 218.853 115.6 222.582 115.399C223.628 115.343 224.7 115.466 225.708 115.179C226.715 114.893 227.673 114.021 227.596 112.975C227.531 112.082 226.776 111.426 226.186 110.753C225.595 110.079 225.132 109.044 225.674 108.331L235.449 106.505C234.756 104.615 234.216 102.127 235.808 100.897C236.383 100.454 237.152 100.276 237.641 99.7399C238.474 98.8256 238.055 97.2508 237.093 96.4733C236.131 95.6958 234.83 95.5153 233.597 95.4128C229.311 95.0567 225.001 95.292 220.707 95.5275C212.313 95.9879 203.919 96.4483 195.524 96.9086C193.835 97.0013 191.884 96.8597 190.334 97.4366C189.022 97.9249 188.089 98.8213 186.588 99.1362C183.818 99.7176 180.77 99.3242 178.263 100.88Z" fill="#3F3D56"/>
<path d="M224.55 121.316C224.286 121.274 224.017 121.335 223.798 121.486C223.652 121.646 223.566 121.851 223.553 122.066C223.386 123.018 223.585 123.998 224.109 124.809C224.376 125.207 224.745 125.526 225.177 125.734C225.609 125.941 226.089 126.029 226.566 125.988C227.73 125.839 228.587 124.846 229.656 124.362C231.305 123.615 238.306 122.452 233.463 119.834C231.794 118.932 230.716 119.729 229.4 120.323C227.904 121.089 226.227 121.432 224.55 121.316Z" fill="#3F3D56"/>
<path d="M266.967 99.4036C266.401 99.6348 265.928 100.047 265.622 100.575C265.48 100.844 265.447 101.156 265.53 101.448C265.612 101.74 265.804 101.989 266.065 102.144C266.276 102.22 266.5 102.256 266.724 102.248L269.024 102.317C270 102.346 271.221 102.554 271.483 103.496C271.678 104.196 271.242 105.094 271.768 105.594C271.994 105.769 272.266 105.875 272.55 105.899C273.308 106.094 274.099 106.12 274.867 105.974C276.54 105.525 275.661 104.504 276.188 103.594C276.994 102.202 276.854 103.044 278.275 102.247C279.324 101.658 280.68 100.589 279.804 99.0874C278.281 96.4763 269.214 98.2819 266.967 99.4036Z" fill="#3F3D56"/>
<path d="M312.35 98.09L311.015 98.2683C308.004 98.6703 304.976 99.076 302.076 99.9806C303.331 100.477 304.648 100.801 305.991 100.942C306.73 100.978 307.464 101.082 308.183 101.254C309.464 101.635 310.755 102.62 311.992 102.116C312.759 101.803 313.01 101.003 313.645 100.58C314.084 100.287 315.749 99.8138 315.935 99.5186C317.439 97.1319 313.506 97.9356 312.35 98.09Z" fill="#3F3D56"/>
<path d="M318.212 104.161C316.429 105.159 314.774 106.371 313.285 107.771C312.658 108.361 312.017 109.095 312.074 109.955C312.149 111.097 313.366 111.76 314.419 112.206L318.688 114.014C319.205 113.284 318.732 112.276 318.196 111.558C317.661 110.841 317.025 110.011 317.262 109.147C317.532 108.162 318.732 107.826 319.739 107.656C321.38 107.38 325.806 107.402 325.274 104.756C324.647 101.639 319.859 103.24 318.212 104.161Z" fill="#3F3D56"/>
<path d="M317.354 280.569C316.947 281.746 316.909 283.133 317.612 284.16C318.4 285.313 319.979 285.743 321.344 285.451C322.704 285.089 323.916 284.309 324.81 283.221C325.627 282.31 326.299 281.279 326.803 280.163C327.506 278.424 328.002 276.609 328.281 274.754L329.606 267.792C329.902 266.236 329.89 261.466 327.032 263.02C326.252 263.445 324.444 266.797 323.626 267.747C322.151 269.461 321.956 271.123 321.179 273.199C320.207 275.798 318.253 277.965 317.354 280.569Z" fill="#3F3D56"/>
<path d="M468.308 316.196C467.373 315.831 466.466 315.398 465.593 314.902C464.717 317.31 464.252 319.848 464.216 322.41L470.615 318.787C471.578 318.242 472.669 317.484 472.648 316.378C472.657 316.241 472.629 316.105 472.566 315.983C472.504 315.861 472.41 315.758 472.295 315.685C472.152 315.628 471.997 315.61 471.846 315.632C470.897 315.711 470.032 316.179 469.137 316.503C468.241 316.828 467.195 317 466.373 316.518" fill="#3F3D56"/>
<path d="M502.066 318.348C501.364 318.539 500.678 318.786 500.014 319.085C498.546 319.832 497.547 321.252 496.225 322.237C494.96 323.179 493.438 323.697 491.944 324.2C491.504 324.589 491.706 325.372 492.183 325.713C492.696 326.005 493.285 326.138 493.873 326.093C495.426 326.128 497.062 326.143 498.422 325.392C499.188 324.895 499.905 324.326 500.563 323.692C502.153 322.364 504.062 321.489 505.953 320.642C506.641 320.382 507.277 320.002 507.831 319.518C509.019 318.348 509.102 316.541 507.39 316.143C506.006 315.821 503.384 317.921 502.066 318.348Z" fill="#3F3D56"/>
<path d="M516.982 308.599C517.059 307.794 516.952 306.981 516.669 306.223C516.386 305.465 515.935 304.781 515.349 304.223C515.332 305.835 515.283 307.552 514.377 308.885C513.731 309.834 512.719 310.476 512.012 311.381C511.304 312.285 510.99 313.719 511.82 314.513C512.35 314.917 512.996 315.139 513.662 315.148C515.314 315.342 517.225 315.451 518.384 314.257C519.016 313.605 519.323 312.64 520.095 312.161C520.382 312.041 520.638 311.857 520.845 311.624C521.163 311.118 520.658 310.45 520.088 310.268C519.519 310.085 518.891 310.171 518.319 309.998C517.747 309.824 517.222 309.181 517.515 308.659" fill="#3F3D56"/>
<path d="M490.472 249.5C489.606 249.71 488.709 249.763 487.824 249.656C486.353 249.385 485.209 248.277 484.022 247.368C481.201 245.218 477.77 244.019 474.225 243.943C470.999 243.882 467.744 244.756 464.576 244.146C464.783 245.298 465.768 246.162 466.819 246.675C467.87 247.189 469.03 247.447 470.086 247.95C471.778 248.764 473.119 250.16 473.865 251.883C474.205 252.677 474.419 253.542 474.934 254.235C475.987 255.653 477.983 255.965 479.745 255.849C482.041 255.697 484.44 255.037 486.577 255.893C488.212 256.548 489.381 257.979 490.746 259.092C492.111 260.205 494.034 261.031 495.601 260.228C493.973 259.701 492.556 258.667 491.557 257.277C490.558 255.887 490.029 254.214 490.048 252.502C491.585 252.643 496.012 252.589 495.774 249.975C495.572 247.761 491.792 249.261 490.472 249.5Z" fill="#3F3D56"/>
<path d="M470.364 267.518C470.637 266.02 472.129 264.698 471.664 263.248C471.343 262.246 470.181 261.751 469.129 261.726C468.077 261.701 467.044 262.015 465.992 262.045C465.307 262.008 464.621 262.018 463.938 262.074C461.85 262.417 460.563 264.607 458.595 265.385C457.399 265.859 456.055 265.768 454.81 266.096C451.986 266.839 450.198 269.509 448.224 271.662C445.033 275.126 440.877 277.551 436.293 278.624C434.687 278.996 432.961 279.234 431.684 280.278C429.994 281.66 429.578 284.029 429.202 286.181C428.163 292.123 426.575 297.956 424.458 303.604L431.165 304.461C432.44 304.624 433.762 304.784 434.99 304.406C435.883 304.069 436.729 303.618 437.506 303.065C440.493 301.209 443.837 300.002 447.32 299.52C449.076 299.279 450.917 299.235 452.566 299.888C454.214 300.541 455.628 302.023 455.766 303.791C456.479 303.569 457.238 303.545 457.964 303.722C458.689 303.898 459.353 304.269 459.884 304.793C460.934 305.864 461.622 307.238 461.85 308.72C462.027 309.639 462.204 310.739 463.055 311.124C463.75 311.438 464.547 311.1 465.307 311.039C467.885 310.832 470.025 313.841 472.56 313.323C475.278 312.767 475.945 308.694 478.597 307.878C480.12 307.409 482.256 307.979 482.986 306.562C483.629 305.312 482.346 303.87 482.478 302.471C482.641 300.749 484.672 300.018 486.238 299.283C491.635 296.749 494.196 289.48 491.581 284.119C490.031 280.943 486.982 278.443 486.419 274.953C485.986 272.269 487.043 269.138 485.333 267.025C484.462 265.95 482.989 265.357 482.471 264.074C482.145 263.267 482.276 262.35 482.101 261.498C481.925 260.645 481.182 259.753 480.34 259.974C477.896 260.615 477.117 268.168 475.808 270.003C473.82 272.792 469.737 270.955 470.364 267.518Z" fill="#3F3D56"/>
<path d="M425.2 252.353C424.365 252.119 423.453 251.888 422.653 252.223C421.853 252.557 421.386 253.733 422.028 254.316C427.051 254.12 432.106 253.926 437.086 254.608C442.825 255.395 448.505 257.343 454.268 256.77C450.976 255.798 447.629 255.021 444.245 254.443L438.603 253.364C437.089 253.047 435.559 252.81 434.021 252.656C430.801 252.39 428.365 253.241 425.2 252.353Z" fill="#3F3D56"/>
<path d="M430.229 234.847C429.812 234.813 429.296 234.783 429.08 235.141C428.874 235.484 429.11 235.937 428.999 236.321C428.848 236.847 428.16 236.981 427.619 236.909C427.077 236.838 426.492 236.667 426.012 236.928C425.768 237.094 425.586 237.335 425.491 237.614C425.396 237.893 425.394 238.196 425.485 238.476C425.681 239.032 425.999 239.538 426.414 239.957C427.124 240.852 427.932 241.663 428.824 242.376C430.551 243.651 432.89 244.266 433.977 246.117C434.13 246.476 434.366 246.793 434.665 247.044C435.187 247.375 435.868 247.123 436.43 246.866L438.4 245.965C438.755 245.837 439.072 245.622 439.322 245.338C439.772 244.727 439.495 243.858 439.117 243.2C438.74 242.542 438.256 241.86 438.337 241.106C438.482 239.76 440.211 239.245 440.922 238.094C441.639 236.933 441.172 235.438 441.255 234.076C441.351 232.483 442.352 230.411 440.742 229.222C439.375 228.21 438.068 229.145 437.086 230.261C435.015 232.616 434.036 235.166 430.229 234.847Z" fill="#3F3D56"/>
<path d="M442.189 211.051C442.862 212.34 444.264 213.109 444.997 214.364C445.792 215.724 445.702 217.482 446.564 218.8C447.449 220.153 449.23 220.871 449.726 222.41C450.268 224.089 449.039 226.131 450.019 227.599C450.201 227.838 450.432 228.038 450.696 228.184C450.959 228.33 451.251 228.42 451.551 228.447C451.851 228.475 452.154 228.44 452.44 228.344C452.726 228.249 452.989 228.095 453.212 227.892C453.625 227.442 453.846 226.848 453.828 226.237C453.81 225.627 453.554 225.047 453.115 224.622C452.535 224.093 451.702 223.864 451.218 223.246C450.965 222.889 450.797 222.48 450.726 222.048C450.462 220.805 450.504 219.515 450.849 218.291C450.979 217.981 451.012 217.638 450.944 217.309C450.726 216.674 449.867 216.629 449.265 216.335C447.897 215.667 447.93 213.735 448.169 212.23C448.01 213.232 444.444 211.528 444.07 210.961C443.329 209.834 443.732 207.66 443.586 206.414C441.984 207.186 441.366 209.476 442.189 211.051Z" fill="#3F3D56"/>
<path d="M406.263 230.878C405.605 230.141 404.614 229.37 403.731 229.815C403.058 230.154 402.873 231.086 403.137 231.792C403.458 232.478 403.953 233.069 404.573 233.505C406.411 235.022 408.392 236.392 409.996 238.156C412.867 241.313 414.388 245.572 417.51 248.48C418.137 249.154 418.968 249.604 419.876 249.761C420.785 249.846 421.807 249.263 421.911 248.355C421.998 247.607 421.476 246.938 420.967 246.383C419.754 245.064 418.426 243.849 417.281 242.469C416.753 241.939 416.42 241.245 416.339 240.501C416.334 239.758 417.01 238.981 417.729 239.165C416.855 238.941 416.206 237.483 414.923 237.209C413.85 236.98 413.59 237.644 412.314 237.097C409.879 236.052 407.968 232.788 406.263 230.878Z" fill="#3F3D56"/>
<path d="M463.477 159.094C462.779 158.886 462.092 158.641 461.42 158.359C459.612 157.816 457.22 159.145 457.461 161.019C457.621 162.263 458.779 163.102 459.418 164.182C460.366 165.783 460.113 167.813 459.615 169.606C459.493 170.161 459.26 170.686 458.931 171.15C458.471 171.639 457.921 172.035 457.311 172.316C454.87 173.686 452.717 175.516 450.971 177.705C450.781 177.907 450.649 178.157 450.588 178.427C450.502 179.06 451.137 179.52 451.496 180.048C452.294 181.22 451.718 182.796 451.796 184.212C451.784 184.412 451.824 184.612 451.91 184.793C451.997 184.974 452.129 185.129 452.292 185.245C452.773 185.49 453.343 185.074 453.604 184.602C454.469 183.034 453.817 180.516 455.44 179.76C455.747 179.617 456.119 179.557 456.324 179.287C456.649 178.859 456.335 178.225 456.5 177.714C456.747 176.946 457.797 176.911 458.603 176.945C459.991 177.003 461.379 176.818 462.704 176.399C463.223 176.275 463.695 176.002 464.061 175.613C464.546 175.007 464.503 174.145 464.406 173.375C463.921 169.535 462.705 165.824 460.825 162.442C462.25 162.624 463.801 162.782 465.032 162.038C465.72 161.622 466.546 160.377 466.205 159.53C465.665 158.19 464.689 159.318 463.477 159.094Z" fill="#3F3D56"/>
<path d="M280.72 180.212C280.89 181.128 281.058 182.092 280.758 182.973C280.458 183.855 279.515 184.592 278.624 184.321C277.933 184.112 277.534 183.416 277.043 182.886C274.313 179.937 268.154 181.645 266.468 177.997C265.779 176.508 266.247 174.724 265.778 173.152C265.482 172.244 264.892 171.46 264.102 170.923C263.312 170.386 262.367 170.127 261.414 170.186C260.544 170.312 259.698 170.564 258.902 170.936C253.571 173.073 247.973 174.473 242.264 175.1C241.179 175.166 240.106 175.361 239.067 175.682C236.723 176.532 235.121 178.707 233.981 180.926C232.841 183.145 232 185.547 230.471 187.519C228.865 189.591 226.615 191.042 224.515 192.611C223.706 193.132 223.033 193.839 222.55 194.671C222.095 195.606 222.121 196.694 222.156 197.733L222.585 210.357C222.64 211.981 222.71 213.662 223.436 215.115C224.343 216.93 226.135 218.118 227.377 219.721C228.646 221.368 229.307 223.403 229.248 225.482C229.221 226.318 229.138 227.306 229.789 227.831C230.185 228.088 230.648 228.221 231.119 228.214L248.186 229.611C251.188 229.857 254.515 230.261 256.475 232.55C257.4 233.63 258.143 235.183 259.56 235.299C260.167 235.349 260.759 235.099 261.367 235.051C262.9 234.93 264.247 236.094 265.098 237.377C266.385 239.332 266.969 241.667 266.754 243.999C266.615 245.462 266.161 246.885 266.064 248.351C265.692 253.932 270.42 258.781 270.512 264.374C270.566 267.663 269.005 270.737 267.483 273.654C269.939 277.376 267.928 282.333 268.906 286.685C269.833 290.814 273.274 294.046 274.131 298.19C274.524 300.087 274.546 302.422 276.218 303.399C276.952 303.756 277.765 303.919 278.58 303.872C283.494 303.93 288.353 302.823 292.757 300.642C294.825 299.616 296.967 298.083 297.328 295.803C297.62 293.963 296.687 291.906 297.636 290.304C298.754 288.416 301.619 288.565 303.264 287.114C305.933 284.758 303.851 280.267 304.933 276.874C305.905 273.825 309.251 272.205 310.909 269.468C311.562 268.292 312.03 267.021 312.298 265.702C313.058 262.55 313.531 259.335 313.711 256.096C313.755 254.129 313.9 252.165 314.146 250.213C315.934 239.097 326.917 231.653 330.483 220.975C330.823 219.955 330.983 218.596 330.076 218.019C329.539 217.763 328.929 217.699 328.35 217.839L320.482 218.831C319.505 218.954 318.47 219.069 317.572 218.663C316.675 218.257 316.032 217.121 316.508 216.259C317.844 213.837 315.095 210.777 313.874 208.295C310.585 201.612 306.669 195.257 302.178 189.317C301.891 189.011 301.711 188.62 301.666 188.203L303.898 188.277C303.145 185.571 301.901 182.61 299.273 181.62C297.793 181.062 296.153 181.255 294.573 181.341C290.049 181.589 285.198 180.905 280.72 180.212Z" fill="#3F3D56"/>
<path d="M294.578 119.229C295.762 120.488 297.088 121.821 298.802 122.041C301.827 122.428 304.003 119.297 305.388 116.578C305.439 117.271 305.759 117.917 306.279 118.378C306.799 118.839 307.478 119.079 308.172 119.047C308.919 118.922 309.632 118.643 310.266 118.228C316.261 114.95 322.976 113.213 329.808 113.174C329.742 112.656 329.87 112.132 330.168 111.703C330.466 111.275 330.911 110.971 331.419 110.852C332.808 110.577 334.06 111.778 334.73 113.026C335.4 114.275 335.818 115.721 336.882 116.656C337.947 117.59 340.008 117.549 340.428 116.196C340.832 114.897 339.48 113.79 338.356 113.024C337.232 112.258 336.048 110.841 336.805 109.711C342.545 108.439 348.321 107.163 354.194 106.91C355.194 106.945 356.191 106.774 357.122 106.406C358.017 105.966 358.729 104.968 358.489 103.999C357.207 104.3 355.864 104.213 354.632 103.748C353.4 103.283 352.335 102.462 351.571 101.388C359.721 100.715 368.39 100.142 375.613 103.979C376.48 105.841 372.062 107.39 373.244 109.069C373.621 109.604 374.376 109.667 375.031 109.679C380.05 109.773 385.098 109.864 390.061 109.106C391.875 108.829 393.706 108.438 395.527 108.662C398.56 109.037 401.154 111.061 404.138 111.721C405.352 111.99 406.714 111.999 407.737 111.292C408.761 110.586 409.201 108.976 408.362 108.058C411.171 105.303 415.834 105.986 419.54 107.305C423.246 108.623 426.757 110.75 430.679 111.044C433.492 111.255 436.344 110.498 439.123 110.979C440.87 111.282 442.495 112.059 444.202 112.537C447.431 113.44 450.846 113.249 454.198 113.293C462.751 113.408 471.211 115.09 479.158 118.255C480.192 118.592 481.139 119.152 481.933 119.896C482.672 120.688 483.049 121.919 482.552 122.882L474.34 121.682C475.114 123.206 477.116 123.466 478.741 123.991C480.367 124.517 482.052 126.313 481.075 127.716C479.314 127.155 477.718 128.917 476.828 130.538C475.939 132.159 474.854 134.1 473.008 134.199C471.356 134.288 469.357 132.879 468.279 134.137C469.768 136.016 471.042 138.054 472.079 140.216C473.144 142.434 473.902 145.23 472.463 147.226C472.237 147.583 471.894 147.849 471.492 147.98C470.317 148.277 469.554 146.839 468.711 145.968C467.649 144.869 466.044 144.558 464.606 144.043C463.168 143.528 461.653 142.514 461.541 140.99C461.471 140.042 461.971 139.161 462.34 138.284C462.959 136.807 463.23 135.207 463.131 133.608C463.051 132.322 462.69 130.984 461.767 130.085C460.844 129.186 459.25 128.901 458.259 129.724C457.796 130.108 457.425 130.723 456.825 130.746C455.764 130.786 454.949 128.935 454.095 129.567C454.195 130.24 454.056 130.928 453.701 131.508C451.153 133.725 447.24 132.787 443.955 133.571C442.393 134.018 440.898 134.671 439.509 135.514C438.989 135.736 438.547 136.107 438.238 136.581C437.828 137.378 438.28 138.399 439.002 138.929C439.769 139.399 440.63 139.694 441.524 139.79C445.528 140.549 449.59 141.724 452.752 144.297C455.913 146.87 457.986 151.124 456.986 155.077L449.089 147.528C449.389 150.697 449.559 153.876 449.6 157.063C449.651 157.686 449.566 158.312 449.35 158.898C448.787 160.142 447.261 160.56 445.924 160.835C445.552 160.906 445.199 161.054 444.889 161.271C444.579 161.488 444.318 161.768 444.123 162.093C443.928 162.417 443.805 162.78 443.76 163.156C443.716 163.532 443.751 163.913 443.864 164.275C444.339 165.824 445.523 167.032 446.608 168.235C447.692 169.439 448.76 170.807 448.902 172.421C449.044 174.035 447.826 175.855 446.211 175.742C444.986 175.657 444.077 174.56 443.555 173.448C443.033 172.337 442.722 171.098 441.937 170.154C439.561 167.295 434.225 168.52 432.096 165.472C431.554 166.088 431.178 166.832 431.003 167.634C430.829 168.436 430.863 169.27 431.101 170.055C432.091 169.435 433.447 170.011 434.19 170.912C434.934 171.813 435.285 172.969 435.87 173.981C436.658 175.347 437.913 176.558 438.023 178.131C437.993 178.726 438.003 179.322 438.053 179.916C438.248 180.869 439.053 181.554 439.612 182.35C440.911 184.204 440.847 186.752 440.009 188.855C439.172 190.959 437.667 192.717 436.177 194.421C433.575 197.398 430.919 200.357 427.833 202.829C426.953 203.535 426.013 204.228 425.465 205.214C424.916 206.201 424.888 207.585 425.731 208.335C425.128 208.365 424.047 208.662 423.444 208.692C423.232 206.272 423.186 203.84 423.306 201.414C420.926 200.271 418.364 203.332 418.671 205.955C418.979 208.578 420.875 210.683 422.225 212.953C423.212 214.612 423.946 216.547 423.616 218.45C423.286 220.353 421.589 222.109 419.666 221.941C416.607 221.674 415.328 217.28 412.299 216.778C412.032 216.715 411.752 216.743 411.502 216.857C411.052 217.104 410.974 217.706 410.949 218.218C410.825 220.734 410.718 223.349 411.699 225.668C413.135 229.061 416.844 231.911 416.066 235.512C411.875 233.563 409.695 228.86 408.706 224.342C407.717 219.825 407.552 215.082 405.778 210.812C404.431 212.539 401.6 211.111 400.37 209.299C399.203 207.581 398.485 205.594 397.353 203.853C396.221 202.112 394.488 200.554 392.414 200.458C390.24 200.357 388.355 201.85 386.697 203.261C385.333 204.42 383.933 205.626 383.136 207.229C381.977 209.562 382.28 212.312 382.224 214.917C382.164 217.733 381.567 220.705 379.649 222.766C377.731 224.828 374.19 225.546 372.074 223.688C370.969 222.718 370.434 221.269 369.958 219.877C367.661 213.171 365.749 206.34 364.23 199.416C363.874 200.996 362.487 203.033 361.162 202.102C360.865 201.852 360.624 201.541 360.456 201.191C357.984 197 353.407 194.486 348.783 192.979C344.159 191.472 339.294 190.768 334.721 189.112C332.158 188.183 329.711 186.963 327.426 185.476C326.844 186.332 326.503 187.33 326.442 188.364C326.38 189.398 326.599 190.429 327.075 191.348C328.09 193.145 330.385 194.185 332.35 193.557C333.365 193.232 334.223 192.527 335.23 192.179C336.238 191.83 337.59 192.001 338.031 192.973C338.453 193.902 337.815 195.027 338.131 195.998C338.613 197.476 340.841 197.59 341.621 198.935C342.2 199.936 341.723 201.265 340.896 202.073C340.068 202.881 338.963 203.324 337.953 203.886C334.674 205.71 332.342 208.824 329.477 211.247C326.611 213.67 322.569 215.439 319.154 213.885C319.968 209.761 315.058 206.733 314.154 202.627C313.857 201.276 314.011 199.84 313.587 198.523C312.972 196.617 311.281 195.306 309.895 193.861C308.212 192.089 306.902 189.999 306.04 187.712C305.179 185.425 304.784 182.989 304.878 180.548C304.953 178.851 305.265 177.126 304.878 175.473C304.492 173.819 303.124 172.218 301.428 172.293C297.555 172.464 292.675 172.752 290.643 169.449C289.918 168.269 289.602 166.543 290.651 165.639C291.39 165.002 292.482 165.062 293.454 165.158L302.181 166.017C304.222 166.217 306.428 166.383 308.18 165.316C309.931 164.248 310.69 161.414 309.068 160.158C307.883 159.24 305.76 159.29 305.416 157.83C305.129 156.615 306.473 155.236 305.747 154.22C305.227 153.492 304.056 153.694 303.347 154.24C302.637 154.786 302.123 155.584 301.329 155.998C299.936 156.723 298.272 156.033 296.774 155.564C295.276 155.095 293.267 155.055 292.541 156.447C291.728 158.004 293.262 160.045 292.455 161.605C291.389 163.668 287.777 162.494 286.28 164.268C284.561 166.304 287.449 169.34 286.87 171.942C286.13 172.308 285.307 172.477 284.483 172.43C283.659 172.384 282.86 172.125 282.166 171.677C281.483 171.213 280.939 170.571 280.592 169.822C280.244 169.073 280.106 168.243 280.192 167.421C280.335 166.251 280.945 165.056 280.537 163.951C280.206 163.057 279.309 162.524 278.475 162.063L269.995 157.374C269.207 158.836 270.203 160.648 271.448 161.745C272.692 162.843 274.252 163.67 275.07 165.114C275.587 166.115 275.703 167.276 275.394 168.359C275.085 169.443 274.374 170.368 273.407 170.945C273.285 171.028 273.147 171.085 273.002 171.11C272.857 171.135 272.708 171.129 272.566 171.091C272.431 171.012 272.313 170.906 272.219 170.78C272.125 170.654 272.058 170.51 272.021 170.358C270.524 166.526 268.278 162.749 264.686 160.747C261.094 158.746 255.933 159.157 253.578 162.529C253.018 163.33 252.643 164.242 252.156 165.089C249.566 169.587 244.016 171.717 238.829 171.578C238.322 171.606 237.817 171.488 237.376 171.236C236.538 170.657 236.575 169.428 236.704 168.417L237.248 164.126C237.357 163.265 237.516 162.312 238.197 161.774C239.158 161.016 240.544 161.495 241.768 161.477C242.694 161.434 243.586 161.106 244.32 160.539C245.055 159.972 245.597 159.192 245.874 158.306C246.121 157.411 246.12 156.465 245.87 155.571C245.62 154.677 245.13 153.868 244.455 153.232C243.894 152.705 243.141 152.043 243.437 151.333C243.556 151.136 243.715 150.968 243.906 150.84C244.096 150.712 244.312 150.627 244.538 150.591C246.736 149.953 249.058 149.785 251.219 149.032C253.38 148.278 255.476 146.737 255.988 144.505C256.145 143.821 256.216 142.992 256.83 142.653C257.138 142.523 257.469 142.455 257.803 142.454C258.975 142.287 260.042 141.688 260.794 140.773C261.546 139.859 261.928 138.696 261.866 137.514C262.902 136.79 264.353 137.322 265.355 138.092C266.357 138.863 267.241 139.88 268.461 140.212C270.733 140.831 272.928 138.818 275.283 138.809C276.273 138.805 277.298 139.155 278.23 138.819C279.174 138.479 279.738 137.538 280.463 136.843C281.188 136.148 282.459 135.724 283.129 136.473L282.559 132.249C283.707 132.539 284.903 132.58 286.068 132.37C287.233 132.159 288.339 131.701 289.313 131.027L281.947 128.537C281.691 128.473 281.454 128.346 281.258 128.169C280.723 127.592 281.255 126.693 281.69 126.037C282.732 124.468 282.907 121.883 281.194 121.102C280.024 120.569 278.682 121.209 277.56 121.835L272.184 124.834C272.013 125.857 273.263 126.436 274.037 127.125C274.506 127.542 274.837 128.091 274.988 128.699C275.139 129.308 275.103 129.948 274.884 130.536C274.665 131.123 274.273 131.631 273.76 131.992C273.247 132.353 272.638 132.55 272.011 132.557C272.365 133.018 272.611 133.552 272.73 134.121C272.85 134.689 272.84 135.277 272.702 135.842L269.085 136.102C268.679 136.184 268.257 136.101 267.912 135.873C267.525 135.529 267.577 134.927 267.488 134.417C267.271 133.186 266.067 132.324 264.838 132.102C263.609 131.881 262.351 132.165 261.134 132.445C260.617 132.631 260.05 132.618 259.542 132.408C259.251 132.219 259.03 131.939 258.912 131.613C258.379 130.318 258.878 128.796 259.735 127.689C260.592 126.582 261.765 125.773 262.818 124.851C265.338 122.639 267.189 119.766 268.163 116.557C270.154 115.722 272.216 114.588 274.207 113.753C277.277 112.198 280.72 111.531 284.148 111.826L290.891 111.955C292.888 111.993 294.939 112.042 296.785 112.804C298.631 113.565 300.253 115.212 300.381 117.206C300.419 117.432 300.399 117.664 300.324 117.88C300.248 118.096 300.119 118.29 299.948 118.442C299.687 118.584 299.392 118.651 299.096 118.634C297.234 118.7 296.44 119.164 294.578 119.229Z" fill="#3F3D56"/>
<path d="M240.827 140.376C241.09 140.126 241.28 139.809 241.375 139.459C241.47 139.108 241.466 138.739 241.365 138.39C240.724 138.143 240.026 138.079 239.351 138.207C238.676 138.334 238.05 138.648 237.543 139.112C237.143 139.517 236.799 139.972 236.519 140.467C235.633 141.913 234.849 143.641 235.363 145.258C235.404 145.434 235.481 145.601 235.588 145.747C235.695 145.893 235.83 146.017 235.985 146.11C236.215 146.203 236.463 146.241 236.711 146.224C237.687 146.223 238.662 146.162 239.631 146.044C240.226 145.971 240.917 145.803 241.147 145.249C241.45 144.521 240.718 143.697 240.931 142.938C241.072 142.598 241.284 142.294 241.554 142.045C241.688 141.92 241.791 141.765 241.855 141.593C241.919 141.421 241.942 141.236 241.922 141.054C241.836 140.698 241.291 140.496 241.095 140.805" fill="#3F3D56"/>
<path d="M245.889 133.811C245.022 133.612 244.128 133.555 243.242 133.645C243.047 133.639 242.852 133.683 242.678 133.773C242.51 133.897 242.388 134.074 242.331 134.276C242.144 134.877 242.19 135.526 242.46 136.094C242.729 136.662 243.203 137.107 243.786 137.342C244.104 137.415 244.409 137.537 244.689 137.705C245.438 138.286 244.96 139.473 245.102 140.411C245.261 141.463 246.279 142.346 246.093 143.394C245.946 144.22 245.064 144.874 245.206 145.7C245.355 146.566 246.453 146.826 247.328 146.895C247.835 146.984 248.357 146.924 248.831 146.723C249.306 146.398 249.643 145.908 249.779 145.349C250.137 144.282 250.288 143.156 250.222 142.032C250.219 141.521 250.09 141.019 249.849 140.569C249.585 140.212 249.293 139.877 248.975 139.568C247.299 137.617 249.064 134.706 245.889 133.811Z" fill="#3F3D56"/>
<path opacity="0.8" d="M466.346 286.663C466.346 286.663 337.942 212.915 282.663 226.888C282.663 226.888 165.509 239.503 151.932 267.255C151.932 267.255 114.691 150.811 101.113 146.93" stroke="#80C678" stroke-width="2" stroke-miterlimit="10"/>
<path opacity="0.8" d="M151.932 267.254C173.461 209.808 367.424 146.152 367.424 146.152C339.882 153.139 282.663 226.887 282.663 226.887C282.663 226.887 161.63 138.778 101.113 146.929C101.113 146.929 367.618 155.662 466.346 286.661" stroke="#80C678" stroke-width="2" stroke-miterlimit="10"/>
<path d="M101.113 152.557C104.22 152.557 106.738 150.037 106.738 146.929C106.738 143.821 104.22 141.301 101.113 141.301C98.0067 141.301 95.4883 143.821 95.4883 146.929C95.4883 150.037 98.0067 152.557 101.113 152.557Z" fill="#0F9288"/>
<path d="M151.932 272.883C155.038 272.883 157.556 270.363 157.556 267.255C157.556 264.147 155.038 261.627 151.932 261.627C148.825 261.627 146.307 264.147 146.307 267.255C146.307 270.363 148.825 272.883 151.932 272.883Z" fill="#0F9288"/>
<path d="M367.425 151.782C370.531 151.782 373.05 149.262 373.05 146.154C373.05 143.045 370.531 140.525 367.425 140.525C364.318 140.525 361.8 143.045 361.8 146.154C361.8 149.262 364.318 151.782 367.425 151.782Z" fill="#0F9288"/>
<path d="M466.346 292.291C469.452 292.291 471.971 289.772 471.971 286.663C471.971 283.555 469.452 281.035 466.346 281.035C463.239 281.035 460.721 283.555 460.721 286.663C460.721 289.772 463.239 292.291 466.346 292.291Z" fill="#0F9288"/>
<path d="M282.663 232.516C285.77 232.516 288.288 229.996 288.288 226.888C288.288 223.78 285.77 221.26 282.663 221.26C279.556 221.26 277.038 223.78 277.038 226.888C277.038 229.996 279.556 232.516 282.663 232.516Z" fill="#0F9288"/>
</svg>
