<svg width="218" height="218" viewBox="0 0 218 218" fill="none" xmlns="http://www.w3.org/2000/svg">
<rect x="0.5" y="0.34375" width="217" height="217" rx="108.5" fill="#80C678"/>
<path d="M107.654 130.711C110.225 131.505 111.895 133.462 111.385 135.082C110.874 136.701 108.376 137.37 105.804 136.576C104.773 136.272 103.829 135.728 103.053 134.99L92.2031 131.49L93.9709 126.484L104.48 130.466C105.542 130.296 106.631 130.38 107.654 130.711Z" fill="#FFB6B6"/>
<path d="M84.4103 93.9837C81.8231 93.6803 79.4409 95.4113 78.959 97.9458C77.2399 106.986 73.5888 126.535 74.0696 127.011C74.6956 127.631 98.065 134.447 98.065 134.447L100.778 128.663L85.337 121.227L88.7233 99.6054C89.1532 96.8605 87.1967 94.3104 84.4103 93.9837Z" fill="#E6E6E6"/>
<path d="M112.564 140.115C110.055 141.085 107.516 140.59 106.893 139.009C106.27 137.429 107.798 135.361 110.308 134.391C111.305 133.99 112.384 133.832 113.456 133.928L124.138 129.951L125.916 134.953L115.197 138.343C114.475 139.133 113.572 139.741 112.564 140.115Z" fill="#A0616A"/>
<path d="M127.967 97.1842C130.528 96.7094 133.022 98.278 133.675 100.775C136.004 109.68 140.974 128.942 140.527 129.449C139.944 130.109 117.09 138.464 117.09 138.464L113.991 132.874L128.892 124.428L124.046 103.08C123.43 100.37 125.209 97.6955 127.967 97.1842Z" fill="#E6E6E6"/>
<path d="M82.5766 95.2818L83.8493 87.4079L75.259 83.9434L73.9863 95.9117L82.5766 95.2818Z" fill="#FFB6B6"/>
<path d="M132.748 96.5221L131.476 88.6481L140.066 85.1836L141.339 97.152L132.748 96.5221Z" fill="#A0616A"/>
<path d="M80.4056 89.9415C85.2436 89.9415 89.1656 86.0589 89.1656 81.2696C89.1656 76.4802 85.2436 72.5977 80.4056 72.5977C75.5675 72.5977 71.6455 76.4802 71.6455 81.2696C71.6455 86.0589 75.5675 89.9415 80.4056 89.9415Z" fill="#FFB6B6"/>
<path d="M79.7071 69.6102C79.9606 69.7567 80.3001 69.535 80.3814 69.2558C80.4627 68.9767 80.368 68.6802 80.2741 68.4049L79.8015 67.0191C79.4663 66.0362 79.1105 65.019 78.3845 64.2709C77.2887 63.1418 75.5473 62.8546 73.9797 63.0627C71.9665 63.3299 69.9802 64.409 69.0442 66.1935C68.1081 67.978 68.5066 70.468 70.198 71.5813C67.7874 74.3165 66.9471 77.3647 67.0798 80.9922C67.2125 84.6196 71.2057 87.9581 73.8098 90.5135C74.3914 90.1645 74.9201 88.529 74.6003 87.9349C74.2805 87.3408 74.7387 86.6525 74.3426 86.1052C73.9465 85.558 73.6152 86.4294 74.0156 85.8852C74.2683 85.5418 73.2821 84.7519 73.6577 84.5464C75.4742 83.5524 76.0784 81.3109 77.2193 79.5944C78.5955 77.5241 80.9508 76.122 83.4433 75.8894C84.8163 75.7612 86.2666 75.9933 87.392 76.7824C88.5174 77.5715 89.246 78.9816 88.985 80.3222C89.6609 79.6428 89.9974 78.6472 89.8705 77.702C89.7436 76.7568 89.1561 75.8828 88.3244 75.4017C88.8301 73.7463 88.3969 71.842 87.2232 70.561C86.0495 69.2799 81.2882 69.4981 79.5746 69.8352" fill="#2F2E41"/>
<path d="M79.4418 75.9395C77.1722 76.182 75.5335 78.1281 74.1498 79.9254C73.3522 80.9613 72.5168 82.1053 72.5368 83.4076C72.5571 84.7243 73.4464 85.8537 73.8714 87.1015C74.5661 89.1411 73.889 91.5678 72.2354 92.9653C73.8694 93.2723 75.6358 92.0594 75.9178 90.4368C76.2462 88.548 74.7998 86.7249 74.9711 84.8158C75.122 83.1338 76.461 81.8393 77.5993 80.5817C78.7375 79.3241 79.8066 77.6553 79.2829 76.0483" fill="#2F2E41"/>
<path d="M83.5695 93.9626L73.6518 91.2773L63.4277 95.4085L59.0459 129.697L84.0846 130.523V124.992C84.0846 124.992 88.4663 119.575 87.6317 111.726L86.7971 103.877L83.5695 93.9626Z" fill="#E6E6E6"/>
<path d="M88.1538 107.906L68.5402 106.873L63.2195 121.848C63.2195 121.848 56.6468 130.834 55.6035 137.443C54.5603 144.053 55.1862 153.348 55.1862 153.348H86.5864L84.085 124.993C84.085 124.993 89.9249 112.45 89.248 110.281C88.5711 108.112 88.1538 107.906 88.1538 107.906Z" fill="#3F3D56"/>
<path d="M73.1301 91.3809H68.3311V108.938H73.1301V91.3809Z" fill="#3F3D56"/>
<path d="M87.9456 95.3066H83.1465V109.766H87.9456V95.3066Z" fill="#3F3D56"/>
<path d="M131.339 95.6169L141.257 92.9316L151.481 97.0628L155.863 131.351L130.824 132.177V126.647C130.824 126.647 128.263 120.992 130.72 113.484C133.119 106.151 128.111 105.532 128.111 105.532L131.339 95.6169Z" fill="#E6E6E6"/>
<path d="M126.755 109.558L146.368 108.525L151.689 123.501C151.689 123.501 154.923 133.725 155.967 140.335C157.01 146.945 159.722 155 159.722 155H128.322L127.381 127.735L126.755 109.558Z" fill="#3F3D56"/>
<path d="M146.576 93.0352H141.777V110.592H146.576V93.0352Z" fill="#3F3D56"/>
<path d="M131.763 96.959H126.964V111.418H131.763V96.959Z" fill="#3F3D56"/>
<path d="M134.688 91.1463C140.748 91.1463 145.66 86.2836 145.66 80.2851C145.66 74.2866 140.748 69.4238 134.688 69.4238C128.629 69.4238 123.717 74.2866 123.717 80.2851C123.717 86.2836 128.629 91.1463 134.688 91.1463Z" fill="#A0616A"/>
<path d="M145.481 86.1753C145.481 86.1753 140.172 79.8695 138.049 80.395C135.926 80.9205 137.253 81.7087 137.253 81.7087L131.945 75.9284C131.945 75.9284 127.698 74.352 123.717 79.3441C123.717 79.3441 121.328 75.1402 123.717 72.7756C126.106 70.4109 126.902 70.6737 127.433 69.36C127.963 68.0463 131.679 66.9953 131.679 66.9953C131.679 66.9953 131.466 65.1044 132.634 66.0499C133.802 66.9953 136.72 66.9953 136.72 66.9953C136.72 66.9953 136.737 65.9444 137.924 66.9953C139.111 68.0463 140.438 67.5208 140.438 67.5208C140.438 67.5208 140.438 69.3393 141.367 69.3496C142.296 69.36 143.888 68.0463 144.153 69.0972C144.419 70.1482 146.277 70.6737 146.542 73.8265C146.808 76.9794 145.481 86.1753 145.481 86.1753Z" fill="#2F2E41"/>
<path d="M104.789 102.387L113.284 118.284L112.119 118.893L103.625 102.996C103.502 102.766 103.591 102.479 103.824 102.357L104.143 102.19C104.377 102.068 104.666 102.156 104.789 102.387Z" fill="#3F3D56"/>
<path d="M118.941 124.291C116.78 123.74 114.519 124.716 113.435 126.647C112.077 129.065 110.525 131.049 111.045 126.321C111.617 121.117 108.532 116.913 110.956 115.644C113.38 114.374 115.883 118.232 119.823 121.725C123.474 124.962 121.368 124.911 118.941 124.291Z" fill="#3F3D56"/>
<path d="M106.432 105.602C108.882 104.495 111.445 104.848 112.157 106.392C112.868 107.936 111.459 110.084 109.008 111.191C108.035 111.647 106.966 111.865 105.891 111.828L95.4508 116.39L93.3926 111.495L103.903 107.517C104.58 106.688 105.447 106.031 106.432 105.602Z" fill="#FFB6B6"/>
<path d="M64.3613 93.6098C62.2302 95.0933 61.6232 97.9562 62.9731 100.162C67.7877 108.03 78.2485 125 78.9275 125.037C79.8114 125.085 101.81 114.721 101.81 114.721L99.9307 108.622L83.419 113.286L71.3634 94.9467C69.8329 92.6186 66.6566 92.0122 64.3613 93.6098Z" fill="#E6E6E6"/>
<path d="M107.476 130.017L135.695 115.24L139.159 121.723C142.147 127.315 139.987 134.257 134.338 137.215L126.589 141.273C120.94 144.231 113.928 142.092 110.94 136.5L107.476 130.017Z" fill="#0F9288"/>
<path d="M131.384 139.95C128.934 141.058 126.371 140.704 125.659 139.161C124.947 137.617 126.356 135.469 128.807 134.361C129.78 133.905 130.849 133.687 131.924 133.724L142.364 129.16L144.423 134.055L133.913 138.035C133.236 138.864 132.369 139.521 131.384 139.95Z" fill="#A0616A"/>
<path d="M152.616 96.2571C155.203 95.9538 157.586 97.6848 158.068 100.219C159.787 109.259 163.438 128.808 162.957 129.284C162.331 129.904 138.962 136.72 138.962 136.72L136.249 130.937L151.69 123.501L148.303 101.879C147.873 99.134 149.83 96.5838 152.616 96.2571Z" fill="#E6E6E6"/>
</svg>
