<svg width="218" height="218" viewBox="0 0 218 218" fill="none" xmlns="http://www.w3.org/2000/svg">
<rect x="0.5" y="0.34375" width="217" height="217" rx="108.5" fill="#80C678"/>
<g clip-path="url(#clip0_1939_2007)">
<path d="M167.148 62.4589H168.499C169.533 54.8662 161.572 49.1004 152.441 48.3965C156.027 49.1829 159.309 50.9192 161.91 53.4063C164.511 55.8935 166.327 59.0309 167.148 62.4589Z" fill="#F2F2F2"/>
<path d="M146.131 85.111C145.367 85.1021 144.635 85.0775 143.935 85.0371C144.661 85.1442 145.399 85.169 146.131 85.111Z" fill="#F2F2F2"/>
<path d="M129.138 66.5871C129.314 56.586 137.651 48.4469 148.116 48.4469C149.553 48.301 151.001 48.2841 152.442 48.3963C149.584 47.7764 146.617 47.7794 143.761 48.405C140.905 49.0306 138.233 50.2627 135.943 52.0099C133.653 53.7572 131.804 55.9748 130.533 58.4983C129.262 61.0218 128.601 63.7864 128.601 66.5871C128.601 76.0704 128.956 84.161 143.935 85.0381C136.346 83.9364 128.999 74.4403 129.138 66.5871Z" fill="#F2F2F2"/>
<path d="M166.924 66.8789C163.493 72.4883 150.006 76.6021 148.115 84.7273C147.472 84.9291 146.806 85.0581 146.131 85.1117C146.752 85.1189 147.394 85.1166 148.06 85.1019C158.718 85.1019 167.461 77.0278 167.626 66.8789L166.924 66.8789Z" fill="#F2F2F2"/>
<path d="M149.647 80.2191C147.153 75.0468 146.06 69.4725 146.825 63.3655C146.707 62.6551 147.122 61.9431 147.752 61.774L159.044 58.7583C159.675 58.5908 160.282 59.03 160.401 59.7401L163.223 76.5937C163.341 77.3041 162.927 78.0161 162.297 78.1852L151.004 81.2009C150.374 81.3684 149.767 80.9292 149.647 80.2191Z" fill="#F2F2F2"/>
<path d="M154.995 60.622C155.158 59.4179 154.438 58.3364 153.386 58.2066C152.334 58.0767 151.35 58.9476 151.187 60.1517C151.025 61.3559 151.745 62.4373 152.797 62.5672C153.848 62.697 154.832 61.8262 154.995 60.622Z" fill="#F2F2F2"/>
<path d="M134.344 71.9769C131.85 66.8046 130.758 61.2303 131.523 55.1233C131.404 54.4129 131.819 53.7009 132.449 53.5318L143.742 50.5161C144.372 50.3486 144.979 50.7878 145.099 51.4979L147.92 68.3515C148.038 69.0619 147.624 69.7739 146.994 69.943L135.701 72.9587C135.071 73.1262 134.464 72.687 134.344 71.9769Z" fill="#F2F2F2"/>
<path d="M139.692 52.3798C139.855 51.1757 139.135 50.0943 138.083 49.9644C137.032 49.8345 136.047 50.7054 135.885 51.9095C135.722 53.1137 136.442 54.1951 137.494 54.325C138.545 54.4549 139.53 53.584 139.692 52.3798Z" fill="#F2F2F2"/>
<path d="M149.801 127.971H36.1035V128.324H149.801V127.971Z" fill="#3F3D56"/>
<path d="M82.3516 86.2404C82.2174 85.7917 84.0926 89.9042 83.6465 89.9537C81.6148 90.1765 77.1128 91.1809 75.6978 91.722C75.634 91.7149 75.5703 91.7079 75.5085 91.699C75.3567 91.6831 75.2086 91.6601 75.0624 91.6336C71.7674 91.0377 69.2746 88.4507 69.2072 85.3279C69.2034 85.2837 69.2034 85.2378 69.2034 85.1936C69.203 84.978 69.2149 84.7625 69.239 84.5481C69.27 84.2554 69.3233 83.9653 69.3983 83.6799L69.3908 83.6782C68.0788 82.5005 68.6318 80.3167 70.3036 79.3954C71.03 78.9962 71.8357 78.7462 72.6689 78.6616C72.8949 78.6381 73.122 78.6263 73.3493 78.6262H75.4841C75.9259 78.5352 76.3736 78.4732 76.8242 78.4405H76.8279C81.1257 78.1276 84.5143 80.6314 84.1976 83.6782C84.1957 83.6817 84.192 83.6852 84.1901 83.6888C84.0982 83.8196 84.0177 83.9434 83.9464 84.0619C83.8771 84.1733 83.819 84.2794 83.7684 84.3802C83.3767 85.1582 84.3836 86.1372 83.7159 86.32C82.8279 86.563 86.0514 94.5512 82.5366 94.5512C84.2463 95.0159 82.7215 87.4782 82.3516 86.2404Z" fill="#2F2E41"/>
<path d="M101.962 163.454L104.734 163.432L105.961 152.975L101.87 153.007L101.962 163.454Z" fill="#FFB6B6"/>
<path d="M110.84 167.667C110.842 167.981 110.715 168.284 110.484 168.508C110.254 168.732 109.94 168.859 109.611 168.862L104.101 168.906L103.136 167.037L102.782 168.916L100.702 168.934L101.227 162.233L101.951 162.187L104.901 161.993L105.853 161.932L105.87 163.828L110.297 166.698C110.463 166.805 110.599 166.95 110.693 167.119C110.788 167.288 110.838 167.476 110.84 167.667Z" fill="#2F2E41"/>
<path d="M105.475 158.21C104.372 158.082 101.59 157.856 101.59 157.856C101.59 157.856 100.277 155.235 100.489 154.42C100.698 153.602 101.22 153.435 100.736 153.007C99.5552 148.838 99.7439 142.065 99.7439 142.065C99.7439 142.065 93.3913 139.125 86.9591 135.721C80.6712 132.391 74.3075 128.619 73.7321 126.719C73.3524 125.359 73.0974 123.97 72.97 122.568C72.8738 121.649 72.8146 120.747 72.7776 119.939C72.6906 118.089 72.7258 116.723 72.7258 116.723L80.7415 116.595L86.0508 116.479H86.6058V117.363L88.0006 119.63C88.0006 119.63 90.4111 122.309 90.128 122.558C89.7858 122.86 89.8894 123.129 91.1048 123.348C91.4504 123.406 91.8025 123.42 92.1518 123.389C94.1146 123.246 94.936 124.319 94.9841 124.554C95.3134 126.215 98.6155 129.822 101.709 132.9H101.71C104.565 135.744 107.24 138.134 107.24 138.134L107.392 141.185L108.104 155.446C108.104 155.446 106.768 154.731 107.961 156.272C109.155 157.814 106.578 158.335 105.475 158.21Z" fill="#2F2E41"/>
<path d="M135.548 125.05L136.679 122.631L127.24 117.215L125.57 120.784L135.548 125.05Z" fill="#FFB6B6"/>
<path d="M143.249 119.084C143.548 119.212 143.783 119.449 143.9 119.742C144.017 120.036 144.008 120.362 143.874 120.649L141.624 125.457L139.444 125.518L141.085 126.608L140.237 128.423L134.08 125.179L134.337 124.531L135.38 121.886L135.718 121.033L137.528 121.807L142.1 119.152C142.271 119.053 142.465 118.995 142.665 118.983C142.865 118.971 143.066 119.005 143.249 119.084Z" fill="#2F2E41"/>
<path d="M130.693 119.194C130.686 119.208 130.679 119.22 130.672 119.232C130.157 120.137 129.31 122.23 129.257 122.359C129.256 122.361 129.255 122.364 129.255 122.367C129.255 122.367 126.462 122.229 125.749 121.74C125.034 121.246 126.116 122.026 124.467 120.995C123.614 120.459 120.694 119.622 118.078 118.938C115.645 118.302 113.476 117.802 113.476 117.802C113.476 117.802 111.56 119.469 108.783 121.774L108.781 121.775C106.202 123.91 102.878 126.596 99.657 129.001C92.7609 130.939 85.4822 132.619 83.6627 131.676C82.3836 130.979 81.1705 130.177 80.0371 129.279L81.9108 124.584L86.8659 119.624L92.0819 117.598L94.1223 116.805L96.9795 115.697L112.449 109.689L129.58 115.361C129.58 115.361 128.386 116.283 130.328 115.797C132.244 115.318 131.232 118.224 130.693 119.194Z" fill="#2F2E41"/>
<path d="M76.617 91.8984H82.1667L83.0405 93.742L86.7572 95.3249C87.2406 95.5311 87.6665 95.843 88.0005 96.2354C88.3346 96.6279 88.5676 97.0898 88.6806 97.5841C90.0189 103.432 88.326 104.647 88.2715 106.575C88.0865 113.118 87.1333 114.419 87.2399 116.034C87.2718 116.518 87.5805 118.429 88.5735 118.249C89.5664 118.069 89.0312 118.824 89.2662 119.118C89.4692 119.372 90.5371 119.035 89.8668 119.878C89.1965 120.721 92.0622 123.02 90.3064 123.02C86.9765 123.02 80.3168 124.611 77.7269 124.611C75.137 124.611 73.1356 125.345 71.9921 125.319C71.2952 125.302 71.5131 122.196 71.7917 119.506C71.8547 118.897 73.0784 118.913 71.9803 117.784C70.8822 116.654 72.1748 116.067 72.1771 115.77C72.1796 115.454 72.7997 114.659 72.0259 113.358C71.2522 112.057 71.9654 112.595 71.9318 112.187C71.6728 109.038 71.3017 105.024 71.3017 105.024L69.6657 100.623C69.2475 99.4976 69.3028 98.2614 69.8199 97.1746C70.337 96.0878 71.2755 95.2355 72.4373 94.7975L74.3564 94.0739L76.617 91.8984Z" fill="#0F9288"/>
<path d="M115.594 90.277C115.47 90.4969 115.299 90.6886 115.09 90.8388C114.882 90.989 114.642 91.0942 114.386 91.1469C114.131 91.1997 113.867 91.1989 113.612 91.1445C113.358 91.0901 113.118 90.9835 112.911 90.832L105.093 95.0627L103.337 93.2834L112.661 88.3234C112.954 88.0087 113.357 87.8075 113.795 87.758C114.232 87.7085 114.674 87.8142 115.035 88.055C115.397 88.2958 115.653 88.655 115.756 89.0645C115.859 89.4741 115.801 89.9055 115.594 90.277Z" fill="#FFB6B6"/>
<path d="M80.3935 100.261L80.2744 101.624L95.8386 101.433L111.331 93.1075L109.066 89.7754L95.4492 95.248L85.7711 95.4356C84.4091 95.462 83.1056 95.9698 82.1125 96.8611C81.1193 97.7524 80.5069 98.9638 80.3935 100.261Z" fill="#0F9288"/>
<path d="M78.5153 90.9282C81.3068 90.9282 83.5697 88.7652 83.5697 86.0969C83.5697 83.4287 81.3068 81.2656 78.5153 81.2656C75.7239 81.2656 73.4609 83.4287 73.4609 86.0969C73.4609 88.7652 75.7239 90.9282 78.5153 90.9282Z" fill="#FFB6B6"/>
<path d="M84.1975 83.9418C84.1131 83.9843 84.0307 84.0232 83.9463 84.0621C83.8582 84.1027 83.7701 84.1434 83.682 84.1805C81.9896 84.9144 80.612 84.9957 79.7761 83.9418C79.7537 83.3873 79.6234 82.8416 79.3918 82.3327C79.4327 82.9014 79.2759 83.4671 78.9457 83.9418H77.2626C75.5289 85.0417 74.6387 85.1566 75.8419 88.7674C76.1774 89.7736 77.5114 95.6283 76.9866 96.4965C76.8348 96.4806 75.2084 91.6603 75.0623 91.6338C71.7673 91.0379 69.2745 88.4509 69.207 85.3281C69.2108 85.169 69.222 85.0099 69.2389 84.8542C69.456 84.5424 69.6945 84.2446 69.953 83.963C69.9517 83.1283 70.1525 82.3046 70.5396 81.5564C71.0294 80.6085 71.793 79.8145 72.74 79.2683C73.3045 79.0067 73.893 78.7953 74.4981 78.637C74.5131 78.6335 74.5262 78.6299 74.5412 78.6264C74.7267 78.5787 74.9161 78.5345 75.1054 78.4973C75.4964 78.4184 75.8919 78.3611 76.2899 78.3258C76.318 78.324 76.3461 78.3223 76.3724 78.3223C76.5313 78.3226 76.6872 78.3635 76.8241 78.4407C76.8259 78.4407 76.8259 78.4425 76.8278 78.4425C76.9256 78.4971 77.011 78.5699 77.079 78.6565C77.1987 78.8022 77.2634 78.9822 77.2626 79.1675H79.1369C79.2063 79.1675 79.2756 79.1693 79.345 79.1728C80.5959 79.2137 81.7858 79.6993 82.6819 80.5345C83.578 81.3698 84.1158 82.4947 84.19 83.689C84.1956 83.7738 84.1975 83.8569 84.1975 83.9418Z" fill="#2F2E41"/>
<path d="M71.6209 84.8267C73.4599 84.8267 74.9507 83.4017 74.9507 81.6438C74.9507 79.886 73.4599 78.4609 71.6209 78.4609C69.7818 78.4609 68.291 79.886 68.291 81.6438C68.291 83.4017 69.7818 84.8267 71.6209 84.8267Z" fill="#2F2E41"/>
<path d="M75.692 79.1683C75.7555 80.9251 74.2011 82.3512 72.3621 82.3512C71.479 82.3512 70.632 82.0158 70.0075 81.4189C69.383 80.822 69.0322 80.0124 69.0322 79.1683C69.0322 77.4104 71.2594 77.3922 72.3621 75.9854C73.922 73.9952 75.6062 76.7991 75.692 79.1683Z" fill="#2F2E41"/>
<path d="M80.0457 128.958C79.5286 121.624 81.0423 114.726 85.246 108.404C85.3517 107.989 85.6258 107.63 86.0079 107.407C86.3901 107.184 86.8492 107.115 87.2845 107.215L103.524 110.969C103.959 111.07 104.334 111.332 104.568 111.697C104.801 112.062 104.873 112.501 104.768 112.917L99.568 133.471C99.4623 133.887 99.1882 134.246 98.8061 134.469C98.4239 134.692 97.9648 134.761 97.5295 134.66L81.2902 130.906C80.8551 130.805 80.4797 130.543 80.2464 130.178C80.0131 129.813 79.9409 129.374 80.0457 128.958Z" fill="#F2F2F2"/>
<path opacity="0.2" d="M83.2281 130.515C82.793 130.414 82.4176 130.152 82.1843 129.787C81.951 129.422 81.8788 128.983 81.9835 128.567C81.4665 121.233 82.9801 114.335 87.1839 108.013C87.2547 107.741 87.3997 107.491 87.6041 107.289L87.2845 107.215C86.8492 107.115 86.3901 107.184 86.0079 107.407C85.6258 107.63 85.3517 107.988 85.246 108.404C81.0422 114.726 79.5286 121.624 80.0457 128.958C79.9409 129.374 80.0131 129.813 80.2464 130.178C80.4797 130.543 80.8551 130.805 81.2902 130.906L97.5294 134.66C97.8181 134.726 98.1199 134.718 98.4041 134.636C98.6883 134.555 98.9448 134.403 99.1478 134.196L83.2281 130.515Z" fill="black"/>
<path d="M97.931 121.865L87.0414 119.378C86.8683 119.338 86.7187 119.234 86.6256 119.089C86.5325 118.944 86.5034 118.77 86.5448 118.604C86.5861 118.439 86.6946 118.296 86.8462 118.206C86.9979 118.117 87.1804 118.089 87.3536 118.129L98.2431 120.616C98.4159 120.656 98.565 120.76 98.6578 120.904C98.7506 121.049 98.7795 121.224 98.7382 121.389C98.6969 121.554 98.5887 121.697 98.4374 121.786C98.2861 121.875 98.104 121.904 97.931 121.865Z" fill="white"/>
<path d="M90.2934 116.498L87.8977 115.951C87.7245 115.911 87.5747 115.808 87.4811 115.663C87.3876 115.518 87.3579 115.344 87.3988 115.178C87.4396 115.013 87.5475 114.869 87.6988 114.78C87.8501 114.69 88.0325 114.662 88.2058 114.701L88.2099 114.701L90.6056 115.249C90.7784 115.289 90.9275 115.392 91.0202 115.537C91.113 115.682 91.1419 115.857 91.1006 116.022C91.0593 116.187 90.9512 116.33 90.7999 116.419C90.6486 116.508 90.4665 116.537 90.2934 116.498Z" fill="white"/>
<path d="M96.5585 127.355L85.669 124.868C85.4961 124.828 85.347 124.724 85.2541 124.579C85.1613 124.434 85.1323 124.26 85.1737 124.094C85.215 123.929 85.3232 123.786 85.4745 123.697C85.6259 123.608 85.8081 123.58 85.9812 123.619L96.8707 126.106C96.9567 126.125 97.0379 126.16 97.1096 126.209C97.1813 126.258 97.2422 126.321 97.2887 126.392C97.3352 126.464 97.3664 126.544 97.3807 126.627C97.3949 126.711 97.3918 126.796 97.3715 126.878C97.3513 126.96 97.3143 127.038 97.2627 127.106C97.211 127.175 97.1458 127.233 97.0707 127.277C96.9955 127.321 96.912 127.351 96.8248 127.365C96.7376 127.378 96.6485 127.375 96.5626 127.356L96.5585 127.355Z" fill="white"/>
<path d="M97.2448 124.609L86.3553 122.122C86.182 122.083 86.0321 121.979 85.9387 121.834C85.8452 121.689 85.8159 121.515 85.8571 121.349C85.8983 121.183 86.0066 121.04 86.1583 120.951C86.31 120.862 86.4926 120.833 86.666 120.873L86.6675 120.873L97.557 123.36C97.7298 123.4 97.879 123.504 97.9719 123.649C98.0647 123.794 98.0936 123.968 98.0523 124.133C98.011 124.299 97.9028 124.442 97.7515 124.531C97.6001 124.62 97.4179 124.648 97.2448 124.609Z" fill="white"/>
<path d="M94.9426 111.712C96.4895 111.712 97.7435 110.513 97.7435 109.035C97.7435 107.556 96.4895 106.357 94.9426 106.357C93.3956 106.357 92.1416 107.556 92.1416 109.035C92.1416 110.513 93.3956 111.712 94.9426 111.712Z" fill="#3F3D56"/>
<path d="M80.8196 130.492C80.5911 130.371 80.3928 130.204 80.2383 130.003C80.0839 129.802 79.977 129.571 79.925 129.327C79.8731 129.082 79.8774 128.83 79.9375 128.587C79.9977 128.344 80.1123 128.117 80.2735 127.92L75.9482 120.394L77.8321 118.738L82.9008 127.714C83.2264 127.998 83.4316 128.386 83.4778 128.805C83.5239 129.223 83.4077 129.644 83.1511 129.986C82.8946 130.329 82.5155 130.569 82.0858 130.663C81.6561 130.756 81.2055 130.695 80.8196 130.492Z" fill="#FFB6B6"/>
<path d="M75.7684 97.1742L71.1164 96.7452C70.8994 96.7252 70.6804 96.7488 70.4735 96.8144C70.2665 96.8801 70.0762 96.9864 69.9148 97.1265C69.7534 97.2666 69.6245 97.4375 69.5362 97.628C69.4479 97.8186 69.4023 98.0247 69.4023 98.2331V111.465L77.912 126.38L81.4269 124.258L75.8771 111.173L75.7684 97.1742Z" fill="#0F9288"/>
<path d="M112.493 96.1017C113.572 88.8242 116.543 82.3734 122.022 77.018C122.216 76.6319 122.561 76.3349 122.983 76.1922C123.406 76.0494 123.87 76.0725 124.274 76.2564L139.352 83.1354C139.756 83.3202 140.067 83.6506 140.216 84.0541C140.365 84.4575 140.341 84.9012 140.149 85.2876L130.619 104.371C130.426 104.757 130.081 105.054 129.658 105.197C129.236 105.34 128.772 105.317 128.368 105.133L113.29 98.2539C112.886 98.0691 112.575 97.7388 112.426 97.3353C112.277 96.9318 112.301 96.4882 112.493 96.1017Z" fill="#F2F2F2"/>
<path opacity="0.2" d="M115.27 98.2539C114.867 98.0691 114.556 97.7387 114.407 97.3353C114.257 96.9318 114.281 96.4881 114.474 96.1017C115.552 88.8241 118.524 82.3734 124.003 77.0179C124.131 76.7651 124.327 76.5491 124.571 76.3918L124.274 76.2564C123.87 76.0725 123.406 76.0494 122.983 76.1922C122.561 76.3349 122.216 76.6319 122.022 77.0179C116.543 82.3734 113.572 88.8241 112.493 96.1017C112.301 96.4881 112.277 96.9318 112.426 97.3353C112.575 97.7387 112.886 98.0691 113.29 98.2539L128.368 105.133C128.636 105.254 128.933 105.306 129.229 105.282C129.525 105.258 129.808 105.16 130.052 104.998L115.27 98.2539Z" fill="black"/>
<path d="M131.526 92.6901L121.409 88.1071C121.248 88.0342 121.123 87.9031 121.064 87.7427C121.004 87.5824 121.013 87.4058 121.089 87.2519C121.165 87.098 121.303 86.9794 121.47 86.9221C121.638 86.8649 121.823 86.8737 121.984 86.9466L132.101 91.5296C132.262 91.6029 132.385 91.7339 132.445 91.8941C132.504 92.0542 132.495 92.2303 132.418 92.3838C132.342 92.5374 132.206 92.6558 132.038 92.7132C131.871 92.7706 131.687 92.7623 131.526 92.6901Z" fill="white"/>
<path d="M125.213 85.9329L122.987 84.9247C122.907 84.8889 122.836 84.8384 122.776 84.776C122.717 84.7137 122.671 84.6407 122.641 84.5614C122.611 84.482 122.597 84.3978 122.601 84.3135C122.605 84.2292 122.627 84.1465 122.664 84.0701C122.702 83.9938 122.755 83.9252 122.82 83.8684C122.885 83.8116 122.962 83.7677 123.045 83.7391C123.128 83.7105 123.216 83.6979 123.304 83.7019C123.392 83.7059 123.479 83.7265 123.559 83.7624L123.563 83.7642L125.788 84.7724C125.949 84.8457 126.072 84.9767 126.132 85.1369C126.192 85.2971 126.182 85.4733 126.106 85.6269C126.03 85.7805 125.893 85.899 125.726 85.9563C125.558 86.0137 125.374 86.0053 125.213 85.9329Z" fill="white"/>
<path d="M128.997 97.7928L118.879 93.2098C118.719 93.1366 118.595 93.0055 118.536 92.8454C118.476 92.6852 118.486 92.509 118.562 92.3554C118.638 92.2018 118.775 92.0833 118.942 92.026C119.109 91.9686 119.294 91.977 119.455 92.0494L129.572 96.6323C129.652 96.6682 129.724 96.7187 129.783 96.7811C129.842 96.8434 129.888 96.9163 129.918 96.9957C129.948 97.075 129.962 97.1592 129.957 97.2434C129.953 97.3276 129.932 97.4103 129.894 97.4866C129.857 97.5629 129.804 97.6314 129.739 97.6882C129.674 97.7449 129.597 97.7889 129.514 97.8175C129.431 97.8461 129.343 97.8588 129.255 97.8548C129.167 97.8509 129.08 97.8304 129.001 97.7945L128.997 97.7928Z" fill="white"/>
<path d="M130.262 95.2412L120.145 90.6582C119.983 90.5855 119.859 90.4546 119.799 90.2942C119.739 90.1339 119.748 89.9574 119.824 89.8034C119.9 89.6494 120.037 89.5306 120.205 89.4732C120.373 89.4157 120.557 89.4243 120.718 89.4971L120.72 89.4977L130.837 94.0807C130.998 94.154 131.121 94.285 131.181 94.4452C131.24 94.6053 131.231 94.7814 131.155 94.935C131.079 95.0886 130.942 95.207 130.775 95.2644C130.607 95.3218 130.423 95.3135 130.262 95.2412Z" fill="white"/>
<path d="M131.374 82.2258C132.921 82.2258 134.175 81.0271 134.175 79.5484C134.175 78.0698 132.921 76.8711 131.374 76.8711C129.827 76.8711 128.573 78.0698 128.573 79.5484C128.573 81.0271 129.827 82.2258 131.374 82.2258Z" fill="#3F3D56"/>
<path d="M155.545 105.529C152.507 99.2299 151.177 92.4412 152.108 85.0039C151.964 84.1387 152.469 83.2716 153.236 83.0657L166.989 79.393C167.757 79.189 168.496 79.7239 168.642 80.5886L172.078 101.114C172.222 101.979 171.717 102.846 170.95 103.052L157.197 106.725C156.43 106.929 155.69 106.394 155.545 105.529Z" fill="#F2F2F2"/>
<path opacity="0.2" d="M158.536 105.541C157.768 105.745 157.029 105.21 156.883 104.345C153.846 98.0461 152.515 91.2574 153.447 83.8201C153.403 83.5439 153.424 83.2619 153.507 82.9941L153.236 83.0664C152.469 83.2723 151.964 84.1393 152.108 85.0045C151.177 92.4419 152.507 99.2305 155.545 105.53C155.69 106.394 156.43 106.929 157.197 106.725L170.95 103.053C171.212 102.969 171.447 102.823 171.634 102.628C171.821 102.434 171.953 102.197 172.018 101.94L158.536 105.541Z" fill="black"/>
</g>
<defs>
<clipPath id="clip0_1939_2007">
<rect width="93" height="121" fill="white" transform="translate(62 48)"/>
</clipPath>
</defs>
</svg>
