<svg width="36" height="24" viewBox="0 0 36 24" fill="none" xmlns="http://www.w3.org/2000/svg">
<path d="M22.8115 3.62069L22.8114 3.62064C22.5008 3.31621 22.3246 2.90139 22.3246 2.46694C22.3246 2.03248 22.5008 1.61767 22.8114 1.31324C23.1217 1.00911 23.5407 0.8398 23.9758 0.8398C24.4109 0.8398 24.8299 1.00911 25.1402 1.31324L25.1402 1.31324L34.79 10.7708C34.7901 10.7709 34.7902 10.771 34.7903 10.771C34.9442 10.9216 35.0668 11.1009 35.1506 11.2989C35.2345 11.497 35.2778 11.7098 35.2778 11.9249C35.2778 12.14 35.2345 12.3527 35.1506 12.5509L34.7423 12.378L35.1506 12.5509C35.0668 12.7488 34.9443 12.9281 34.7904 13.0786L22.8115 3.62069ZM22.8115 3.62069L29.6279 10.2992H2.26291C1.82824 10.2992 1.40961 10.4684 1.09959 10.7722C0.789256 11.0764 0.613238 11.4908 0.613238 11.9249C0.613238 12.3589 0.789255 12.7734 1.09959 13.0775C1.40962 13.3814 1.82824 13.5505 2.26291 13.5505H29.6279L22.8115 20.2291L22.8114 20.2291C22.5008 20.5335 22.3246 20.9483 22.3246 21.3828C22.3246 21.8173 22.5008 22.2321 22.8114 22.5365C23.1217 22.8406 23.5407 23.0099 23.9758 23.0099C24.4109 23.0099 24.8299 22.8406 25.1402 22.5365L34.79 13.079L22.8115 3.62069Z" fill="white" stroke="white" stroke-width="0.886806"/>
</svg>
