<svg width="33" height="26" viewBox="0 0 33 26" fill="none" xmlns="http://www.w3.org/2000/svg">
<path d="M32.5 3.07792C31.3232 3.59937 30.0591 3.9517 28.7301 4.11095C30.1013 3.29043 31.1272 1.99904 31.6164 0.477724C30.328 1.24297 28.918 1.78162 27.4476 2.07025C26.4588 1.01448 25.1491 0.314703 23.7218 0.0795546C22.2945 -0.155593 20.8296 0.0870486 19.5543 0.769809C18.2791 1.45257 17.2649 2.53725 16.6693 3.85544C16.0737 5.17364 15.93 6.6516 16.2604 8.05986C13.6499 7.92879 11.0961 7.25028 8.76485 6.06836C6.43354 4.88644 4.37681 3.22753 2.72813 1.1993C2.16441 2.17173 1.84026 3.29918 1.84026 4.49992C1.83963 5.58086 2.10582 6.64525 2.61522 7.59864C3.12461 8.55203 3.86145 9.36494 4.76037 9.96526C3.71786 9.93209 2.69836 9.6504 1.78671 9.14363V9.22819C1.7866 10.7442 2.31102 12.2137 3.27098 13.3871C4.23094 14.5605 5.56731 15.3657 7.05333 15.666C6.08624 15.9277 5.07231 15.9662 4.08813 15.7787C4.5074 17.0832 5.32409 18.2239 6.42389 19.0412C7.52368 19.8584 8.85151 20.3113 10.2215 20.3364C7.89587 22.1621 5.02376 23.1524 2.06716 23.148C1.54343 23.1482 1.02015 23.1176 0.5 23.0564C3.50111 24.986 6.99462 26.0101 10.5625 26.0061C22.6404 26.0061 29.2431 16.0028 29.2431 7.32701C29.2431 7.04515 29.236 6.76047 29.2233 6.4786C30.5076 5.54983 31.6162 4.39971 32.4972 3.08215L32.5 3.07792Z" fill="#05352E"/>
</svg>
