<svg width="48" height="48" viewBox="0 0 48 48" fill="none" xmlns="http://www.w3.org/2000/svg">
<path d="M28.3671 20.4666C27.522 20.0057 26.6629 19.8893 25.885 20.1299C25.8843 20.1303 25.8836 20.1307 25.8825 20.1307L19.2337 22.1812C15.0413 23.3891 12.3249 28.0995 13.0929 32.3973L10.193 32.7897C7.87215 33.2595 5.57501 30.405 3.44094 31.7511C-0.167367 33.9494 -1.18916 39.6334 1.58684 42.9186C2.67544 44.2886 4.27572 45.1373 6.09409 45.3084L11.5854 45.8154C13.06 45.9518 14.4878 46.3145 15.8335 46.895C17.628 47.5805 19.2701 48.4906 20.8556 47.6816C22.4134 46.6894 23.5666 45.0777 24.0562 43.1764L23.2886 42.9436L24.0619 43.1489C24.3697 41.9907 24.4497 40.8206 24.3265 39.6627L30.8286 37.6494C30.8293 37.6491 30.8297 37.6491 30.8304 37.6491C36.0371 35.8992 33.0469 22.7614 28.3672 20.4663L28.3671 20.4666ZM22.5155 42.7397C22.5148 42.7439 22.513 42.7486 22.5123 42.7532L22.4945 42.8368C22.0874 44.3253 21.2002 45.5674 19.9959 46.3344C19.6242 46.5725 18.4324 46.2683 16.4647 45.4268C15.1287 44.8498 13.7144 44.477 12.2591 44.2932C11.8981 42.9639 12.1216 40.6768 12.2552 39.8244C12.4023 38.7826 10.8534 38.5412 10.676 39.5749C10.6257 39.8933 10.2761 42.2427 10.5835 44.1179L6.24264 43.7173C0.8581 43.236 0.12048 35.6649 4.2996 33.1017C4.96298 32.8079 5.64532 33.2146 6.43723 33.5334C6.03056 34.6014 5.46891 36.5565 6.13732 37.9486C6.59862 38.8919 8.0268 38.1982 7.57902 37.2567C7.23019 36.5301 7.53332 35.1829 7.90821 34.1711C8.71048 34.4225 9.56205 34.4928 10.4104 34.3757C10.7992 34.3371 16.2012 33.5548 16.4165 33.6023C16.7082 34.9127 17.2895 38.201 16.3266 40.2365C16.0688 40.7496 16.4797 41.3905 17.0488 41.378C17.3488 41.378 17.6362 41.2087 17.7729 40.9199C18.823 38.6987 18.4288 35.5279 18.0953 33.8122C21.5398 34.647 23.6016 39.1968 22.5155 42.7393L22.5155 42.7397ZM24.0401 38.0785C23.2207 34.9204 20.4762 32.2534 17.1518 32.0234H17.1489C16.3563 31.9516 15.4697 32.0663 14.6782 32.1841C14.1483 29.2039 15.5897 25.903 18.1912 24.3952C17.8438 25.692 17.3414 29.372 19.0909 29.6905C19.7072 29.7073 20.1185 28.955 19.7546 28.4463C19.1002 27.4669 19.5779 25.0943 20.0921 23.5912L23.671 22.4873C22.1685 27.0909 24.0202 33.8148 27.7502 36.9298L24.0401 38.0785ZM30.3587 36.1219C28.0673 36.4104 26.1988 32.8193 25.3241 29.8515C24.0705 25.3817 24.8613 20.4836 27.6016 21.8712C31.302 23.7236 33.7695 34.5735 30.3587 36.1218V36.1219Z" fill="#05352E"/>
<path d="M46.9237 0.906847C45.5515 -0.843699 44.3326 0.0960042 43.6504 2.3936C43.1348 3.79426 42.4936 5.53768 41.1643 6.54137C39.8296 7.55 37.9738 7.69067 36.482 7.80382C35.1049 7.90808 34.1102 7.98341 33.7427 8.79856C33.4068 9.5437 33.9755 10.2949 34.1623 10.5406C35.1988 11.9127 36.8497 12.6728 38.8135 12.68C44.2838 12.8935 50.5112 5.95402 46.9236 0.907304L46.9237 0.906847ZM46.3206 4.79969C46.0857 6.49274 44.9796 8.23232 43.3636 9.45227V9.45263C41.0652 11.256 37.2192 11.937 35.3973 9.52083C41.8694 9.13022 43.46 7.9231 45.6015 1.81155C46.2363 2.61311 46.4794 3.64317 46.3205 4.7996L46.3206 4.79969Z" fill="#05352E"/>
<path d="M43.4486 16.2175C42.7402 15.6958 41.8609 16.1054 40.643 16.6749C39.3426 17.2829 37.7274 18.0402 36.1468 17.8178C34.5612 17.5942 33.2047 16.4149 32.1151 15.4677C31.0997 14.5844 30.3642 13.946 29.5423 14.2562C28.7854 14.5408 28.6597 15.4634 28.619 15.7651C28.1566 19.1188 31.2157 22.3308 35.4381 22.9256C39.0031 23.5154 43.4044 21.6853 43.9303 17.9249C43.9728 17.6214 44.0999 16.6977 43.4487 16.2175L43.4486 16.2175ZM42.3458 17.7078C41.0275 23.8254 29.5548 21.7163 30.2038 15.9826C30.2045 15.9751 30.2052 15.9676 30.207 15.9608C34.759 20.0957 36.843 20.3946 42.3508 17.6703C42.3494 17.6824 42.3479 17.6949 42.3454 17.7078L42.3458 17.7078Z" fill="#05352E"/>
</svg>
