<svg width="53" height="48" viewBox="0 0 53 48" fill="none" xmlns="http://www.w3.org/2000/svg">
<path d="M28.5422 26.8034C25.1061 23.9792 23.3636 20.7127 23.3636 17.0962C23.3636 11.8147 19.7197 8.72177 16.1082 7.99966C12.074 7.19252 6.88564 9.05397 4.39421 15.0311C0.0543054 25.4464 0.00439463 30.709 0.00599176 30.8757C-0.00102694 30.986 -0.52197 41.9398 10.017 46.4607C14.9604 48.5854 20.5501 48.5612 25.2776 46.0747C33.0512 42.2655 35.3395 32.7246 28.5421 26.8033L28.5422 26.8034ZM28.2177 41.7296C23.7531 46.3389 16.7932 47.5036 10.7052 44.8556C1.31424 40.8269 1.7279 31.3778 1.75136 30.9296C1.75175 30.8789 1.82427 25.7397 6.00622 15.7029C8.31886 10.5157 11.9592 9.12684 15.7649 9.71209C19.3198 10.4233 21.6161 13.3216 21.6161 17.0957C21.6161 21.2017 23.6273 25.0253 27.4329 28.1529V28.1533C31.5369 31.3721 31.94 38.0687 28.2175 41.7289L28.2177 41.7296Z" fill="#05352E"/>
<path d="M17.8045 29.1885C14.6628 29.1885 12.1073 31.7444 12.1073 34.886C12.3939 42.4342 23.2173 42.4315 23.5028 34.886C23.5024 31.7444 20.9465 29.1885 17.8049 29.1885H17.8045ZM17.8045 38.8367C12.5833 38.671 12.5849 31.1006 17.8045 30.9353C23.0256 31.1015 23.0248 38.6718 17.8045 38.8367Z" fill="#05352E"/>
<path d="M51.0637 10.2239L49.9691 9.30871C49.9683 9.30832 49.9683 9.30754 49.9676 9.30676C49.9672 9.30637 49.9664 9.30637 49.966 9.30598L47.1289 6.93364C47.079 6.90478 44.3885 4.11959 44.3924 4.24826C44.2162 4.19601 40.7412 2.31543 40.6542 2.47445C40.6542 2.47484 38.4944 2.47484 38.4944 2.47484C36.7324 0.868321 32.9044 -1.238 29.3285 0.91903C29.0001 1.11711 28.8391 1.50587 28.9319 1.87786C28.965 2.01278 29.6927 4.76757 33.3482 6.68762L31.1732 7.56183L23.3481 9.70568C22.8829 9.83318 22.6092 10.3136 22.7367 10.7788C22.8638 11.2439 23.3435 11.5177 23.8098 11.3902L31.6836 9.23313C31.7159 9.22416 31.7475 9.21363 31.7787 9.20116L35.961 7.51977C36.3006 7.3833 36.519 7.04953 36.5081 6.68378C36.4975 6.31802 36.2593 5.99751 35.9123 5.88131C32.6883 4.80205 31.3774 3.02234 30.8885 2.08153C34.2028 0.705901 37.3846 3.8233 37.5258 3.96445C37.6895 4.12899 37.9122 4.2218 38.1446 4.2218H40.447L43.4814 5.74606L45.9485 8.22012L48.2783 10.1705C47.3963 11.504 47.1058 14.1041 48.7407 15.3998C47.9297 15.6654 47.2672 15.1982 46.5095 15.0816H42.2438C41.4967 15.0816 40.8019 15.417 40.3378 16.0003L37.4614 19.6129C37.4333 19.6484 37.4076 19.6858 37.3853 19.7252L31.9868 29.2164C31.648 29.7759 32.0964 30.539 32.7452 30.5218C33.049 30.5218 33.3446 30.3631 33.5052 30.0804L38.8698 20.6482L41.7045 17.0882C41.8359 16.9232 42.032 16.8285 42.2434 16.8285H46.3664C50.4883 18.7091 54.6044 13.4041 51.0635 10.2239L51.0637 10.2239ZM49.9419 11.5633C50.7677 12.2261 50.8937 13.5355 50.2043 14.3384C49.0797 13.6342 49.1253 12.3318 49.6483 11.3176L49.9419 11.5633Z" fill="#05352E"/>
<path d="M12.0338 13.8368C11.7328 13.4593 11.1822 13.3993 10.8063 13.7003C10.6144 13.8535 6.11121 17.5403 6.11121 24.8632C6.11121 25.3456 6.5023 25.7367 6.98464 25.7367C7.46697 25.7367 7.85807 25.3456 7.85807 24.8632C7.85807 18.4201 11.7253 15.2036 11.8988 15.0628C12.2743 14.7611 12.3347 14.2128 12.0337 13.8365L12.0338 13.8368Z" fill="#05352E"/>
<path d="M41.0657 7.866C42.2136 7.84651 42.2136 6.13861 41.0657 6.11914H40.5939C39.4459 6.13864 39.4459 7.84654 40.5939 7.866H41.0657Z" fill="#05352E"/>
</svg>
