<svg width="50" height="48" viewBox="0 0 50 48" fill="none" xmlns="http://www.w3.org/2000/svg">
<path d="M36.3915 48.0004H12.8444C10.4116 48.0004 8.23034 47.0969 6.53848 45.3874C4.40591 43.2318 3.20599 39.9134 3.24455 36.2839C3.28037 33.0138 3.67006 30.4007 4.0146 28.0937C4.29023 26.2464 4.52848 24.6515 4.52848 23.1004C4.52848 22.5675 4.95982 22.1361 5.49317 22.1361C6.02614 22.1361 6.45748 22.5675 6.45748 23.1004C6.45748 24.7947 6.20949 26.4558 5.92141 28.3786C5.58544 30.6237 5.20509 33.1683 5.172 36.3044C5.13736 39.4231 6.13515 42.2386 7.90802 44.0305C9.22934 45.3666 10.9364 46.072 12.8417 46.072H36.3888C38.2376 46.072 39.8427 45.3926 41.1597 44.0538C43.1533 42.0263 44.2609 38.7013 44.1978 34.9297C44.1386 31.3843 43.7252 28.5424 43.3616 26.0341C43.0567 23.942 42.7951 22.1344 42.7951 20.3549C42.7951 19.822 43.2265 19.3906 43.7594 19.3906C44.2928 19.3906 44.7241 19.822 44.7241 20.3549C44.7241 21.9955 44.9776 23.738 45.2711 25.7573C45.6429 28.322 46.0661 31.2285 46.128 34.8966C46.1996 39.1805 44.8908 43.0113 42.5375 45.4049C40.8677 47.1019 38.7417 48 36.3915 48L36.3915 48.0004Z" fill="#05352E"/>
<path d="M22.323 21.4401C21.6534 21.4401 20.8931 21.298 20.0129 20.9523C19.4437 20.7292 18.7768 20.3999 18.0702 20.0514C16.1576 19.1078 13.5399 17.8145 12.219 18.4234C4.32588 22.0598 1.98073 18.1026 0.853557 16.2016C0.707173 15.9563 0.510192 15.6215 0.416759 15.5293C0.167216 15.3572 0.0114935 15.0761 0.000590513 14.7717C-0.0103105 14.4591 0.130231 14.1601 0.379386 13.9701L6.43464 9.34599C5.95657 9.06647 5.53924 8.68067 5.19196 8.19599C4.54844 7.29904 4.19454 6.09532 4.19454 4.80869C4.19454 2.06759 5.72913 0 7.76403 0H41.4697C43.1807 0 44.5416 1.37195 44.9372 3.49474C45.2915 5.3942 44.8009 7.751 43.0347 9.05677L48.5593 15.0306C49.2924 15.824 49.9262 16.5088 49.4384 17.2703C48.9739 17.9952 48.1942 17.7418 47.3677 17.4731C46.1013 17.0613 43.7441 16.2939 42.0163 17.3945C41.2338 17.8932 40.6857 18.3588 40.2022 18.7691C38.6438 20.0927 37.6834 20.7223 34.548 19.4181C29.4309 17.2898 27.6993 18.5982 26.0238 19.8642C25.0291 20.6164 23.9395 21.4401 22.3231 21.4401L22.323 21.4401ZM13.0276 16.3433C14.9149 16.3433 17.0919 17.4177 18.9243 18.3229C19.5924 18.6534 20.225 18.9648 20.7179 19.1587C22.7213 19.9455 23.5259 19.3366 24.8608 18.3283C25.8185 17.605 26.9027 16.7855 28.5685 16.4784C30.4033 16.1409 32.6009 16.5212 35.2891 17.6397C36.3967 18.0994 37.1298 18.2731 37.5981 18.1835C37.9878 18.1091 38.3132 17.8448 38.9537 17.3006C39.4582 16.8723 40.0861 16.3394 40.9804 15.7691C42.6187 14.7261 44.4869 14.7923 45.99 15.0956L40.9832 9.68074C40.9077 9.59937 40.8469 9.50438 40.803 9.40238L40.6912 9.13921C40.5892 8.89823 40.5892 8.62689 40.6912 8.38707C40.7932 8.14766 40.9887 7.95884 41.2312 7.86385C42.7978 7.26043 43.3268 5.38705 43.0402 3.84857C42.8748 2.96291 42.3652 1.92849 41.4683 1.92849H7.76464C6.95878 1.92849 6.12371 3.00573 6.12371 4.80852C6.12371 5.68328 6.35534 6.50825 6.76022 7.07154C7.19156 7.67379 7.78255 7.96694 8.56778 7.96694C8.98122 7.96694 9.34911 8.23011 9.48148 8.62291C9.61345 9.01378 9.48148 9.44629 9.1533 9.69856L2.32955 14.9094C2.39028 15.0087 2.45062 15.1118 2.51408 15.2193C3.54339 16.9564 5.10021 19.5818 11.4128 16.6737C11.913 16.4425 12.4584 16.3448 13.0292 16.3448L13.0276 16.3433Z" fill="#05352E"/>
<path d="M16.8167 15.1865C16.7684 15.1865 16.7189 15.1822 16.6691 15.1756C16.1432 15.0942 15.7819 14.6025 15.8632 14.0762L16.5519 9.59688C16.6333 9.07055 17.1254 8.70848 17.6517 8.79102C18.178 8.87239 18.5389 9.36408 18.4576 9.89L17.7685 14.3697C17.6957 14.8462 17.285 15.1876 16.8166 15.1876L16.8167 15.1865Z" fill="#05352E"/>
<path d="M36.2217 15.7889C35.825 15.7889 35.4532 15.5425 35.3127 15.147L33.3135 9.52972C33.1345 9.02869 33.3976 8.4763 33.899 8.2984C34.4005 8.11932 34.9529 8.38249 35.1308 8.88391L37.1299 14.5012C37.309 15.0026 37.0458 15.555 36.5444 15.7325C36.4365 15.771 36.3279 15.7889 36.2205 15.7889L36.2217 15.7889Z" fill="#05352E"/>
<path d="M11.4557 14.2348C11.3428 14.2348 11.2271 14.2141 11.1154 14.1729C10.6167 13.9852 10.366 13.4289 10.5533 12.9302L11.9034 9.35174C12.091 8.85304 12.6477 8.60233 13.1465 8.78958C13.6452 8.97684 13.8959 9.53354 13.7082 10.0323L12.3581 13.6107C12.2121 13.9965 11.8458 14.2348 11.4557 14.2348H11.4557Z" fill="#05352E"/>
<path d="M8.56758 9.89444C8.03462 9.89444 7.60327 9.46309 7.60327 8.93013C7.60327 8.39717 8.03462 7.96582 8.56758 7.96582H41.6912C42.2245 7.96582 42.6559 8.39717 42.6559 8.93013C42.6559 9.46309 42.2245 9.89444 41.6912 9.89444H8.56758Z" fill="#05352E"/>
<path d="M22.2474 16.7323C22.2283 16.7323 22.2076 16.7323 22.1882 16.7311C21.6564 16.698 21.2515 16.2406 21.2846 15.7104L21.6455 9.81477C21.6786 9.28299 22.1345 8.87693 22.6662 8.9112C23.198 8.94429 23.6033 9.40172 23.5702 9.93193L23.2093 15.8275C23.1774 16.3383 22.753 16.7323 22.2473 16.7323L22.2474 16.7323Z" fill="#05352E"/>
<path d="M32.8641 33.0657C32.7002 33.0657 32.5347 33.024 32.3833 32.936C31.922 32.6701 31.7635 32.0807 32.0306 31.619L34.2831 27.7181L32.3089 24.2992H28.3602L26.1077 28.2005C25.8418 28.6618 25.2524 28.8203 24.7907 28.5528C24.3289 28.2873 24.1721 27.6975 24.4379 27.2362L26.9689 22.853C27.1409 22.5541 27.4594 22.3711 27.8039 22.3711H32.8668C33.2114 22.3711 33.5298 22.5556 33.7019 22.853L36.2328 27.2362C36.4049 27.5352 36.4049 27.9015 36.2328 28.2005L33.7019 32.5833C33.5228 32.8932 33.1989 33.0657 32.8657 33.0657H32.8641Z" fill="#05352E"/>
<path d="M32.5692 41.8049H27.5063C27.1618 41.8049 26.8433 41.6204 26.6713 41.3229L24.1403 36.9398C23.8744 36.4785 24.0313 35.8887 24.4931 35.6232C24.9544 35.3573 25.5442 35.5142 25.8101 35.9755L28.0626 39.8768H32.0113L33.9855 36.4579L32.0113 33.039H27.5063C26.973 33.039 26.5416 32.6065 26.5416 32.0747C26.5416 31.5433 26.973 31.1104 27.5063 31.1104H32.5693C32.9138 31.1104 33.2318 31.2953 33.4043 31.5927L35.9352 35.9755C36.1073 36.2745 36.1073 36.6408 35.9352 36.9398L33.4043 41.3242C33.2318 41.6231 32.9138 41.8065 32.5693 41.8065L32.5692 41.8049Z" fill="#05352E"/>
<path d="M25.0938 37.5364H20.0309C19.6864 37.5364 19.3679 37.3518 19.1959 37.0544L16.6649 32.6713C16.4929 32.3723 16.4929 32.006 16.6649 31.707L19.1959 27.3241C19.3679 27.0252 19.6864 26.8418 20.0309 26.8418H25.0938C25.4384 26.8418 25.7568 27.0263 25.9289 27.3241L28.4598 31.707C28.6319 32.006 28.6319 32.3723 28.4598 32.6713L25.9289 37.0556C25.7568 37.3546 25.4384 37.5376 25.0938 37.5376V37.5364ZM20.5888 35.6081H24.5375L26.5117 32.1892L24.5375 28.7703H20.5888L18.6146 32.1892L20.5888 35.6081Z" fill="#05352E"/>
<path d="M39.0114 43.3584C38.7346 43.3584 38.4589 43.2401 38.2674 43.0088C37.9271 42.5981 37.9852 41.9908 38.3955 41.6505C39.9333 40.3778 40.7445 38.2083 40.7434 35.3749C40.7434 32.4369 40.3853 30.0908 40.0695 28.0206L40.0625 27.9781C39.9827 27.4518 40.3452 26.9601 40.8715 26.8803C41.399 26.8001 41.8895 27.1625 41.9694 27.6888L41.9764 27.7313C42.3014 29.8678 42.6709 32.2908 42.6709 35.3748C42.6721 38.8019 41.6183 41.4865 39.6246 43.1368C39.4444 43.2855 39.2264 43.3583 39.0103 43.3583L39.0114 43.3584Z" fill="#05352E"/>
</svg>
