<svg width="42" height="48" viewBox="0 0 42 48" fill="none" xmlns="http://www.w3.org/2000/svg">
<path d="M34.7989 18.801C34.6663 18.8871 21.591 27.6292 24.6492 47.3218C24.7103 47.7174 25.0512 47.9997 25.4389 47.9997C25.9252 48.0029 26.3097 47.5573 26.2311 47.0767C23.3377 28.443 35.1662 20.4742 35.671 20.1439C36.5365 19.5665 35.6931 18.2379 34.7984 18.8014L34.7989 18.801Z" fill="#05352E"/>
<path d="M34.8564 15.9938C29.1718 19.0445 25.8213 22.3528 24.0682 24.4768C24.2175 22.0372 24.5316 19.4962 24.8071 17.5733C24.9411 16.5316 23.3864 16.3051 23.2227 17.346C22.8382 20.0289 22.3797 23.8986 22.3797 27.0969C22.3569 27.8984 23.5133 28.2018 23.8828 27.4807C23.9124 27.4271 26.9252 22.0676 35.6133 17.405C36.0028 17.196 36.1493 16.7103 35.9402 16.3212C35.7301 15.9306 35.2445 15.7848 34.8564 15.9938L34.8564 15.9938Z" fill="#05352E"/>
<path d="M17.1166 13.1392C16.6821 13.2189 16.3944 13.6359 16.4741 14.0712C16.4859 14.1348 17.4697 19.5425 17.772 24.4807C16.4206 22.8448 14.1189 20.5032 10.5308 18.1146C10.162 17.8698 9.66604 17.9688 9.42088 18.3372C9.17574 18.7053 9.2758 19.202 9.64351 19.4472C15.7255 23.4955 17.936 27.441 17.9571 27.4792C18.3227 28.2 19.4862 27.9038 19.4609 27.0969C19.4609 21.5427 18.1062 14.0966 18.0484 13.7819C17.9687 13.3477 17.5556 13.059 17.1167 13.1394L17.1166 13.1392Z" fill="#05352E"/>
<path d="M38.7379 12.6222C38.8851 9.955 36.7028 7.71117 34.0416 7.70979C33.5978 3.99697 28.9045 1.82898 25.6693 3.81978C24.1742 -1.04085 17.1145 -1.3378 15.1427 3.36095C12.2221 2.32969 8.76835 4.05491 7.96863 6.97122C5.38074 7.25816 3.45966 9.80107 3.93846 12.4104C1.71046 12.7624 0.00160732 14.6963 0.00160732 17.0219C-0.0955905 20.6271 4.23687 22.9795 7.19709 20.9334C10.3128 23.5463 17.9945 31.708 15.6097 47.0767C15.5422 47.5137 15.8413 47.9225 16.2779 47.9904C16.7046 48.0579 17.1263 47.7624 17.1917 47.3222C19.8386 30.2629 10.609 21.5558 7.71706 19.2935C7.40402 19.0773 6.99165 19.0884 6.69257 19.3253C4.79326 21.076 1.54891 19.6065 1.60187 17.0222C1.60187 15.3302 2.97838 13.954 4.6704 13.954C5.02882 14.0001 5.4169 13.9794 5.64348 13.6567C6.09158 13.0071 5.35546 12.3313 5.47088 11.6059C5.47088 9.92816 6.82415 8.56062 8.5019 8.53812C8.91714 8.59994 9.33487 8.29476 9.39776 7.87846C9.76226 5.29231 12.9745 3.859 15.2575 5.14695C15.7067 5.40138 16.3167 5.11872 16.4164 4.61415C16.807 2.85206 18.4507 1.57353 20.3247 1.57353C22.4802 1.57353 24.2287 3.19941 24.3062 5.27528C24.3184 5.59224 24.5156 5.87204 24.8104 5.98926C25.1035 6.10575 25.4408 6.03821 25.6674 5.81666C26.4214 5.07624 27.4312 4.66886 28.5111 4.66886C30.7109 4.66886 32.5005 6.39235 32.5005 8.58824C32.4876 9.08388 32.9904 9.48767 33.4714 9.37047C33.6511 9.33152 33.8541 9.31151 34.0746 9.31151C35.7666 9.31151 37.1431 10.688 37.1431 12.38C37.1045 13.0365 36.8315 13.8023 37.7127 14.0042C41.3494 14.696 40.8834 20.0376 37.1695 20.0912C36.7275 20.0912 36.3691 20.4496 36.3691 20.8916C36.3691 21.3337 36.7275 21.6921 37.1695 21.6921C42.3972 21.6231 43.6146 14.408 38.7376 12.6226L38.7379 12.6222Z" fill="#05352E"/>
<path d="M19.3732 8.48381C18.4216 8.48381 17.5139 8.83544 16.8168 9.44399C14.1042 6.05208 8.49672 8.00637 8.51347 12.3792C8.5081 13.839 9.36967 15.8579 10.8627 16.2761C11.6027 16.3029 11.9612 15.2666 11.344 14.8353C8.99517 13.12 10.2738 9.28179 13.183 9.3107C14.3922 9.3107 15.4936 10.024 15.9885 11.1281C16.2272 11.7128 17.1141 11.7603 17.41 11.2046C19.2178 8.4334 23.1751 11.3211 21.0942 13.8972C20.4034 14.6841 21.6005 15.7383 22.2949 14.9564C24.5136 12.5382 22.6629 8.41913 19.3732 8.4838L19.3732 8.48381Z" fill="#05352E"/>
<path d="M31.2227 16.5735C32.5477 17.4747 33.3553 14.9065 33.3268 13.926C33.3225 9.97156 28.0344 8.56185 26.0569 11.9781C25.547 12.8986 26.8999 13.6812 27.443 12.7793C27.8522 12.0714 28.6141 11.6318 29.4312 11.6318C30.6962 11.6318 31.7258 12.661 31.7258 13.926C31.7258 14.4863 31.5221 15.0256 31.1529 15.4436C30.8599 15.7752 30.8917 16.2809 31.2226 16.5736L31.2227 16.5735Z" fill="#05352E"/>
</svg>
