<svg width="50" height="48" viewBox="0 0 50 48" fill="none" xmlns="http://www.w3.org/2000/svg">
<path d="M16.5485 8.96051C19.5832 8.96051 22.4598 9.83886 24.6468 11.4337C25.0169 11.7026 25.534 11.6206 25.8022 11.2527C26.0722 10.8834 25.9906 10.3659 25.6212 10.0966C23.1528 8.29671 19.9304 7.30566 16.5486 7.30566C9.81586 7.30566 4.13328 11.2478 3.33144 16.4751C3.1438 17.5426 4.07017 18.5916 5.15015 18.565H12.8462C13.0564 18.565 13.2518 18.6492 13.3966 18.8018C13.5414 18.9551 13.6149 19.1549 13.6034 19.3651L13.0047 30.1776C12.8462 32.2102 14.6602 34.0589 16.6957 33.9289C18.6597 33.8886 20.2323 31.9635 20.0842 30.0288L19.4936 19.3647C19.4822 19.1545 19.5557 18.9547 19.7005 18.8014C19.8453 18.6489 20.0407 18.5646 20.2508 18.5646H23.9951C25.0769 18.5495 25.0869 16.9277 23.9951 16.9099H20.2508C18.9049 16.8829 17.7406 18.1133 17.8422 19.4559L18.4328 30.121C18.5126 31.1592 17.6926 32.2504 16.6292 32.2759C15.5219 32.3401 14.5763 31.3617 14.6561 30.2694L15.2548 19.4559C15.3568 18.1137 14.1918 16.8826 12.8462 16.9099H5.15011C5.01676 16.8959 4.96543 16.826 4.96654 16.726C5.64616 12.2992 10.6252 8.96047 16.5479 8.96047L16.5485 8.96051Z" fill="#05352E"/>
<path d="M35.0259 6.62829C21.9052 6.19761 23.316 28.2582 32.3262 31.9733C32.6616 34.6771 32.8193 37.9422 32.1389 40.3242C31.9823 40.842 32.396 41.3868 32.9356 41.3787C34.8844 41.4249 34.167 32.8752 33.9145 31.3566C33.9137 31.3392 33.9101 31.3234 33.9082 31.3064C33.7741 30.2973 33.6205 29.3817 33.4801 28.6322C33.3952 28.1831 32.9623 27.8939 32.5146 27.9703C31.5291 28.1938 31.917 29.2236 32.0333 29.9582C25.5252 25.9015 24.2295 7.90469 35.0262 8.28386C45.8246 7.90342 44.5264 25.9064 38.0188 29.9582C38.1351 29.225 38.5229 28.193 37.539 27.971C37.0858 27.886 36.6577 28.1826 36.5734 28.631C36.4316 29.3886 36.2698 30.3474 36.1376 31.3592C35.7494 34.2986 35.5341 38.0196 36.3223 40.7783C36.4264 41.1417 36.7578 41.3785 37.1171 41.3785C37.6568 41.3862 38.0705 40.8422 37.9139 40.324C37.2328 37.9405 37.3905 34.6761 37.7255 31.9738C46.7413 28.2517 48.1428 6.19663 35.0258 6.62876L35.0259 6.62829Z" fill="#05352E"/>
<path d="M35.8534 18.8295L39.2881 15.3944C40.0497 14.6265 38.8866 13.4623 38.1179 14.2247L35.8534 16.4896V14.0743C35.8353 12.9873 34.2167 12.9866 34.1986 14.0743V20.902L31.9337 18.6371C31.1658 17.8755 30.0015 19.0386 30.7639 19.8072L34.1986 23.2419V28.0473C34.1986 28.5046 34.5687 28.8747 35.026 28.8747C35.4833 28.8747 35.8534 28.5046 35.8534 28.0473V18.8295Z" fill="#05352E"/>
<path d="M49.1178 6.1121C48.2849 3.77995 46.4839 1.96673 43.9094 0.867883C39.2827 -1.10713 34.9505 0.32455 32.0255 4.79681C31.4412 5.70729 32.8111 6.60597 33.4103 5.70249C35.8868 1.91397 39.3836 0.73608 43.2593 2.39007C45.3979 3.30276 46.8846 4.78207 47.5587 6.66877C48.5797 9.12356 47.6636 13.1817 45.9927 16.167C45.6898 16.6967 46.1164 17.3988 46.7214 17.3837C47.6711 17.322 47.8561 15.9184 48.276 15.2255C49.756 11.7594 50.0387 8.69256 49.1174 6.11183L49.1178 6.1121Z" fill="#05352E"/>
<path d="M20.0831 33.1464C19.6502 33.2926 19.4183 33.7621 19.5645 34.195C19.8844 35.1421 20.0469 36.1356 20.0469 37.1466C20.1574 42.2397 15.5714 46.625 10.4891 46.3356C5.90935 46.1613 2.04217 42.4526 1.68503 37.8939C1.2477 33.3988 4.79065 27.417 9.63744 31.1387C10.2657 31.7219 11.6261 31.8622 11.6785 30.7685C11.6785 30.3113 11.3084 29.9412 10.8512 29.9412C4.62518 25.2182 -0.478623 31.7418 0.0357659 38.0236C0.459797 43.5523 5.29766 48.023 10.8559 47.9975C16.6833 48.1186 21.8283 42.9826 21.7016 37.1471C21.6454 36.1867 21.5849 32.6531 20.083 33.1468L20.0831 33.1464Z" fill="#05352E"/>
<path d="M17.27 39.6983C17.7014 39.8099 18.1638 39.5435 18.2728 39.0962C18.552 38.0228 18.7522 34.87 17.0971 35.2656C16.6671 35.42 16.4433 35.8935 16.5977 36.3241C16.857 37.0466 16.8806 37.8448 16.6679 38.6954C16.5563 39.1383 16.8263 39.5874 17.2699 39.6982L17.27 39.6983Z" fill="#05352E"/>
</svg>
