<svg width="36" height="48" viewBox="0 0 36 48" fill="none" xmlns="http://www.w3.org/2000/svg">
<path d="M31.7848 11.1285L33.6782 2.90244C34.2508 0.0101 30.1297 -1.17756 28.9828 1.48788L26.7599 6.85948L24.8811 4.13256C23.3203 1.86419 19.6006 3.62327 20.5656 6.27439L22.6106 11.8072C20.0685 13.7593 18.917 17.004 19.7232 20.0372L24.9461 45.9103C25.6566 48.7087 29.8474 48.7001 30.5389 45.8631L35.7407 20.0815C36.7089 16.5876 34.987 12.8426 31.7848 11.1278V11.1285ZM22.1534 5.03961C22.4579 4.56499 23.2603 4.575 23.5633 5.04211L26.277 8.98094C26.4432 9.22218 26.7237 9.35156 27.0203 9.32297C27.312 9.29223 27.5632 9.10425 27.6754 8.83263L30.4631 2.09615C30.8219 1.20445 32.3316 1.59258 32.1124 2.56683L30.2929 10.4698C28.2304 9.8394 25.942 10.0052 23.9982 10.9434L22.0665 5.71762C21.95 5.40454 22.0712 5.1583 22.1534 5.03964L22.1534 5.03961ZM28.9807 45.4984C28.6326 46.7281 26.8688 46.7311 26.504 45.5456L23.4479 30.4054H26.1359C27.188 30.3876 27.188 28.8222 26.1359 28.8043H23.1249L21.2818 19.6729C20.0988 15.5354 23.8017 11.4004 28.0483 11.6963C32.0767 11.7642 35.3494 15.8228 34.1818 19.7197L33.4792 23.2003H27.7366C27.2945 23.2003 26.936 23.5588 26.936 24.0009C26.936 24.443 27.2945 24.8014 27.7366 24.8014H33.156L31.2178 34.4081H29.3376C28.2854 34.426 28.2854 35.9914 29.3376 36.0092H30.8948L28.9807 45.4984Z" fill="#05352E"/>
<path d="M21.7005 35.573L19.6991 34.2424L21.1812 32.7603C21.9181 32.0173 20.7923 30.8908 20.049 31.6285L18.3389 33.3383L11.9148 29.0678C11.7189 28.9545 11.5399 28.8223 11.3644 28.6868L15.0398 23.7248C15.3028 23.3696 15.2282 22.8678 14.8729 22.6048C14.5169 22.3421 14.0166 22.4175 13.7529 22.7717L10.2533 27.4968C9.49883 26.3625 9.20112 24.9368 9.50312 23.5197L9.58174 23.1877C10.0156 21.5265 11.3758 20.0348 12.9852 19.4305C14.2796 18.9333 15.7492 18.9419 17.0062 19.4801C17.4118 19.652 17.8825 19.4619 18.0555 19.0548C18.5966 17.4137 14.815 17.3705 13.815 17.5631L13.2868 14.9381C13.2128 14.5506 13.0202 14.1925 12.7314 13.9037C11.5727 12.6508 9.31507 13.5742 9.32331 15.2632L7.11926 11.9541C5.73974 9.9263 2.55755 11.6035 3.46991 13.889L4.83726 17.3168L2.47704 16.7274C1.12359 16.3432 -0.256294 17.6488 0.0410559 19.0194C0.161496 19.6634 0.592863 20.207 1.19331 20.4718L7.90335 23.4525C7.52165 25.6865 8.24609 27.8917 9.7632 29.4009C9.7825 29.4181 9.79215 29.4445 9.81788 29.4538C10.1949 29.8202 10.6038 30.1575 11.0709 30.427L20.8148 36.9065C21.6965 37.474 22.57 36.1721 21.7008 35.5731L21.7005 35.573ZM1.61521 18.7256C1.54445 18.5151 1.81606 18.1884 2.08911 18.281L5.96683 19.2492C6.5751 19.4232 7.15805 18.7552 6.90426 18.176L4.95611 13.2922C4.79743 12.9973 5.13088 12.6064 5.39749 12.6417C5.55831 12.6321 5.70842 12.7289 5.79527 12.8537L9.45706 18.3507C9.86199 19.0051 10.9488 18.677 10.9238 17.9068L10.9241 15.3254C10.9445 14.8268 11.606 14.7775 11.7161 15.246L12.269 17.9933C10.5164 18.722 9.08323 20.1476 8.3384 21.8935L1.84208 19.0075C1.67661 18.935 1.62872 18.7999 1.61514 18.7256L1.61521 18.7256Z" fill="#05352E"/>
</svg>
