<svg width="48" height="48" viewBox="0 0 48 48" fill="none" xmlns="http://www.w3.org/2000/svg">
<path d="M44.2016 27.422C42.2451 25.6977 39.5158 25.6284 37.1479 27.1577C37.2408 26.5312 37.3736 25.9363 37.5493 25.3838C37.5493 25.3834 37.5497 25.383 37.5497 25.383C37.9897 23.937 38.9019 22.5766 40.1504 21.8458C41.0408 21.2883 40.234 19.9475 39.3236 20.4754C38.8079 20.7865 38.3454 21.169 37.9265 21.604C37.3572 18.3775 33.5706 16.9289 32.6235 16.8146C32.1964 16.7321 31.7799 17.0018 31.686 17.4271C31.6571 17.5575 30.9985 20.648 32.4556 23.014C33.3407 24.4394 34.7439 25.2258 35.8146 25.6477C35.6946 26.1266 35.6043 26.6284 35.535 27.1459C29.3638 23.2705 24.5734 30.5542 24.7617 36.4801C24.7624 42.1973 27.9461 46.5822 33.0705 47.9235C33.868 48.1324 34.7087 47.9056 35.3152 47.3146C35.9323 46.7131 36.7934 46.7131 37.4106 47.3146C38.0159 47.9049 38.856 48.1324 39.6553 47.9235C48.5076 45.9592 50.7485 33.1611 44.2018 27.422L44.2016 27.422ZM33.8169 22.1726C33.1058 21.0179 33.0701 19.5494 33.138 18.6351C35.2362 19.3122 36.6841 21.2322 36.5505 23.5777C36.463 23.7556 36.3819 23.9363 36.3052 24.1223C35.5169 23.7956 34.4498 23.1927 33.8169 22.1727L33.8169 22.1726ZM39.2499 46.3761C38.9881 46.4446 38.7335 46.3703 38.5274 46.1693C37.2931 44.9653 35.432 44.9653 34.1977 46.1693C33.9913 46.37 33.7359 46.4443 33.4752 46.3761C25.8246 44.7425 24.0076 33.5365 29.5815 28.6221C31.3202 27.127 33.5355 27.4685 35.3134 28.966C35.572 29.1839 35.8623 29.3089 36.1584 29.3496C36.1716 29.3542 36.1863 29.3532 36.2002 29.3535C36.6188 29.3993 37.0466 29.2739 37.4135 28.965C39.3082 27.3599 41.5582 27.2259 43.1432 28.6221C48.718 33.5361 46.9001 44.7431 39.2499 46.3761L39.2499 46.3761Z" fill="#05352E"/>
<path d="M41.3991 30.3944C40.4309 30.0062 39.8219 31.4305 40.772 31.8663C40.8898 31.9181 43.6634 33.1892 43.6634 37.5417C43.6795 38.5907 45.2463 38.595 45.2635 37.5417C45.2631 32.0884 41.5566 30.4613 41.3991 30.3944H41.3991Z" fill="#05352E"/>
<path d="M24.8486 12.2062C24.3386 11.979 23.7246 12.3815 23.7368 12.9433C23.7807 14.2277 22.0796 14.913 21.2171 13.9884C20.7999 13.5905 20.6624 12.8755 20.9117 12.3387C20.9956 12.1509 21.1185 11.9808 21.2746 11.8412C21.6042 11.5466 21.6331 11.0412 21.3385 10.7116C20.4231 9.8387 19.5095 11.3152 19.3088 12.1192C18.2827 16.6396 25.0764 17.5829 25.3376 12.9435C25.3383 12.612 25.1365 12.3277 24.8486 12.2063L24.8486 12.2062Z" fill="#05352E"/>
<path d="M28.6043 7.57986L27.4839 24.7487C27.455 25.1894 27.7893 25.5701 28.23 25.599C28.6657 25.6283 29.0529 25.2951 29.0807 24.8526L30.2011 7.68378C30.2536 6.638 28.6839 6.52701 28.6043 7.57986H28.6043Z" fill="#05352E"/>
<path d="M22.3624 34.9132H8.59209L8.44637 32.6342C12.3132 32.4028 15.4829 29.4373 15.914 25.5444C15.9626 25.1055 15.6462 24.7101 15.2072 24.6612C14.7558 24.6183 14.3722 24.9297 14.3236 25.3687C13.1997 33.3282 1.80224 32.6967 1.5627 24.6565C1.52555 18.8389 8.89003 16.0342 12.7364 20.3932C13.4343 21.1722 14.624 20.1082 13.9286 19.3268C12.2924 17.4939 9.85388 16.49 7.40236 16.6817L6.86449 8.43082H21.5016C21.9437 8.43082 22.3016 8.07259 22.3016 7.6308C22.3016 7.18901 21.9437 6.83079 21.5016 6.83079H6.75935L6.41648 1.59996H29.0144L28.9512 3.04182C28.918 4.09217 30.4937 4.16074 30.5498 3.11217L30.6498 0.835373C30.6777 0.393581 30.2941 -0.00928876 29.8505 0.00035715C29.8505 2.28631e-08 5.56291 0 5.56291 0C5.34183 0 5.13004 0.0917871 4.97932 0.253217C4.8279 0.41429 4.75039 0.631437 4.76432 0.85216L5.21182 7.68302V7.68409L5.81612 16.9506C-2.47936 19.3714 -1.6905 31.2631 6.83969 32.576L7.04398 35.7643C7.07148 36.1854 7.42042 36.5133 7.84257 36.5133L22.3636 36.5136C23.4107 36.4972 23.4189 34.9314 22.3636 34.9136L22.3624 34.9132Z" fill="#05352E"/>
<path d="M24.553 5.05659L21.5169 12.6468C21.134 13.6154 22.6041 14.2146 23.003 13.2414C23.003 13.2411 25.8373 6.15374 25.8373 6.15374H35.1623C36.2117 6.1366 36.2156 4.57154 35.1623 4.55371H25.2961C24.9689 4.55371 24.675 4.753 24.5532 5.05658L24.553 5.05659Z" fill="#05352E"/>
<path d="M16.9963 18.4905L10.3619 25.1252L7.72765 22.491C6.98763 21.7545 5.85798 22.8792 6.59656 23.6224L9.79663 26.8225C10.1091 27.135 10.6152 27.135 10.9281 26.8225L18.1282 19.6223C18.8615 18.8823 17.7421 17.7519 16.9964 18.4905H16.9963Z" fill="#05352E"/>
</svg>
