<svg width="56" height="48" viewBox="0 0 56 48" fill="none" xmlns="http://www.w3.org/2000/svg">
<path d="M15.129 12.288C-4.94315 13.1259 -3.47551 39.9843 10.3679 47.8955C10.8188 48.1419 11.43 47.933 11.6336 47.4611L13.9107 42.4868C14.0521 42.1777 14.0121 41.815 13.8064 41.5442C12.1809 39.404 10.6279 37.1124 11.0389 34.6968C11.341 32.9213 12.7246 31.1655 15.1291 29.4704C17.5331 31.1655 18.9175 32.9213 19.2197 34.6968C19.6302 37.1121 18.0772 39.404 16.4518 41.5442C16.2461 41.815 16.2061 42.1777 16.3475 42.4868L18.6246 47.4614C18.8282 47.9325 19.4394 48.1435 19.8903 47.8958C25.7515 44.843 30.3423 36.2538 30.3423 28.3427C30.5067 19.6522 23.8312 12.1786 15.1289 12.2873L15.129 12.288ZM9.21879 34.3881C8.68176 37.5452 10.5537 40.2925 12.0024 42.2205L10.3781 45.7687C-0.676126 38.2388 -2.57214 15.9485 14.2057 14.1643V27.8521C11.251 29.8951 9.61814 32.0362 9.21868 34.3872L9.21879 34.3881ZM19.8795 45.7694L18.2552 42.2208C22.2933 37.2788 22.4256 32.094 16.0518 27.8536V14.1658C23.36 14.5821 28.6159 20.9906 28.4956 28.3442C28.4956 35.1162 24.7022 42.6714 19.8797 45.7702L19.8795 45.7694Z" fill="#05352E"/>
<path d="M18.0178 18.915C16.8176 18.7847 16.5839 20.5755 17.7907 20.7469C18.0656 20.7811 24.5148 21.6908 23.6539 31.0951C23.6069 31.6033 23.9811 32.0521 24.4889 32.0987C24.9888 32.1473 25.4479 31.7731 25.4925 31.2637C26.5146 20.0997 18.1027 18.9254 18.0177 18.9148L18.0178 18.915Z" fill="#05352E"/>
<path d="M12.2391 18.9143C12.1538 18.9246 3.74229 20.0988 4.76521 31.2631C4.89833 32.4695 6.69403 32.3046 6.6034 31.0946C5.74819 21.7557 12.1958 20.7831 12.4707 20.7459C13.6659 20.5761 13.4434 18.78 12.2391 18.9144L12.2391 18.9143Z" fill="#05352E"/>
<path d="M54.6584 1.61364C49.4043 -0.0135356 43.7466 -0.419537 38.297 0.438574C38.2962 0.438574 38.2953 0.439398 38.2945 0.439398C33.582 1.18415 29.1469 2.82444 25.1659 5.26889C21.8 4.38648 18.1742 4.84521 15.1508 6.57827C14.6092 6.86924 14.528 7.68243 15.002 8.0744L18.3069 10.964C19.217 11.7537 20.4291 10.3738 19.5224 9.5738L17.254 7.59095C19.5443 6.61334 22.1214 6.40027 24.5514 7.00241C24.8708 7.29297 25.372 7.34985 25.7252 7.07907C29.3798 4.79457 33.3677 3.22142 37.6077 2.43126C38.3381 8.604 42.0132 14.337 47.3019 17.5983C45.6388 19.8667 44.1744 21.1436 42.0305 22.6693C42.2477 21.1802 42.1611 18.6665 42.1389 18.8033C42.0107 17.5875 40.236 17.763 40.2953 18.9632C40.2982 18.9921 40.5282 21.8573 39.7995 24.4674C39.0675 27.3533 36.8444 29.2397 34.5249 28.2716C33.7562 27.7465 34.2677 25.2497 35.3957 23.0884C35.3957 23.088 35.3957 23.088 35.3961 23.0876C35.4856 22.9137 35.5779 22.7414 35.6719 22.5724C35.6723 22.5716 35.6727 22.5712 35.6731 22.5708C36.8164 21.0969 34.7252 19.9421 34.0583 21.6748C34.0579 21.6752 34.0579 21.676 34.0579 21.6764C33.9532 21.8627 33.8518 22.0539 33.7525 22.2468C33.7525 22.2472 33.7521 22.2476 33.7521 22.2476C32.8902 23.9127 31.2066 27.9279 33.3655 29.7079C34.0319 30.2862 35.1855 30.4663 36.1805 30.3315C38.7127 30.0426 40.5269 28.3 41.4629 25.309C44.9307 22.9454 46.9111 21.4645 49.4034 17.8252C49.4034 17.8248 49.4034 17.8248 49.4038 17.8244C49.581 17.5668 49.7747 17.2861 49.9338 17.0298C52.7367 12.7018 54.5922 7.71983 55.2992 2.62244C55.3602 2.17444 55.0886 1.74704 54.657 1.6135L54.6584 1.61364ZM48.3747 16.0421C48.369 16.0516 48.3632 16.0606 48.3574 16.0697C43.4763 13.1163 40.0712 7.81114 39.4414 2.1382C44.086 1.52905 48.8603 1.87607 53.3519 3.15126C52.6075 7.71002 50.8979 12.1464 48.3747 16.0424L48.3747 16.0421Z" fill="#05352E"/>
<path d="M43.9512 9.07767C44.7965 10.3965 46.5601 10.7675 47.8546 9.9403L47.855 9.93989C50.9523 7.85153 48.0154 3.27874 44.8245 5.18699C43.5101 6.02242 43.1178 7.76618 43.9511 9.07766L43.9512 9.07767ZM45.8141 6.7457C46.8992 6.07843 47.9564 7.66726 46.8642 8.38152C45.7741 9.04837 44.7248 7.45749 45.8141 6.7457Z" fill="#05352E"/>
</svg>
