<svg width="273" height="93" viewBox="0 0 273 93" fill="none" xmlns="http://www.w3.org/2000/svg">
<path d="M62.5086 29.2279C59.8286 24.391 56.1112 19.4855 51.4479 14.6326C46.6016 9.59054 41.262 5.04698 35.5092 1.0701C35.0526 0.773244 34.5196 0.615234 33.975 0.615234C33.4303 0.615234 32.8974 0.773244 32.4408 1.0701C32.2808 1.18434 30.2588 2.52323 27.2954 4.86743C23.4825 7.87481 19.8779 11.1374 16.5066 14.6326C11.8479 19.4855 8.12598 24.391 5.44592 29.2279C2.00959 35.4311 0.261719 41.5384 0.261719 47.3806C0.261719 47.6388 0.261719 47.8901 0.261719 48.1483C0.302243 52.1413 1.13175 56.0869 2.70254 59.7583C4.27333 63.4296 6.55441 66.7542 9.4146 69.5408C15.0696 75.1065 22.6628 78.2622 30.5969 78.3441C29.8772 82.0569 28.3121 85.9707 25.696 87.4558C25.206 87.7243 24.8073 88.1331 24.5512 88.6298C24.2952 89.1265 24.1934 89.6884 24.2589 90.2433L24.2795 90.3987C24.3349 90.8483 24.4992 91.2776 24.7581 91.6494C25.0169 92.0211 25.3626 92.3242 25.765 92.5321C26.1675 92.7401 26.6146 92.8468 27.0676 92.8429C27.5206 92.839 27.9659 92.7247 28.3647 92.5098C30.2633 91.4657 32.2214 89.6173 33.7796 86.4094C35.2236 83.4392 36.51 79.258 36.7499 72.9497C36.7499 72.8263 36.7636 72.7007 36.7636 72.575C37.0149 64.3497 36.7978 57.1481 36.7636 56.8236V54.4909C36.7636 51.3333 38.9204 49.6288 40.9356 49.0873C42.4162 48.6898 44.6987 48.932 46.1792 50.2708C46.6282 50.6999 47.2011 50.9766 47.8163 51.0615C48.4316 51.1464 49.0579 51.0352 49.6064 50.7438L49.7252 50.6798C50.1119 50.4668 50.4449 50.1685 50.6991 49.8076C50.9533 49.4467 51.1219 49.0326 51.1922 48.5967C51.2624 48.1609 51.2325 47.7148 51.1046 47.2923C50.9767 46.8698 50.7542 46.4819 50.4541 46.1582C47.8585 43.3342 43.3232 42.6899 39.4871 43.7135C38.5289 43.9686 37.6075 44.3456 36.7453 44.8353V37.3183C36.7453 35.3793 37.5156 33.5196 38.8867 32.1485C40.2579 30.7773 42.1175 30.007 44.0566 30.007H56.511C59.824 35.3854 62.1179 41.3053 62.1179 47.3714C62.1179 47.5999 62.1179 47.8444 62.1179 48.0752C62.0425 54.797 58.9009 60.116 56.2849 63.397C53.8241 66.4746 50.7031 69.109 47.7374 70.6581C47.1851 70.9441 46.745 71.4075 46.4877 71.9738C46.2304 72.54 46.171 73.1764 46.3188 73.7805C46.4667 74.3847 46.8134 74.9216 47.3031 75.305C47.7928 75.6885 48.3972 75.8962 49.0192 75.8948C49.4799 75.8938 49.9333 75.7801 50.3398 75.5635C58.1081 71.4509 67.5283 61.295 67.6837 48.146V47.3783C67.6883 41.5384 65.945 35.4311 62.5086 29.2279ZM34.0127 9.48043C34.9854 9.48088 35.9362 9.76971 36.7448 10.3104C37.5534 10.8511 38.1835 11.6194 38.5556 12.5182C38.9276 13.4169 39.0248 14.4058 38.8349 15.3598C38.6451 16.3138 38.1766 17.1901 37.4888 17.878C36.801 18.5658 35.9247 19.0342 34.9706 19.2241C34.0166 19.414 33.0277 19.3168 32.129 18.9447C31.2302 18.5727 30.4619 17.9426 29.9212 17.134C29.3805 16.3254 29.0917 15.3746 29.0912 14.4019C29.0925 13.097 29.6113 11.8459 30.534 10.9232C31.4567 10.0005 32.7078 9.48164 34.0127 9.48043ZM7.60047 37.8279C12.3254 36.7129 24.677 34.7982 31.8993 42.9092L32.1095 43.1377C32.7963 43.9259 33.2181 44.91 33.3153 45.951C33.4125 46.9919 33.1801 48.0371 32.651 48.9388L32.6281 48.9708C27.6016 45.5665 21.2041 44.2436 13.8928 45.1209C11.1564 45.4591 8.45815 46.0558 5.83433 46.9031C5.92625 43.8021 6.52278 40.7369 7.60047 37.8279ZM31.1978 61.5006C31.1978 63.7306 31.1681 67.4525 31.0927 72.7509C31.0618 72.7724 31.0253 72.7843 30.9876 72.7852C24.3768 72.8002 18.0269 70.2065 13.317 65.5675C9.71799 62.0636 7.27 57.5477 6.29814 52.6196C9.01475 51.6476 11.8309 50.9801 14.6948 50.6296C21.5491 49.8367 27.0898 51.2624 31.1978 54.877V61.5006ZM44.0658 24.4504C41.0162 24.4549 38.0669 25.5401 35.7416 27.5131C33.4163 29.4862 31.8655 32.2196 31.3646 35.2278C27.0235 32.47 21.6337 31.0991 15.4396 31.2271C13.7807 31.2644 12.1253 31.3972 10.4816 31.6246C13.9933 25.4054 18.9833 19.8283 23.5849 15.4643C23.845 18.043 25.0515 20.4338 26.9715 22.1747C28.8914 23.9157 31.3885 24.8834 33.9802 24.8908C36.5719 24.8982 39.0745 23.9448 41.0043 22.2147C42.9341 20.4847 44.1543 18.1009 44.4291 15.5237C47.3727 18.3 50.1124 21.2848 52.6269 24.455L44.0658 24.4504Z" fill="white"/>
<path d="M86.5827 57.1094C85.9706 57.1128 85.3814 56.8771 84.9405 56.4525C84.7243 56.2376 84.5534 55.9815 84.4377 55.6995C84.3221 55.4174 84.2641 55.1151 84.2672 54.8103V32.4761C84.265 32.1714 84.3234 31.8693 84.439 31.5874C84.5546 31.3055 84.7251 31.0493 84.9405 30.8339C85.3778 30.4017 85.968 30.1598 86.5827 30.1606H99.1293C99.7397 30.1492 100.33 30.3794 100.772 30.801C100.992 31.0124 101.167 31.2678 101.282 31.5507C101.398 31.8335 101.454 32.1376 101.445 32.4432C101.442 32.7254 101.381 33.0039 101.265 33.2612C101.149 33.5184 100.981 33.7488 100.772 33.9377C100.556 34.1517 100.299 34.3201 100.017 34.4329C99.735 34.5458 99.4331 34.6007 99.1293 34.5945H88.7176L89.0625 34.1347V41.886L88.7833 41.3933H97.3885C97.997 41.3758 98.5875 41.6002 99.0308 42.0174C99.2551 42.2261 99.4314 42.4811 99.5477 42.7646C99.6639 43.0481 99.7173 43.3535 99.7041 43.6596C99.7048 43.9447 99.6452 44.2267 99.5292 44.4871C99.4131 44.7475 99.2433 44.9804 99.0308 45.1704C98.5909 45.5965 98.001 45.8325 97.3885 45.8273H88.7176L89.0625 45.4825V54.8103C89.0642 55.1194 89.0007 55.4254 88.8762 55.7083C88.7517 55.9913 88.5689 56.2448 88.3399 56.4525C88.1091 56.6785 87.8335 56.8537 87.5308 56.9668C87.2282 57.08 86.9053 57.1285 86.5827 57.1094Z" fill="white"/>
<path d="M106.174 57.1086C105.869 57.1176 105.565 57.0623 105.282 56.9463C104.999 56.8303 104.743 56.6562 104.532 56.4353C104.106 55.9954 103.87 55.4055 103.875 54.7931V38.8636C103.87 38.2511 104.106 37.6612 104.532 37.2213C104.743 37.0004 104.999 36.8263 105.282 36.7103C105.565 36.5944 105.869 36.5391 106.174 36.548C106.48 36.537 106.785 36.5913 107.068 36.7074C107.351 36.8235 107.606 36.9987 107.817 37.2213C108.031 37.437 108.199 37.6936 108.312 37.9757C108.425 38.2578 108.48 38.5598 108.473 38.8636V42.4929L108.211 39.8982C108.482 39.2926 108.854 38.7373 109.311 38.2559C109.75 37.7855 110.26 37.3865 110.822 37.0735C111.394 36.7515 112.007 36.5085 112.645 36.351C113.274 36.2018 113.919 36.1246 114.566 36.121C115.276 36.0954 115.97 36.3289 116.52 36.7779C116.761 36.9581 116.957 37.1909 117.093 37.4585C117.23 37.726 117.304 38.0213 117.309 38.3216C117.342 38.6577 117.3 38.997 117.187 39.3151C117.073 39.6331 116.89 39.922 116.652 40.1609C116.258 40.5124 115.751 40.7105 115.223 40.7193C114.765 40.724 114.311 40.6287 113.893 40.4401C113.462 40.2564 112.998 40.1668 112.53 40.1773C112.04 40.1802 111.558 40.2924 111.117 40.5058C110.61 40.7439 110.161 41.0916 109.804 41.5239C109.388 42.0112 109.06 42.5668 108.835 43.1662C108.585 43.9462 108.463 44.7614 108.473 45.5802V54.7274C108.48 55.0312 108.425 55.3331 108.312 55.6152C108.199 55.8973 108.031 56.1539 107.817 56.3696C107.612 56.6041 107.36 56.7916 107.076 56.9192C106.793 57.0468 106.485 57.1114 106.174 57.1086Z" fill="white"/>
<path d="M129.281 57.519C127.293 57.5678 125.328 57.092 123.582 56.1395C122.025 55.2755 120.744 53.9889 119.887 52.4281C119.006 50.7951 118.559 48.9628 118.59 47.1073C118.53 45.0412 119.017 42.996 120.002 41.1789C120.864 39.6156 122.128 38.3115 123.664 37.4018C125.13 36.5458 126.795 36.0926 128.492 36.088C129.779 36.0806 131.051 36.3553 132.22 36.8927C133.384 37.4326 134.436 38.1845 135.324 39.1097C136.228 40.0669 136.951 41.1796 137.459 42.3942C137.988 43.6405 138.256 44.9817 138.247 46.3355C138.245 46.6225 138.179 46.9055 138.054 47.164C137.929 47.4224 137.748 47.6499 137.525 47.8299C137.067 48.2176 136.482 48.4223 135.882 48.4047H121.102L119.937 44.5619H134.207L133.37 45.3173V44.2827C133.3 43.5661 133.02 42.8861 132.565 42.3285C132.086 41.7319 131.48 41.2495 130.792 40.9162C130.092 40.5692 129.322 40.3893 128.542 40.3906C127.808 40.3906 127.078 40.4957 126.374 40.7027C125.751 40.9178 125.188 41.2781 124.732 41.7537C124.196 42.3052 123.797 42.9745 123.566 43.7079C123.257 44.7241 123.113 45.783 123.139 46.8446C123.104 48.0786 123.405 49.299 124.009 50.3753C124.533 51.2764 125.286 52.0229 126.192 52.5392C127.097 53.0554 128.123 53.323 129.166 53.3149C129.928 53.3412 130.691 53.2639 131.432 53.085C131.919 52.9762 132.386 52.7875 132.812 52.5266L133.748 51.9683C134.154 51.7551 134.603 51.6372 135.061 51.6234C135.324 51.6168 135.584 51.6644 135.828 51.7633C136.071 51.8622 136.291 52.0103 136.474 52.1982C136.652 52.3739 136.793 52.5836 136.889 52.8149C136.985 53.0462 137.034 53.2944 137.032 53.5448C137.005 53.9368 136.883 54.3164 136.677 54.651C136.471 54.9857 136.187 55.2654 135.85 55.4662C135.008 56.1199 134.057 56.6202 133.041 56.9442C131.83 57.3485 130.558 57.5429 129.281 57.519Z" fill="white"/>
<path d="M140.94 53.9224C140.668 53.5165 140.541 53.0304 140.579 52.543C140.611 52.231 140.722 51.9322 140.9 51.674C141.077 51.4158 141.317 51.2063 141.597 51.065C141.984 50.8214 142.438 50.7064 142.895 50.7365C143.42 50.8078 143.904 51.064 144.258 51.4591C144.942 52.1613 145.735 52.749 146.606 53.1998C147.575 53.6376 148.631 53.8455 149.693 53.8075C150.118 53.7801 150.54 53.7252 150.958 53.6432C151.414 53.554 151.835 53.3376 152.173 53.0192C152.36 52.8237 152.503 52.591 152.594 52.3363C152.684 52.0816 152.72 51.8107 152.699 51.5412C152.709 51.2857 152.663 51.0312 152.563 50.7956C152.464 50.56 152.314 50.3492 152.124 50.1782C151.666 49.8144 151.15 49.5312 150.597 49.3406C149.908 49.0857 149.206 48.8664 148.495 48.6837C147.69 48.4538 146.852 48.1911 146.048 47.9119C145.239 47.6423 144.466 47.2726 143.749 46.8116C143.071 46.3487 142.509 45.7362 142.106 45.0216C141.638 44.156 141.411 43.1804 141.45 42.197C141.411 41.0084 141.795 39.8446 142.533 38.9125C143.266 37.9861 144.229 37.2671 145.325 36.8269C146.466 36.3357 147.696 36.0841 148.938 36.0879C149.778 36.0937 150.616 36.1929 151.434 36.3835C152.305 36.6033 153.14 36.9461 153.914 37.4017C154.687 37.8065 155.369 38.3654 155.917 39.0439C156.203 39.4586 156.378 39.9389 156.427 40.4398C156.442 40.7268 156.382 41.0128 156.252 41.2693C156.123 41.5258 155.928 41.7437 155.688 41.9014C155.308 42.2067 154.826 42.3538 154.341 42.3119C153.867 42.2865 153.415 42.1012 153.06 41.7864C152.597 41.1967 151.993 40.7335 151.303 40.4398C150.506 40.0915 149.643 39.918 148.774 39.9307C148.355 39.9372 147.937 39.9812 147.526 40.0621C147.089 40.1579 146.682 40.3611 146.343 40.6533C146.166 40.8368 146.029 41.0565 145.944 41.2974C145.859 41.5383 145.827 41.7948 145.851 42.0492C145.839 42.3121 145.884 42.5745 145.983 42.8183C146.083 43.0621 146.233 43.2815 146.425 43.4615C146.882 43.8497 147.413 44.1404 147.986 44.3154L150.088 44.9559C150.859 45.153 151.73 45.3993 152.452 45.6785C153.228 45.9609 153.967 46.3358 154.653 46.7952C155.329 47.2668 155.89 47.8841 156.295 48.6016C156.741 49.4628 156.956 50.4246 156.919 51.3934C156.933 52.592 156.52 53.7565 155.753 54.6778C154.983 55.6116 153.989 56.3348 152.863 56.7799C151.74 57.2534 150.534 57.499 149.316 57.5025C147.766 57.4968 146.228 57.2303 144.767 56.7142C143.232 56.2047 141.894 55.2287 140.94 53.9224Z" fill="white"/>
<path d="M171.141 36.1043C172.649 36.0046 174.146 36.428 175.378 37.3031C176.358 38.1302 177.053 39.2448 177.365 40.489C177.742 41.9308 177.924 43.4165 177.907 44.9066V54.7599C177.912 55.3723 177.676 55.9622 177.25 56.4021C177.038 56.6222 176.783 56.7958 176.5 56.9117C176.217 57.0276 175.913 57.0834 175.608 57.0754C175.302 57.0865 174.997 57.0322 174.714 56.916C174.431 56.7999 174.176 56.6247 173.966 56.4021C173.752 56.1864 173.583 55.9299 173.47 55.6478C173.357 55.3656 173.303 55.0637 173.309 54.7599V44.9066C173.314 44.1293 173.209 43.3552 172.997 42.6075C172.811 41.9541 172.419 41.3781 171.88 40.9653C171.196 40.5113 170.384 40.2922 169.564 40.3412C168.686 40.3166 167.817 40.5324 167.052 40.9653C166.382 41.3482 165.84 41.9192 165.492 42.6075C165.133 43.32 164.953 44.109 164.966 44.9066V54.7599C164.972 55.0637 164.917 55.3656 164.805 55.6478C164.692 55.9299 164.523 56.1864 164.309 56.4021C164.099 56.6247 163.844 56.7999 163.561 56.916C163.278 57.0322 162.973 57.0865 162.667 57.0754C162.362 57.0834 162.058 57.0276 161.775 56.9117C161.492 56.7958 161.237 56.6222 161.025 56.4021C160.599 55.9622 160.363 55.3723 160.368 54.7599V30.9313C160.368 30.3199 160.603 29.7319 161.025 29.2891C161.239 29.0722 161.495 28.9007 161.777 28.785C162.06 28.6693 162.362 28.6118 162.667 28.6158C162.972 28.6089 163.276 28.6651 163.559 28.7809C163.841 28.8968 164.097 29.0698 164.309 29.2891C164.737 29.728 164.973 30.3186 164.966 30.9313V40.5055L164.391 40.3905C164.686 39.9098 165.027 39.4588 165.41 39.0439C165.851 38.5166 166.353 38.0426 166.904 37.6316C167.509 37.1917 168.172 36.838 168.875 36.5806C169.596 36.2889 170.363 36.1276 171.141 36.1043Z" fill="white"/>
<path d="M197.712 36.4975C198.018 36.4864 198.322 36.5408 198.605 36.6569C198.889 36.773 199.144 36.9482 199.354 37.1708C199.568 37.3865 199.736 37.6431 199.849 37.9252C199.962 38.2073 200.017 38.5092 200.011 38.813V55.2352C200.109 57.2061 199.648 59.1645 198.681 60.8844C197.845 62.2498 196.597 63.3139 195.117 63.9225C193.549 64.5424 191.876 64.8546 190.19 64.8422C189.311 64.8383 188.433 64.7724 187.563 64.6451C186.78 64.5558 186.012 64.3625 185.28 64.0703C184.613 63.8415 184.037 63.4038 183.638 62.8223C183.486 62.5796 183.392 62.306 183.36 62.0217C183.329 61.7375 183.362 61.4498 183.457 61.18C183.613 60.5434 184.015 59.9943 184.574 59.6528C184.831 59.5325 185.111 59.4702 185.395 59.4702C185.679 59.4702 185.959 59.5325 186.216 59.6528C186.627 59.7677 187.169 59.9812 187.858 60.244C188.597 60.5271 189.383 60.6665 190.174 60.6545C191.177 60.6867 192.176 60.5193 193.113 60.1619C193.892 59.8598 194.526 59.2726 194.887 58.5196C195.339 57.55 195.548 56.4845 195.495 55.4159V52.8047L196.299 53.7408C195.9 54.5331 195.34 55.2341 194.656 55.7994C193.972 56.3647 193.179 56.7821 192.325 57.0252C191.323 57.3219 190.283 57.4658 189.238 57.4522C187.983 57.4816 186.747 57.1511 185.674 56.4997C184.649 55.8708 183.827 54.9582 183.309 53.8722C182.72 52.6844 182.427 51.3715 182.456 50.0458V38.8459C182.449 38.5421 182.504 38.2401 182.617 37.958C182.73 37.6759 182.898 37.4194 183.112 37.2037C183.322 36.9811 183.578 36.8059 183.861 36.6897C184.144 36.5736 184.449 36.5193 184.755 36.5303C185.06 36.5224 185.364 36.5782 185.647 36.6941C185.929 36.81 186.185 36.9835 186.397 37.2037C186.823 37.6436 187.059 38.2334 187.054 38.8459V48.6992C186.985 49.3317 187.047 49.9717 187.236 50.5792C187.425 51.1866 187.738 51.7486 188.154 52.2299C189 52.9549 190.097 53.3203 191.209 53.2481C192 53.2758 192.786 53.1005 193.491 52.739C194.114 52.3824 194.612 51.8437 194.92 51.1954C195.269 50.4107 195.437 49.5576 195.413 48.6992V38.8459C195.407 38.2334 195.643 37.6436 196.069 37.2037C196.279 36.9776 196.533 36.7979 196.816 36.6763C197.099 36.5547 197.404 36.4938 197.712 36.4975Z" fill="white"/>
<path d="M214.889 36.1867L206.563 55.7783C206.41 56.2344 206.117 56.6307 205.726 56.9115C205.379 57.1823 204.95 57.3271 204.51 57.322C204.227 57.3422 203.943 57.3013 203.676 57.2021C203.41 57.103 203.168 56.9478 202.967 56.7472C202.635 56.3462 202.46 55.8387 202.474 55.3185C202.475 55.0678 202.513 54.8186 202.589 54.5795L212.196 31.5885C212.374 31.1001 212.701 30.6805 213.132 30.3896C213.537 30.1153 214.025 29.9932 214.512 30.0448C214.987 30.0441 215.45 30.1927 215.836 30.4698C216.222 30.7468 216.511 31.1381 216.663 31.5885L226.171 54.1197C226.294 54.4111 226.361 54.7231 226.368 55.0393C226.381 55.3453 226.327 55.6504 226.211 55.9337C226.094 56.2171 225.919 56.4721 225.695 56.6816C225.294 57.072 224.76 57.2951 224.201 57.3056C223.749 57.3045 223.31 57.1544 222.953 56.8786C222.568 56.5772 222.268 56.1811 222.082 55.7291L213.773 36.4166L214.889 36.1867ZM207.762 51.0652L209.881 46.6312H220.292L221.031 51.0652H207.762Z" fill="white"/>
<path d="M239.441 36.1048C241.13 36.0716 242.794 36.5217 244.236 37.4022C245.678 38.3378 246.85 39.6343 247.635 41.1628C248.457 42.9037 248.884 44.8049 248.884 46.73C248.884 48.6551 248.457 50.5563 247.635 52.2971C246.888 53.8203 245.756 55.1222 244.351 56.0742C242.946 56.9923 241.3 57.4724 239.621 57.4536C238.635 57.4641 237.655 57.2915 236.731 56.9446C235.881 56.64 235.078 56.2141 234.35 55.68C233.724 55.2167 233.171 54.6633 232.708 54.0378C232.396 53.658 232.202 53.1958 232.149 52.7076L233.348 52.1985V62.3475C233.35 62.9592 233.114 63.5478 232.691 63.9897C232.477 64.2066 232.221 64.3781 231.939 64.4938C231.657 64.6095 231.354 64.667 231.049 64.663C230.745 64.673 230.442 64.6199 230.159 64.5068C229.876 64.3937 229.62 64.2232 229.407 64.0061C229.194 63.7898 229.026 63.5332 228.913 63.2512C228.8 62.9692 228.745 62.6675 228.75 62.3639V38.8473C228.744 38.5435 228.799 38.2416 228.911 37.9595C229.024 37.6774 229.193 37.4208 229.407 37.2051C229.617 36.9825 229.872 36.8073 230.155 36.6912C230.438 36.5751 230.743 36.5207 231.049 36.5318C231.354 36.5238 231.658 36.5796 231.941 36.6955C232.224 36.8114 232.479 36.985 232.691 37.2051C233.117 37.645 233.353 38.2349 233.348 38.8473V40.6866L232.691 40.3417C232.741 39.8901 232.93 39.4653 233.233 39.1265C233.654 38.5865 234.145 38.1059 234.695 37.6978C235.347 37.2044 236.065 36.8063 236.83 36.5154C237.667 36.2173 238.552 36.078 239.441 36.1048ZM238.866 40.3417C237.812 40.3248 236.777 40.6221 235.893 41.1957C235.042 41.7752 234.357 42.5679 233.906 43.4948C233.422 44.5209 233.18 45.6447 233.2 46.7792C233.187 47.913 233.429 49.0354 233.906 50.0637C234.351 51.0029 235.037 51.8076 235.893 52.3956C236.779 52.9643 237.814 53.2559 238.866 53.2331C239.913 53.2577 240.943 52.9658 241.822 52.3956C242.674 51.8066 243.354 51.0018 243.793 50.0637C244.27 49.0354 244.512 47.913 244.499 46.7792C244.519 45.6447 244.277 44.5209 243.793 43.4948C243.348 42.5691 242.669 41.7763 241.822 41.1957C240.945 40.6197 239.915 40.322 238.866 40.3417Z" fill="white"/>
<path d="M263.401 36.1038C265.141 36.0647 266.854 36.5388 268.327 37.4668C269.769 38.4025 270.941 39.6989 271.727 41.2275C272.549 42.9683 272.975 44.8695 272.975 46.7946C272.975 48.7197 272.549 50.6209 271.727 52.3618C270.952 53.8924 269.792 55.1943 268.36 56.1389C266.957 57.0606 265.309 57.5411 263.631 57.5183C262.644 57.5272 261.664 57.3547 260.74 57.0092C259.893 56.7082 259.096 56.282 258.375 55.7447C257.747 55.2848 257.193 54.731 256.733 54.1025C256.429 53.7186 256.236 53.2585 256.175 52.7723L257.374 52.2632V62.4121C257.379 62.7158 257.324 63.0175 257.211 63.2995C257.098 63.5814 256.93 63.8381 256.717 64.0544C256.272 64.4724 255.685 64.7051 255.075 64.7051C254.464 64.7051 253.877 64.4724 253.432 64.0544C253.008 63.6135 252.772 63.0242 252.775 62.4121V38.8463C252.77 38.2339 253.006 37.644 253.432 37.2041C253.644 36.9832 253.899 36.8091 254.182 36.6931C254.465 36.5771 254.769 36.5218 255.075 36.5308C255.38 36.5197 255.685 36.5741 255.968 36.6902C256.252 36.8063 256.507 36.9815 256.717 37.2041C256.931 37.4198 257.099 37.6763 257.212 37.9585C257.325 38.2406 257.38 38.5425 257.374 38.8463V40.6856L256.717 40.3407C256.767 39.8891 256.956 39.4643 257.259 39.1255C257.683 38.5893 258.175 38.1092 258.72 37.6968C259.376 37.1999 260.101 36.8015 260.872 36.5144C261.682 36.2233 262.54 36.0842 263.401 36.1038ZM262.826 40.3407C261.772 40.3218 260.737 40.6193 259.853 41.1947C258.997 41.7695 258.311 42.5635 257.866 43.4938C257.376 44.5185 257.129 45.6424 257.144 46.7782C257.136 47.9133 257.383 49.0357 257.866 50.0627C258.306 51.0054 258.992 51.8114 259.853 52.3946C260.738 52.9652 261.774 53.257 262.826 53.2321C263.868 53.2565 264.893 52.9644 265.765 52.3946C266.617 51.8056 267.297 51.0008 267.736 50.0627C268.22 49.0357 268.467 47.9133 268.459 46.7782C268.473 45.6424 268.226 44.5185 267.736 43.4938C267.292 42.5681 266.612 41.7753 265.765 41.1947C264.895 40.619 263.87 40.3213 262.826 40.3407Z" fill="white"/>
</svg>
