<svg width="87" height="87" viewBox="0 0 87 87" fill="none" xmlns="http://www.w3.org/2000/svg">
<rect x="0.79834" y="0.794922" width="85.5504" height="85.5504" rx="42.7752" fill="#80C678"/>
<path d="M31.2116 60.8826C31.4644 61.0219 31.7256 61.1313 31.9919 61.2084C32.1732 62.338 32.9087 63.3829 33.9723 63.971C34.4263 64.2216 34.9073 64.3726 35.3913 64.4175C35.5223 65.599 36.2663 66.7144 37.3945 67.3376C38.1913 67.7785 39.0743 67.9099 39.8796 67.7103C40.3133 67.6018 40.6988 67.4054 41.02 67.1338C41.3244 67.7579 41.8359 68.4928 42.6661 68.9482C43.9034 69.6266 45.4601 69.485 47.293 68.5312C51.3497 66.4198 54.4333 67.7289 55.1625 68.102L55.2898 68.1717C55.3092 68.1838 55.3249 68.1918 55.3354 68.1969L58.9952 70.2218C59.0822 70.2695 59.1744 70.2924 59.2653 70.2924C59.4876 70.2924 59.7015 70.1568 59.8084 69.9216C59.9581 69.5906 59.8368 69.1876 59.5375 69.0221L55.9013 67.0113C55.8836 67 55.8498 66.9804 55.8007 66.9538C55.2825 66.6419 52.2771 64.6409 51.3352 59.5916C50.9256 57.397 50.093 55.9356 48.8612 55.2478C48.0141 54.7747 47.1551 54.7738 46.5164 54.8874C46.4915 53.6194 45.7366 52.3263 44.4938 51.6381C43.3872 51.0271 42.1482 51.0257 41.2191 51.5933C40.8936 51.1832 40.4895 50.8401 40.0266 50.5834C38.797 49.9036 37.3852 49.9971 36.4421 50.7578C36.2823 50.633 36.1149 50.5226 35.9408 50.4268C35.1444 49.9864 34.2613 49.8531 33.4548 50.0546C32.8199 50.2127 32.2877 50.5614 31.909 51.0607C30.2976 50.3538 28.5384 50.9139 27.8663 52.4011C27.1984 53.8776 27.838 55.757 29.2934 56.7631C28.8889 58.269 29.6802 60.0358 31.2117 60.8824L31.2116 60.8826ZM28.9493 53.001C29.3669 52.0772 30.594 51.8139 31.6825 52.4166C31.7185 52.4362 31.751 52.4582 31.8195 52.5012C31.9645 52.5924 32.1382 52.6083 32.2971 52.5564C32.4565 52.5026 32.5896 52.3745 32.6645 52.2104C32.8559 51.7854 33.2317 51.4843 33.72 51.3619C34.2526 51.2305 34.849 51.3212 35.3973 51.626C35.6344 51.7569 35.8538 51.9262 36.0503 52.13C36.1708 52.2553 36.3302 52.3184 36.4976 52.3095C36.6624 52.2992 36.8171 52.2151 36.9241 52.0758C37.4605 51.3834 38.5355 51.2595 39.4827 51.7831C39.9439 52.0384 40.3172 52.4124 40.5619 52.8664C40.6558 53.0407 40.816 53.1586 40.9977 53.1866C41.1812 53.2147 41.3629 53.1506 41.4965 53.0118C42.0638 52.4241 43.072 52.3535 43.9503 52.8383C45.0325 53.4377 45.5786 54.6682 45.1744 55.5911L45.1651 55.6107C45.018 55.9427 45.1402 56.3433 45.4395 56.5074C45.6855 56.6435 45.9759 56.5757 46.1534 56.3625C46.5123 56.2293 47.4495 55.9618 48.313 56.4448C49.1982 56.9394 49.8153 58.0895 50.1462 59.8638C50.5436 61.997 51.2727 63.6446 52.0611 64.8891L47.2105 62.206L46.0841 58.4663C45.9788 58.1157 45.6373 57.9249 45.3173 58.0427C45.0002 58.1591 44.8282 58.5388 44.9343 58.8908L45.6778 61.3593L42.8783 59.8108L41.7518 56.0716C41.6457 55.7209 41.3063 55.5293 40.985 55.648C40.668 55.7644 40.4959 56.1441 40.602 56.4961L41.3456 58.9641L38.3702 57.318L37.2432 53.5783C37.138 53.2276 36.7964 53.0359 36.4765 53.1547C36.1594 53.2711 35.9874 53.6507 36.0935 54.0028L36.837 56.4708L33.7543 54.7658C33.455 54.6017 33.0915 54.7344 32.941 55.0655C32.7914 55.3965 32.9127 55.7995 33.2119 55.965L36.2558 57.6485L34.0823 58.4493C33.7653 58.5667 33.5932 58.9458 33.6989 59.2979C33.7839 59.5789 34.0202 59.7565 34.2738 59.7565C34.3368 59.7565 34.4014 59.7453 34.4653 59.7224L37.7899 58.498L40.7648 60.1432L38.5913 60.9441C38.2743 61.0614 38.1022 61.4406 38.2079 61.7926C38.2929 62.0736 38.5291 62.2513 38.7828 62.2513C38.8457 62.2513 38.9104 62.2401 38.9742 62.2171L42.2989 60.9928L45.0967 62.5403L42.9223 63.3421C42.6052 63.4585 42.4332 63.8381 42.5393 64.1902C42.6243 64.4712 42.8597 64.6488 43.1137 64.6488C43.1767 64.6488 43.2414 64.6376 43.3052 64.6138L46.6285 63.3884L51.4072 66.0318C50.0694 66.0856 48.4948 66.4264 46.774 67.3221C45.2967 68.0917 44.0986 68.2352 43.2114 67.7565C42.1056 67.1571 41.8038 65.7297 41.8013 65.7181C41.7472 65.4399 41.5401 65.2295 41.2852 65.194C41.2598 65.1907 41.2336 65.1889 41.2087 65.1889C40.9812 65.1889 40.7699 65.3301 40.6663 65.5596C40.4749 65.9846 40.0991 66.2847 39.6108 66.4077C39.0765 66.5409 38.4818 66.4479 37.934 66.1435C37.0412 65.6503 36.49 64.7017 36.5924 63.8372C36.6165 63.6343 36.5556 63.4309 36.4271 63.2836C36.2986 63.1364 36.1168 63.0672 35.9325 63.0831C35.4562 63.1354 34.9683 63.0293 34.5122 62.7768C33.696 62.3252 33.1525 61.4738 33.1592 60.658C33.1621 60.3181 32.9343 60.0301 32.6299 59.9871C32.3294 59.9451 32.0343 59.8445 31.752 59.6884C30.6631 59.0872 30.1178 57.8445 30.5337 56.9226C30.5464 56.895 30.5612 56.8688 30.5937 56.8099C30.6842 56.6444 30.6914 56.4363 30.6373 56.2521C30.5832 56.0679 30.4471 55.9108 30.286 55.8351C30.245 55.8154 30.2032 55.7953 30.1647 55.7748C29.0771 55.1679 28.5318 53.9253 28.9495 53.0009L28.9493 53.001Z" fill="#05352E"/>
<path d="M67.5019 34.9346C67.1747 33.9519 66.5483 33.3043 66.0118 32.9056C66.2663 32.5928 66.4662 32.2103 66.6015 31.7741C66.8674 30.9097 66.8429 29.9242 66.5313 29.0008C66.0993 27.7193 65.1935 26.7851 64.1638 26.4986C64.1781 25.953 64.0953 25.3967 63.9139 24.8613C63.4342 23.4376 62.3431 22.4391 61.1845 22.2857C61.1443 22.0743 61.0898 21.8672 61.0213 21.6648C60.7098 20.741 60.1455 19.9789 59.4323 19.5188C58.8689 19.1555 58.2666 19.0059 57.6803 19.0878C56.9384 17.3597 55.3067 16.4416 53.8971 17.0212C53.148 17.3307 52.5803 18.004 52.2984 18.9161C52.0706 19.6567 52.0562 20.4865 52.2519 21.2883C51.6982 21.6464 51.2776 22.2313 51.0476 22.9765C50.7818 23.8409 50.8063 24.8265 51.1178 25.7498C51.2159 26.0425 51.3402 26.3198 51.4873 26.5764C50.923 27.5391 50.8177 28.8579 51.2328 30.0903C51.4103 30.6158 51.6699 31.0889 51.9958 31.4863C51.363 32.4504 51.2205 33.8268 51.6614 35.134C52.1577 36.6053 53.277 37.5843 54.4403 37.7143C54.2772 38.4002 54.1981 39.3254 54.5257 40.2866C55.0131 41.7154 56.2381 42.786 58.1673 43.4705C62.4454 44.9872 63.8907 48.2795 64.1904 49.0958L64.2339 49.2243C64.2466 49.2631 64.255 49.2893 64.2593 49.3005L65.6859 53.5312C65.7764 53.8005 66.0076 53.9669 66.2536 53.9669C66.3238 53.9669 66.3952 53.9529 66.4658 53.9249C66.7799 53.7963 66.9384 53.4096 66.8217 53.0627L65.4002 48.847C65.3934 48.8255 65.382 48.7863 65.3625 48.7325C65.1753 48.1144 64.2106 44.3831 66.634 39.9785C67.6866 38.0635 67.9787 36.3673 67.5018 34.9343L67.5019 34.9346ZM65.5985 39.2826C64.5751 41.1433 64.0928 42.8979 63.9017 44.4033L62.0067 38.7827L63.4879 35.1968C63.6265 34.8602 63.4934 34.4628 63.1886 34.3095C62.8855 34.1561 62.5245 34.3034 62.3863 34.6405L61.409 37.007L60.3151 33.7638L61.7963 30.1778C61.935 29.8412 61.8018 29.4438 61.497 29.2905C61.1935 29.1371 60.8334 29.2853 60.6947 29.6215L59.7175 31.9885L58.5546 28.5396L60.0358 24.9537C60.1745 24.6171 60.0413 24.2197 59.7366 24.0664C59.433 23.9121 59.0729 24.0603 58.9343 24.3974L57.957 26.7639L56.7522 23.1915C56.636 22.8442 56.2864 22.6702 55.9728 22.7979C55.6587 22.9264 55.5002 23.3131 55.6169 23.66L56.8063 27.1875L54.7215 26.1346C54.4159 25.9813 54.0566 26.1295 53.9192 26.4656C53.7806 26.8022 53.9137 27.2001 54.2185 27.353L57.4048 28.9622L58.5676 32.411L56.4824 31.3572C56.1793 31.203 55.8183 31.3512 55.6801 31.6883C55.5414 32.0249 55.6746 32.4223 55.9794 32.5756L59.1661 34.1858L60.26 37.429L58.1752 36.3761C57.8717 36.2228 57.5116 36.3701 57.3729 36.7071C57.2343 37.0438 57.3674 37.4412 57.6722 37.5945L60.8585 39.2047L62.7256 44.7416C61.7128 43.7719 60.3513 42.834 58.5399 42.1921C56.9869 41.6414 56.0198 40.8438 55.6656 39.8237C55.2251 38.552 55.885 37.2794 55.8905 37.2686C56.0228 37.0246 56.0008 36.7151 55.8359 36.4963C55.7184 36.3401 55.5464 36.255 55.3701 36.255C55.2991 36.255 55.2277 36.269 55.1579 36.2971C54.2863 36.6571 53.2249 35.9259 52.7988 34.6631C52.4505 33.6294 52.6314 32.5196 53.2393 31.9646C53.3817 31.8346 53.4629 31.6387 53.4591 31.4344C53.4552 31.2292 53.3677 31.0384 53.2202 30.9145C52.8419 30.5961 52.549 30.1482 52.3702 29.6195C52.0514 28.6737 52.1787 27.641 52.6859 27.049C52.8973 26.8021 52.9083 26.4202 52.7121 26.1588C52.519 25.9012 52.3651 25.6058 52.2539 25.279C52.04 24.645 52.0193 23.9801 52.1956 23.4069C52.3575 22.8819 52.6678 22.5013 53.0672 22.3368C53.0947 22.3256 53.1222 22.3181 53.1801 22.2998C53.3487 22.247 53.4832 22.1021 53.5576 21.9258C53.6319 21.75 53.6286 21.5336 53.5576 21.3559C53.5398 21.3115 53.5212 21.2666 53.5047 21.218C53.2908 20.584 53.2701 19.9192 53.4464 19.346C53.6083 18.821 53.9185 18.4404 54.321 18.2749C55.1913 17.913 56.254 18.6447 56.6797 19.9042C56.6936 19.9463 56.7059 19.9902 56.7295 20.0739C56.7828 20.2609 56.9113 20.411 57.0745 20.4881C57.2186 20.5559 57.3843 20.5578 57.5301 20.4956C57.9313 20.3329 58.3908 20.3951 58.8215 20.6737C59.2941 20.9786 59.6716 21.4961 59.8863 22.1315C59.9785 22.405 60.0347 22.6953 60.0529 22.9922C60.0643 23.1745 60.1425 23.3443 60.2697 23.4616C60.397 23.579 60.5665 23.636 60.7263 23.6126C61.5484 23.5107 62.4078 24.2297 62.7781 25.328C62.9581 25.8614 63 26.4173 62.8998 26.9339C62.8618 27.1321 62.9057 27.3388 63.0211 27.4968C63.1361 27.6534 63.3094 27.7446 63.492 27.7446H63.4933H63.4971C64.2728 27.7446 65.0531 28.4524 65.3963 29.467C65.6102 30.101 65.6309 30.7658 65.4547 31.339C65.2928 31.864 64.9825 32.2446 64.5801 32.4101C64.2669 32.5396 64.1079 32.9249 64.2237 33.2713C64.3197 33.5574 64.5721 33.7206 64.8345 33.707C65.1782 33.8781 66.0308 34.3905 66.3652 35.3966C66.7076 36.4275 66.4498 37.7342 65.5984 39.2822L65.5985 39.2826Z" fill="#05352E"/>
<path d="M23.7136 59.0371C21.354 59.0371 19.4346 61.1596 19.4346 63.7699C19.4346 66.3796 21.3536 68.5026 23.7136 68.5026C26.0732 68.5026 27.9927 66.3801 27.9927 63.7699C27.9927 61.1596 26.0727 59.0371 23.7136 59.0371ZM23.7136 67.1613C22.0228 67.1613 20.6469 65.639 20.6469 63.7694C20.6469 61.8993 22.0232 60.3775 23.7136 60.3775C25.4044 60.3775 26.7803 61.8998 26.7803 63.7694C26.7808 65.639 25.4044 67.1613 23.7136 67.1613Z" fill="#05352E"/>
<path d="M52.6523 42.0972C52.5381 40.8391 51.9869 39.7063 51.1022 38.9064C50.2175 38.106 49.1049 37.7362 47.9662 37.862C46.8287 37.9882 45.8045 38.5974 45.0813 39.5763C44.3585 40.5549 44.0233 41.7868 44.137 43.0449C44.328 45.1398 45.7191 46.7897 47.5135 47.2016C47.3546 47.7878 47.2996 48.4087 47.3567 49.0361C47.4708 50.2943 48.0216 51.4274 48.9067 52.2279C49.6782 52.925 50.6233 53.2962 51.6065 53.2962C51.7515 53.2962 51.8969 53.2882 52.0436 53.2719C54.3905 53.0096 56.1079 50.6856 55.8716 48.0889C55.6797 45.9855 54.2619 44.3416 52.4828 43.9307C52.6439 43.3398 52.7085 42.7213 52.6523 42.0971L52.6523 42.0972ZM45.3433 42.9112C45.2608 42.0089 45.5014 41.1272 46.0196 40.4253C46.5378 39.7236 47.2716 39.2874 48.087 39.1966C48.1918 39.1845 48.2967 39.1793 48.4002 39.1793C49.1049 39.1793 49.7821 39.4454 50.3345 39.9456C50.969 40.5188 51.3634 41.3304 51.4454 42.2318C51.4957 42.7873 51.4234 43.3399 51.2353 43.85C51.2188 43.8519 51.2015 43.8533 51.1846 43.8551C51.1808 43.8556 51.1766 43.8565 51.1732 43.857C51.0236 43.8743 50.8765 43.9005 50.7306 43.9342C50.6955 43.9421 50.6621 43.9538 50.6275 43.9631C50.5117 43.9935 50.3971 44.0267 50.2851 44.0669C50.2513 44.0791 50.2179 44.0936 50.1845 44.1071C50.0725 44.1506 49.9626 44.1983 49.8548 44.2521C49.8239 44.2675 49.7943 44.2834 49.7635 44.3002C49.6561 44.3573 49.5509 44.419 49.4486 44.4858C49.4194 44.5045 49.3902 44.5242 49.3615 44.5443C49.2621 44.6125 49.1658 44.6855 49.0719 44.7626C49.0423 44.7869 49.0119 44.8108 48.9827 44.8365C48.8944 44.9127 48.8094 44.9945 48.7266 45.0791C48.6961 45.11 48.6649 45.1394 48.6353 45.1717C48.5545 45.2586 48.4784 45.3512 48.4032 45.4457C48.377 45.4784 48.3499 45.5088 48.325 45.542C48.3178 45.5523 48.3085 45.5607 48.3013 45.571C48.2117 45.6916 48.1284 45.8169 48.0511 45.945C46.6279 45.7692 45.4899 44.5223 45.3433 42.9112L45.3433 42.9112ZM54.6652 48.2228C54.8343 50.0835 53.6034 51.7503 51.9218 51.9377C51.106 52.0322 50.3075 51.7629 49.6735 51.1897C49.039 50.6165 48.6446 49.8044 48.5626 48.9031C48.4797 47.9928 48.7355 47.133 49.211 46.4659C49.2317 46.4369 49.2516 46.4089 49.2727 46.3813C49.3869 46.2317 49.5099 46.0919 49.6447 45.9656C49.6574 45.9535 49.6713 45.9441 49.684 45.9329C49.8108 45.8188 49.9478 45.7178 50.0907 45.6267C50.1198 45.6084 50.1477 45.5883 50.1769 45.571C50.3282 45.4818 50.4884 45.4074 50.6546 45.3466C50.6905 45.3331 50.7273 45.3233 50.7636 45.3111C50.9382 45.2555 51.117 45.2106 51.3034 45.1891C51.3047 45.1891 51.3051 45.1886 51.3064 45.1886H51.3068C51.3224 45.1867 51.3376 45.1872 51.3533 45.1858C51.4412 45.1779 51.5283 45.1718 51.6149 45.1718C53.1696 45.1713 54.5058 46.4776 54.6652 48.2228L54.6652 48.2228Z" fill="#05352E"/>
<path d="M24.8055 62.5639C24.5684 62.3016 24.1854 62.3016 23.9487 62.5639L23.7141 62.8234L23.4795 62.5639C23.2424 62.3016 22.8594 62.3016 22.6227 62.5639C22.3855 62.8262 22.3855 63.2498 22.6227 63.5116L22.8573 63.7711L22.6227 64.0305C22.3855 64.2928 22.3855 64.7164 22.6227 64.9782C22.741 65.1091 22.8962 65.1746 23.0513 65.1746C23.2064 65.1746 23.3616 65.1091 23.4799 64.9782L23.7145 64.7187L23.9491 64.9782C24.0675 65.1091 24.2226 65.1746 24.3777 65.1746C24.5329 65.1746 24.688 65.1091 24.8064 64.9782C25.0435 64.7159 25.0435 64.2923 24.8064 64.0305L24.5718 63.7711L24.8064 63.5116C25.0418 63.2493 25.0418 62.8257 24.8055 62.5639H24.8055Z" fill="#05352E"/>
<path d="M63.7556 57.4629C61.396 57.4629 59.4766 59.5854 59.4766 62.1956C59.4766 64.8054 61.3956 66.9284 63.7556 66.9284C66.1152 66.9284 68.0346 64.8059 68.0346 62.1956C68.0342 59.5854 66.1152 57.4629 63.7556 57.4629ZM63.7556 65.5871C62.0648 65.5871 60.6889 64.0648 60.6889 62.1952C60.6889 60.3251 62.0652 58.8033 63.7556 58.8033C65.4464 58.8033 66.8223 60.3255 66.8223 62.1952C66.8223 64.0648 65.446 65.5871 63.7556 65.5871Z" fill="#05352E"/>
<path d="M64.8475 60.9897C64.6104 60.7274 64.2274 60.7274 63.9907 60.9897L63.7561 61.2492L63.5215 60.9897C63.2844 60.7274 62.9014 60.7274 62.6647 60.9897C62.4275 61.252 62.4275 61.6755 62.6647 61.9374L62.8993 62.1968L62.6647 62.4563C62.4275 62.7186 62.4275 63.1422 62.6647 63.404C62.783 63.5349 62.9382 63.6003 63.0933 63.6003C63.2484 63.6003 63.4035 63.5349 63.5219 63.404L63.7565 63.1445L63.9911 63.404C64.1095 63.5349 64.2646 63.6003 64.4197 63.6003C64.5749 63.6003 64.73 63.5349 64.8483 63.404C65.0855 63.1417 65.0855 62.7181 64.8483 62.4563L64.6137 62.1968L64.8483 61.9374C65.0838 61.676 65.0838 61.252 64.8475 60.9897H64.8475Z" fill="#05352E"/>
<path d="M48.7292 43.765C48.8433 43.8688 48.9803 43.9198 49.1164 43.9198C49.2901 43.9198 49.463 43.8375 49.583 43.6785C49.7973 43.3938 49.7618 42.9707 49.5048 42.7346L49.2495 42.4999L49.4617 42.2175C49.6756 41.9328 49.6397 41.5106 49.3822 41.2736C49.1248 41.037 48.7431 41.0768 48.5288 41.3615L48.3175 41.6425L48.063 41.4087C47.8034 41.1717 47.4217 41.2119 47.2095 41.4952C46.9952 41.7799 47.0307 42.2031 47.2877 42.4391L47.5431 42.6738L47.3309 42.9562C47.117 43.2409 47.1529 43.6631 47.4103 43.9002C47.5236 44.0039 47.6606 44.0544 47.7971 44.0544C47.9708 44.0544 48.1437 43.9722 48.2642 43.8123L48.4755 43.5308L48.7292 43.765Z" fill="#05352E"/>
<path d="M51.2808 47.3838C51.0212 47.1467 50.6404 47.187 50.4273 47.4703C50.213 47.755 50.2485 48.1781 50.5055 48.4142L50.7608 48.6489L50.5486 48.9313C50.3347 49.216 50.3707 49.6382 50.6281 49.8752C50.7414 49.979 50.8784 50.0295 51.0149 50.0295C51.1886 50.0295 51.3615 49.9472 51.482 49.7873L51.6933 49.5059L51.9478 49.7396C52.0619 49.8434 52.1989 49.8944 52.335 49.8944C52.5087 49.8944 52.6816 49.8121 52.8017 49.6531C53.016 49.3684 52.9805 48.9453 52.7235 48.7092L52.4681 48.4745L52.6803 48.1921C52.8942 47.9074 52.8583 47.4852 52.6009 47.2482C52.3434 47.0116 51.9617 47.0514 51.7474 47.3361L51.5361 47.6171L51.2808 47.3838Z" fill="#05352E"/>
<path d="M22.4833 45.2755L22.6625 45.3059C23.5586 45.4573 24.3287 46.0848 24.724 46.9857L24.8035 47.1666C25.4672 48.6786 26.8232 49.6248 28.3432 49.6356C28.3525 49.6356 28.361 49.6361 28.3699 49.6361C29.8789 49.6356 31.2346 48.7113 31.9117 47.2171L31.9924 47.038C32.3986 46.1427 33.1764 45.526 34.0746 45.3877L34.253 45.3596C35.7578 45.1282 36.9909 43.995 37.4698 42.3998C37.9488 40.8046 37.5747 39.0809 36.4942 37.899C35.7689 37.1065 35.4421 35.9714 35.6218 34.8619C35.7211 34.2462 35.7253 33.6899 35.634 33.1741C35.9582 33.4551 36.2279 33.8142 36.4135 34.2359L36.493 34.4168C37.1566 35.9288 38.5122 36.875 40.0318 36.8858H40.0585C41.5675 36.8858 42.9232 35.9615 43.5999 34.4696L43.6819 34.2887C44.0881 33.3933 44.8659 32.7767 45.7628 32.6383L45.9433 32.6107C47.4481 32.3793 48.6812 31.2461 49.1602 29.6509C49.6391 28.0557 49.265 26.332 48.1846 25.1501C47.4592 24.3576 47.1325 23.2225 47.3113 22.113C47.578 20.458 46.9833 18.8109 45.7599 17.8146C44.5358 16.8179 42.938 16.6781 41.5908 17.45L41.4264 17.543C40.6216 18.004 39.6655 17.997 38.8648 17.5243L38.7054 17.4303C37.365 16.6374 35.7647 16.7547 34.53 17.7337C33.2948 18.7123 32.681 20.3504 32.9283 22.0093L32.9579 22.2071C33.1046 23.1963 32.8028 24.201 32.1501 24.8953L32.0199 25.0342C30.9243 26.1993 30.5303 27.9184 30.9902 29.52C31.0152 29.6061 31.0502 29.6841 31.0786 29.7674C30.6745 29.8426 30.2792 29.9805 29.8988 30.1984L29.7365 30.2914C28.9325 30.751 27.9751 30.7454 27.1749 30.2727L27.0156 30.1788C25.6756 29.3854 24.0752 29.5032 22.8401 30.4822C21.6049 31.4607 20.9912 33.0989 21.2384 34.7578L21.268 34.9555C21.4147 35.9448 21.1129 36.9495 20.4602 37.6438L20.33 37.7826C19.2353 38.9496 18.8417 40.6682 19.302 42.2699C19.7628 43.8722 20.9815 45.0237 22.4832 45.2756L22.4833 45.2755ZM32.8603 26L32.9905 25.8611C33.9306 24.8611 34.3647 23.4142 34.1529 21.99L34.1233 21.7918C33.9496 20.6235 34.3647 19.5145 35.2354 18.8239C35.7207 18.4392 36.2723 18.2447 36.8298 18.2447C37.2715 18.2447 37.7171 18.3672 38.1351 18.614L38.294 18.708C39.4459 19.3892 40.8248 19.3976 41.9804 18.7356L42.1448 18.6425C43.095 18.0983 44.178 18.1928 45.0395 18.895C45.9018 19.5972 46.3043 20.7128 46.1165 21.8783C45.868 23.4225 46.322 25.0024 47.331 26.1056C48.0931 26.9373 48.3467 28.1047 48.0086 29.2292C47.6708 30.3541 46.8364 31.1213 45.7763 31.284L45.5958 31.3115C44.3032 31.5098 43.1834 32.3985 42.5984 33.6871L42.5164 33.868C42.0387 34.9204 41.1214 35.5469 40.0584 35.5469C40.0516 35.5469 40.0457 35.5464 40.0389 35.5464C38.9682 35.5389 38.0501 34.8984 37.5822 33.8325L37.5027 33.6515C36.9329 32.3532 35.8229 31.4491 34.5332 31.2326L34.354 31.2022C33.2947 31.024 32.4696 30.2438 32.1445 29.1151C31.8203 27.986 32.0879 26.8224 32.8602 26L32.8603 26ZM21.1712 38.749L21.3014 38.6101C22.2415 37.6101 22.6756 36.1631 22.4638 34.739L22.4342 34.5408C22.2605 33.3724 22.6756 32.2635 23.5463 31.5729C24.4167 30.8833 25.5005 30.8057 26.4461 31.363L26.605 31.457C27.7556 32.1382 29.1336 32.1461 30.2931 31.4836L30.455 31.391C30.8714 31.1526 31.3186 31.0376 31.7586 31.0465C32.3415 31.8011 33.1477 32.3191 34.0679 32.5014C34.4606 33.1068 34.5709 33.7441 34.4285 34.6268C34.1795 36.171 34.6335 37.7508 35.6425 38.8541C36.4046 39.6858 36.6582 40.8532 36.3201 41.9777C35.9823 43.1025 35.1479 43.8698 34.0869 44.0324L33.9077 44.06C32.6151 44.2583 31.4944 45.147 30.9094 46.4374L30.8287 46.6164C30.351 47.6688 29.4337 48.2953 28.3707 48.2953C28.3639 48.2953 28.358 48.2948 28.3512 48.2948C27.2797 48.2873 26.3615 47.6468 25.894 46.5809L25.8146 46.4C25.2456 45.1016 24.1351 44.1983 22.8451 43.981L22.6659 43.9506C21.6075 43.7725 20.7819 42.9922 20.4573 41.864C20.1326 40.7344 20.399 39.5703 21.1712 38.7489L21.1712 38.749Z" fill="#05352E"/>
<path d="M28.3137 43.7794C28.7368 43.7794 29.1676 43.7088 29.5916 43.5597C31.8142 42.7789 33.048 40.143 32.3421 37.6843C31.6354 35.2261 29.2534 33.8604 27.0296 34.6421C24.807 35.4229 23.5735 38.0588 24.2795 40.518C24.8518 42.5063 26.5202 43.7794 28.3137 43.7794V43.7794ZM27.3969 35.9194C27.6978 35.8133 28.0072 35.7614 28.3141 35.7614C28.7905 35.7614 29.2631 35.8876 29.6981 36.1373C30.4145 36.5468 30.9434 37.2406 31.1869 38.0905C31.4303 38.9405 31.3614 39.8437 30.9907 40.6363C30.6204 41.4278 29.9931 42.0131 29.2247 42.2824C28.4558 42.5527 27.6383 42.4746 26.923 42.066C26.2074 41.6564 25.6781 40.9626 25.4347 40.1127C24.9316 38.3576 25.8117 36.4763 27.3969 35.9195L27.3969 35.9194Z" fill="#05352E"/>
<path d="M40.0019 31.0329C40.425 31.0329 40.8558 30.9623 41.2798 30.8131C42.3568 30.4349 43.236 29.6153 43.7551 28.5055C44.2746 27.396 44.3719 26.1286 44.0295 24.9382C43.3236 22.48 40.9403 21.1144 38.7173 21.896C37.6403 22.2743 36.7611 23.0938 36.242 24.2037C35.7225 25.3136 35.6253 26.581 35.9676 27.7714C36.54 29.7607 38.2084 31.0329 40.0019 31.0329V31.0329ZM37.3194 24.8199C37.6897 24.0275 38.317 23.4426 39.0854 23.1733C39.3864 23.0672 39.6958 23.0153 40.0027 23.0153C40.4791 23.0153 40.9513 23.1415 41.3867 23.3912C42.1023 23.8007 42.6315 24.4945 42.875 25.3444C43.1193 26.1944 43.0496 27.0976 42.6793 27.8902C42.309 28.6817 41.6817 29.267 40.9133 29.5363C40.1435 29.8056 39.3269 29.7285 38.6116 29.3199C37.8959 28.9103 37.3667 28.2165 37.1232 27.3666C36.8789 26.5162 36.9491 25.6115 37.3194 24.82L37.3194 24.8199Z" fill="#05352E"/>
</svg>
