<svg width="86" height="87" viewBox="0 0 86 87" fill="none" xmlns="http://www.w3.org/2000/svg">
<rect x="0.225098" y="0.794922" width="85.5504" height="85.5504" rx="42.7752" fill="#80C678"/>
<path d="M53.6851 66.0696H58.5767C58.9802 66.0696 59.3063 65.7919 59.3063 65.4483V62.4963C59.3063 62.1527 58.9802 61.875 58.5767 61.875H53.6851C53.2817 61.875 52.9556 62.1527 52.9556 62.4963V65.4483C52.9556 65.7914 53.2827 66.0696 53.6851 66.0696ZM54.4141 63.118H57.8471V64.8279H54.4141V63.118Z" fill="#05352E"/>
<path d="M45.8946 66.0696H50.7871C51.1905 66.0696 51.5166 65.7919 51.5166 65.4483V62.4963C51.5166 62.1527 51.1905 61.875 50.7871 61.875H45.8946C45.4911 61.875 45.165 62.1527 45.165 62.4963V65.4483C45.1655 65.7914 45.4911 66.0696 45.8946 66.0696ZM46.6241 63.118H50.0576V64.8279H46.6241V63.118Z" fill="#05352E"/>
<path d="M38.1036 66.0696H42.9952C43.3986 66.0696 43.7247 65.7919 43.7247 65.4483V62.4963C43.7247 62.1527 43.3986 61.875 42.9952 61.875H38.1036C37.7001 61.875 37.374 62.1527 37.374 62.4963V65.4483C37.3745 65.7914 37.7006 66.0696 38.1036 66.0696ZM38.8331 63.118H42.2661V64.8279H38.8331V63.118Z" fill="#05352E"/>
<path d="M57.9744 55.5104L56.0051 57.1874C55.7197 57.4305 55.7197 57.823 56.0051 58.0656C56.1475 58.1869 56.3342 58.2476 56.5209 58.2476C56.7076 58.2476 56.8943 58.1869 57.0368 58.0656L59.0061 56.3886C59.2915 56.1455 59.2915 55.753 59.0061 55.5104C58.7207 55.2674 58.2598 55.2674 57.9744 55.5104H57.9744Z" fill="#05352E"/>
<path d="M54.0756 57.3133C54.2623 57.3133 54.449 57.2526 54.5915 57.1313L58.5531 53.7577C58.8385 53.5147 58.8385 53.1222 58.5531 52.8795C58.2676 52.6365 57.8067 52.6365 57.5218 52.8795L53.5602 56.2531C53.2748 56.4962 53.2748 56.8887 53.5602 57.1313C53.7022 57.2531 53.8889 57.3133 54.0756 57.3133H54.0756Z" fill="#05352E"/>
<path d="M34.5755 18.7269H30.8728C30.4694 18.7269 30.1433 19.0046 30.1433 19.3482V20.5343H26.0795C25.7228 20.5343 25.4181 20.754 25.3601 21.0542L23.9102 28.5257C23.9035 28.5591 23.9 28.5929 23.9 28.6271V41.1863L22.8988 48.2562C22.8738 48.4325 22.939 48.6097 23.0773 48.7427C23.2152 48.8762 23.4141 48.952 23.6227 48.952H23.8924V67.793C23.8924 68.1366 24.2185 68.4143 24.6219 68.4143H61.3816C61.785 68.4143 62.1111 68.1366 62.1111 67.793V48.9509H62.3782C62.5868 48.9509 62.7857 48.8751 62.9236 48.7416C63.062 48.6086 63.1271 48.4319 63.1022 48.2551L62.0928 41.1311C62.0923 41.1263 62.0882 41.1224 62.0877 41.1172V28.6268C62.0877 28.5925 62.0842 28.5592 62.0776 28.5254L60.6276 21.0539C60.5701 20.7545 60.2654 20.534 59.9083 20.534H55.8444V19.3478C55.8444 19.0043 55.5183 18.7266 55.1149 18.7266H51.4112C51.0078 18.7266 50.6816 19.0043 50.6816 19.3478V20.534L35.3044 20.5344V19.3483C35.3044 19.0047 34.9783 18.7266 34.5754 18.7266L34.5755 18.7269ZM31.6019 19.969H33.8459V24.9893H31.6019V19.969ZM60.6515 59.5453H36.03V49.0346H60.6515V59.5453ZM34.5713 60.1661V64.5261H25.3519V49.0345H34.5724V60.1663L34.5713 60.1661ZM60.7218 41.8264L61.5556 47.7093H58.4879V41.8264H60.7218ZM57.0289 47.7084H54.2806L54.2811 41.8264H57.0294L57.0289 47.7084ZM52.8231 47.7084H50.0745V41.8264H52.8231V47.7084ZM48.6153 47.7084H45.867L45.8675 41.8264H48.6158L48.6153 47.7084ZM44.4095 47.7084H41.6608V41.8264H44.4095V47.7084ZM40.2016 47.7084H37.4539V41.8264H40.2026V47.7084H40.2016ZM35.9948 47.7084H33.2465L33.247 41.8264H35.9953L35.9948 47.7084ZM31.788 47.7084H29.0393V41.8264H31.788V47.7084ZM27.5807 47.7084H24.4453L25.2791 41.8255H27.5807L27.5807 47.7084ZM60.6286 40.5839H25.3588V29.8765H60.6286V40.5839ZM25.351 65.7677H34.5714V67.1709L25.351 67.1705V65.7677ZM60.6507 67.1705H36.0292V60.7872H60.6507V67.1705ZM52.1394 19.9681H54.3844V24.9885H52.1394V19.9681ZM50.6809 21.7756V25.6097C50.6809 25.9532 51.007 26.2309 51.4104 26.2309H55.1141C55.5175 26.2309 55.8437 25.9532 55.8437 25.6097V21.7756H59.2888L60.6197 28.6337L25.3669 28.6333L26.6978 21.7752H30.143V25.6093C30.143 25.9528 30.4691 26.2305 30.8725 26.2305H34.5752C34.9786 26.2305 35.3047 25.9528 35.3047 25.6093V21.7752L50.6809 21.7756Z" fill="#05352E"/>
<path d="M50.3707 38.5262H55.8091C56.2126 38.5262 56.5387 38.2485 56.5387 37.9049V32.5861C56.5387 32.2425 56.2126 31.9648 55.8091 31.9648H50.3707C49.9672 31.9648 49.6411 32.2425 49.6411 32.5861V37.9049C49.6411 38.2489 49.9682 38.5262 50.3707 38.5262ZM51.1002 33.2074H55.0801V37.2841H51.1002V33.2074Z" fill="#05352E"/>
<path d="M39.9756 38.5262H45.4141C45.8176 38.5262 46.1437 38.2485 46.1437 37.9049V32.5861C46.1437 32.2425 45.8176 31.9648 45.4141 31.9648H39.9756C39.5722 31.9648 39.2461 32.2425 39.2461 32.5861V37.9049C39.2461 38.2489 39.5722 38.5262 39.9756 38.5262ZM40.7052 33.2074H44.6851V37.2841H40.7052V33.2074Z" fill="#05352E"/>
<path d="M29.5787 38.5262H35.0171C35.4206 38.5262 35.7467 38.2485 35.7467 37.9049V32.5861C35.7467 32.2425 35.4206 31.9648 35.0171 31.9648H29.5787C29.1752 31.9648 28.8491 32.2425 28.8491 32.5861V37.9049C28.8491 38.2489 29.1752 38.5262 29.5787 38.5262ZM30.3082 33.2074H34.2882V37.2841H30.3082V33.2074Z" fill="#05352E"/>
</svg>
