<svg width="87" height="87" viewBox="0 0 87 87" fill="none" xmlns="http://www.w3.org/2000/svg">
<rect x="0.651367" y="0.794922" width="85.5504" height="85.5504" rx="42.7752" fill="#80C678"/>
<path d="M67.6458 43.7871H64.6973C64.3541 43.7871 64.075 44.0648 64.075 44.4084L64.0754 45.7279H45.4695V44.4084C45.4695 44.0648 45.1909 43.7871 44.8472 43.7871H41.8987C41.5554 43.7871 41.2764 44.0648 41.2764 44.4084V45.7279H22.7771V44.4084C22.7771 44.0648 22.4985 43.7871 22.1548 43.7871H19.2063C18.863 43.7871 18.584 44.0648 18.584 44.4084V67.7914C18.584 68.135 18.8626 68.4127 19.2063 68.4127H22.1548C22.4981 68.4127 22.7771 68.135 22.7771 67.7914V66.4719H31.5927V67.7395C31.5927 68.0831 31.8713 68.3608 32.215 68.3608C32.5583 68.3608 32.8374 68.0831 32.8374 67.7395V66.4719H41.2775V67.7914C41.2775 68.135 41.5561 68.4127 41.8999 68.4127H44.8483C45.1916 68.4127 45.4707 68.135 45.4707 67.7914V66.4719H54.2862V67.7395C54.2862 68.0831 54.5648 68.3608 54.9086 68.3608C55.2518 68.3608 55.5309 68.0831 55.5309 67.7395V66.4719H64.0769V67.7914C64.0769 68.135 64.3555 68.4127 64.6993 68.4127H67.6477C67.991 68.4127 68.2701 68.135 68.2701 67.7914L68.2683 44.4084C68.2683 44.0652 67.9897 43.7875 67.646 43.7875L67.6458 43.7871ZM64.0754 55.4786H61.8152C61.8312 54.9713 61.8013 54.6295 61.797 54.5866C61.7679 54.2834 61.5227 54.0464 61.2185 54.0265C61.1191 54.0222 59.3962 53.9251 57.727 54.6009C57.9019 54.088 58.0165 53.5391 58.0221 52.9608C58.0252 52.5765 57.9787 52.2035 57.9002 51.8449H64.0758L64.0754 55.4786ZM54.2643 60.4741C53.3607 60.4646 51.5767 60.2961 50.4457 59.1996C49.3203 58.1092 49.0956 56.3282 49.0578 55.4259C49.9605 55.4358 51.7451 55.6048 52.876 56.7008C54.0013 57.7917 54.2265 59.5722 54.2643 60.4741ZM55.5285 60.4659V60.144C55.5754 59.1862 55.8136 57.6621 56.794 56.6544C57.8864 55.5302 59.6705 55.3062 60.5744 55.2681C60.5649 56.1692 60.3961 57.951 59.2977 59.08C58.2097 60.2003 56.436 60.4269 55.5285 60.4658V60.4659ZM56.7775 52.9503C56.7627 54.62 55.5406 56.099 54.8844 56.7735C54.24 56.089 53.0465 54.594 53.0617 52.9174C53.0765 51.2477 54.2986 49.7687 54.9548 49.0942C55.5984 49.7778 56.7923 51.2732 56.7775 52.9503ZM52.1621 54.7846C50.3883 54.0286 48.4789 54.1945 48.3751 54.2062C48.0713 54.2353 47.8331 54.4796 47.8131 54.7837C47.8105 54.8205 47.7962 55.0831 47.8127 55.4786H45.4691V51.8447H51.9437C51.866 52.1861 51.8191 52.5405 51.8161 52.9061C51.8105 53.5728 51.9493 54.2036 52.162 54.7846L52.1621 54.7846ZM45.4692 56.7211H47.9473C48.1391 57.8028 48.5796 59.1228 49.5791 60.0916C49.757 60.2636 49.9462 60.4156 50.1415 60.5538H45.4692L45.4692 56.7211ZM60.191 59.9446C61.105 59.005 61.5126 57.7699 61.69 56.7206H64.0752V60.5534H59.4606C59.7176 60.3771 59.9645 60.1778 60.191 59.9447L60.191 59.9446ZM64.0752 46.9699V50.6034H57.4791C56.7257 48.955 55.4446 47.8278 55.3682 47.7615C55.1369 47.5613 54.7957 47.5583 54.5618 47.7541C54.4833 47.8199 53.1601 48.9445 52.3806 50.6033H45.469V46.9699L64.0752 46.9699ZM41.2764 55.4784H39.1225C39.1385 54.9711 39.1086 54.6293 39.1042 54.5864C39.0752 54.2831 38.83 54.0462 38.5258 54.0262C38.4264 54.0219 36.7035 53.9249 35.0343 54.6007C35.2092 54.0878 35.3238 53.5389 35.3294 52.9605C35.3333 52.5763 35.2865 52.2033 35.2075 51.8446H41.2772L41.2768 55.4785L41.2764 55.4784ZM31.5712 60.4725C30.666 60.4608 28.878 60.2893 27.7526 59.1994C26.6273 58.1094 26.4025 56.3301 26.3639 55.4277C27.2692 55.439 29.0572 55.6101 30.1825 56.7009C31.3083 57.7909 31.5335 59.5697 31.5712 60.4725ZM32.8363 60.4656V60.1974C32.878 59.2422 33.1071 57.6778 34.1019 56.6542C35.1942 55.5299 36.9784 55.306 37.8823 55.2678C37.8727 56.1689 37.7039 57.9507 36.6055 59.0797C35.5166 60.2001 33.7434 60.4267 32.8363 60.4656ZM34.0844 52.9501C34.0697 54.6197 32.8476 56.0983 32.1914 56.7733C31.5469 56.0888 30.3535 54.5938 30.3687 52.9171C30.3834 51.2475 31.6056 49.7689 32.2617 49.0939C32.9058 49.7775 34.0992 51.273 34.0844 52.9501ZM29.4699 54.7847C27.6966 54.0296 25.7875 54.1956 25.6821 54.206C25.3783 54.235 25.14 54.4793 25.12 54.7834C25.1174 54.8203 25.1031 55.0828 25.1196 55.4783H22.7765V51.8444H29.2511C29.1734 52.1858 29.1265 52.5402 29.1235 52.9058C29.1183 53.5725 29.2567 54.2033 29.4698 54.7846L29.4699 54.7847ZM22.7766 56.7208H25.2542C25.446 57.8026 25.8865 59.1225 26.8868 60.0913C27.0648 60.2633 27.254 60.4153 27.4493 60.5535H22.777L22.7766 56.7208ZM37.4984 59.9444C38.4124 59.0047 38.82 57.7696 38.9974 56.7204H41.2771V60.5531H36.7685C37.0254 60.3768 37.2719 60.1775 37.4985 59.9444L37.4984 59.9444ZM41.2767 46.9696V50.6031H34.7865C34.0331 48.9547 32.752 47.8275 32.6756 47.7612C32.4447 47.561 32.1032 47.558 31.8692 47.7538C31.7907 47.8197 30.4675 48.9443 29.688 50.6031H22.7768V46.9696L41.2767 46.9696ZM21.5331 67.1687H19.8289V45.0288H21.5331V67.1687ZM22.7773 65.2278V61.7946H31.5929V65.2278H22.7773ZM32.8371 65.2278V61.7946H41.2773V65.2278H32.8371ZM44.2249 67.1687H42.5206L42.521 45.0288H44.2253L44.2249 67.1687ZM45.4695 65.2278V61.7946H54.2851V65.2278H45.4695ZM55.5288 65.2278V61.7946H64.0748V65.2278H55.5288ZM67.0243 67.1687H65.3201V45.0288H67.0243V67.1687Z" fill="#05352E"/>
<path d="M48.6123 29.344C48.6123 26.5146 46.3061 24.2129 43.4722 24.2129C40.6382 24.2129 38.332 26.5146 38.332 29.344C38.332 32.1734 40.6382 34.4759 43.4722 34.4759C46.3057 34.4759 48.6123 32.1733 48.6123 29.344ZM43.4717 33.2339C41.3235 33.2339 39.5759 31.4889 39.5759 29.344C39.5759 27.1995 41.3235 25.455 43.4717 25.455C45.62 25.455 47.3676 27.1995 47.3676 29.344C47.3676 31.4884 45.62 33.2339 43.4717 33.2339Z" fill="#05352E"/>
<path d="M44.0943 21.925V19.3478C44.0943 19.0043 43.8157 18.7266 43.4719 18.7266C43.1287 18.7266 42.8496 19.0043 42.8496 19.3478V21.925C42.8496 22.2685 43.1282 22.5462 43.4719 22.5462C43.8157 22.5462 44.0943 22.2681 44.0943 21.925Z" fill="#05352E"/>
<path d="M39.7901 23.5201C39.8947 23.5201 40.0006 23.4941 40.0973 23.4386C40.3959 23.2692 40.5001 22.8889 40.33 22.5917L39.0514 20.3527C38.8809 20.0551 38.5007 19.9507 38.203 20.1205C37.9044 20.2899 37.8002 20.6703 37.9704 20.9675L39.2489 23.2064C39.3635 23.407 39.574 23.52 39.7901 23.52V23.5201Z" fill="#05352E"/>
<path d="M37.3934 25.0311L35.1719 23.7175C34.8759 23.5429 34.4944 23.6404 34.3195 23.9354C34.1442 24.2309 34.2418 24.6117 34.5378 24.7863L36.7594 26.0998C36.8588 26.1587 36.9677 26.1869 37.0762 26.1869C37.2888 26.1869 37.4963 26.0782 37.6117 25.8828C37.7866 25.586 37.689 25.2057 37.3934 25.0311V25.0311Z" fill="#05352E"/>
<path d="M36.0392 29.8416C36.3777 29.8416 36.655 29.5704 36.6616 29.2312C36.6672 28.8885 36.3933 28.6056 36.0501 28.5995L33.4688 28.5566H33.4584C33.1198 28.5566 32.8425 28.8278 32.836 29.167C32.8304 29.5097 33.1042 29.7926 33.4475 29.7987L36.0288 29.8416H36.0392Z" fill="#05352E"/>
<path d="M34.6886 34.7703C34.7901 34.7703 34.8921 34.7461 34.9872 34.6941L37.2513 33.455C37.5524 33.29 37.6631 32.9127 37.4978 32.6124C37.3316 32.3113 36.954 32.2 36.6528 32.3664L34.3887 33.6054C34.0875 33.7704 33.9768 34.1478 34.1422 34.448C34.2555 34.6542 34.469 34.7703 34.6886 34.7703V34.7703Z" fill="#05352E"/>
<path d="M37.8993 38.3894C38.0012 38.4523 38.1132 38.4813 38.2247 38.4813C38.4339 38.4813 38.6379 38.3764 38.7555 38.185L40.1083 35.9894C40.2888 35.6974 40.1972 35.3149 39.9043 35.1355C39.6114 34.9553 39.2281 35.0463 39.0489 35.3391L37.6962 37.5347C37.5156 37.8275 37.6072 38.2101 37.8993 38.3894V38.3894Z" fill="#05352E"/>
<path d="M42.6019 36.7391L42.516 39.3146C42.5043 39.6573 42.7738 39.945 43.1171 39.9554C43.124 39.9558 43.131 39.9558 43.1383 39.9558C43.4725 39.9558 43.7485 39.6911 43.7598 39.3554L43.8457 36.7798C43.8574 36.4371 43.5879 36.1495 43.2447 36.1391C42.9005 36.1265 42.6136 36.3956 42.6019 36.7391Z" fill="#05352E"/>
<path d="M47.5875 38.4779C47.6991 38.6889 47.9148 38.8097 48.1387 38.8097C48.2363 38.8097 48.3353 38.7868 48.4282 38.7383C48.7324 38.5788 48.8487 38.2028 48.689 37.8991L47.4856 35.6187C47.3259 35.3163 46.95 35.1989 46.6449 35.3583C46.3407 35.5178 46.2244 35.8938 46.3841 36.1975L47.5875 38.4779Z" fill="#05352E"/>
<path d="M49.4008 33.8594L51.5777 35.2457C51.6814 35.3116 51.7973 35.3432 51.9119 35.3432C52.1171 35.3432 52.3181 35.2418 52.437 35.0564C52.6219 34.767 52.5372 34.3832 52.2473 34.1986L50.0705 32.8123C49.781 32.6278 49.396 32.7131 49.2112 33.0017C49.0263 33.2911 49.1109 33.6753 49.4008 33.8594Z" fill="#05352E"/>
<path d="M53.4734 30.4649C53.8023 30.4649 54.0775 30.2072 54.0944 29.8749C54.1118 29.5322 53.8475 29.2406 53.5046 29.2233L50.925 29.0942C50.5852 29.0812 50.2896 29.3407 50.2723 29.6834C50.2549 30.0261 50.5192 30.3176 50.8621 30.335L53.4408 30.4641C53.4521 30.4649 53.4629 30.4649 53.4734 30.4649L53.4734 30.4649Z" fill="#05352E"/>
<path d="M49.5484 26.2752C49.6577 26.4918 49.8769 26.6161 50.1048 26.6161C50.1985 26.6161 50.2953 26.5949 50.3847 26.5498L52.6891 25.3871C52.9959 25.2324 53.1183 24.8586 52.9634 24.5523C52.808 24.246 52.4339 24.1225 52.1271 24.2785L49.8227 25.4412C49.5167 25.5959 49.3935 25.9693 49.5484 26.2752V26.2752Z" fill="#05352E"/>
<path d="M49.3422 20.4902C49.0562 20.3009 48.6695 20.3784 48.4799 20.6652L47.0547 22.8149C46.8651 23.1003 46.9432 23.4863 47.23 23.6757C47.3351 23.7454 47.4548 23.7788 47.5729 23.7788C47.7742 23.7788 47.973 23.6813 48.0924 23.5006L49.5175 21.351C49.7072 21.0655 49.6291 20.6795 49.3422 20.4902V20.4902Z" fill="#05352E"/>
</svg>
