<svg width="43" height="22" viewBox="0 0 43 22" fill="none" xmlns="http://www.w3.org/2000/svg">
<rect x="0.5" y="1.24219" width="42" height="19" rx="5.68377" fill="#D7DF23"/>
<path d="M12.2769 8.80078C12.2437 8.49065 12.104 8.24917 11.8578 8.07635C11.614 7.90353 11.2968 7.81712 10.9061 7.81712C10.6315 7.81712 10.3959 7.85855 10.1995 7.94141C10.003 8.02427 9.85262 8.13672 9.74846 8.27876C9.64429 8.42081 9.59102 8.58298 9.58866 8.76527C9.58866 8.91679 9.62298 9.04818 9.69164 9.15945C9.76266 9.27071 9.85854 9.36541 9.97928 9.44354C10.1 9.51929 10.2338 9.58321 10.3806 9.6353C10.5273 9.68738 10.6753 9.73118 10.8245 9.76669L11.5063 9.93714C11.7809 10.0011 12.0449 10.0875 12.2982 10.1964C12.5539 10.3053 12.7823 10.4426 12.9835 10.6083C13.1871 10.774 13.3481 10.9741 13.4665 11.2085C13.5849 11.4428 13.6441 11.7174 13.6441 12.0323C13.6441 12.4585 13.5352 12.8337 13.3173 13.158C13.0995 13.48 12.7847 13.7321 12.3727 13.9144C11.9632 14.0943 11.4672 14.1843 10.8848 14.1843C10.319 14.1843 9.82777 14.0967 9.4111 13.9215C8.9968 13.7463 8.67246 13.4906 8.43809 13.1545C8.20608 12.8183 8.08061 12.4087 8.06167 11.9258H9.35783C9.37677 12.1791 9.4549 12.3898 9.59221 12.5579C9.72952 12.726 9.90826 12.8514 10.1284 12.9343C10.351 13.0172 10.5995 13.0586 10.8742 13.0586C11.1606 13.0586 11.4116 13.016 11.627 12.9308C11.8448 12.8432 12.0153 12.7224 12.1384 12.5685C12.2615 12.4123 12.3242 12.23 12.3266 12.0217C12.3242 11.8323 12.2686 11.676 12.1597 11.5529C12.0508 11.4274 11.8981 11.3233 11.7016 11.2404C11.5075 11.1552 11.2802 11.0794 11.0198 11.0131L10.1923 10.8001C9.59339 10.6462 9.11991 10.413 8.7719 10.1005C8.42625 9.78563 8.25343 9.36778 8.25343 8.84695C8.25343 8.41844 8.36943 8.04321 8.60144 7.72124C8.83582 7.39927 9.15423 7.1495 9.5567 6.97195C9.95916 6.79202 10.4149 6.70206 10.9239 6.70206C11.44 6.70206 11.8922 6.79202 12.2804 6.97195C12.671 7.1495 12.9776 7.3969 13.2002 7.71413C13.4227 8.029 13.5375 8.39122 13.5446 8.80078H12.2769ZM16.3314 14.1843C15.9857 14.1843 15.6744 14.1228 15.3974 13.9996C15.1228 13.8742 14.905 13.6895 14.744 13.4457C14.5854 13.2018 14.5061 12.9012 14.5061 12.5437C14.5061 12.2359 14.5629 11.9814 14.6765 11.7802C14.7902 11.579 14.9452 11.418 15.1417 11.2972C15.3382 11.1765 15.5596 11.0853 15.8058 11.0238C16.0544 10.9599 16.3113 10.9137 16.5764 10.8853C16.896 10.8522 17.1552 10.8226 17.3541 10.7965C17.553 10.7681 17.6974 10.7255 17.7873 10.6687C17.8797 10.6095 17.9258 10.5183 17.9258 10.3952V10.3739C17.9258 10.1064 17.8465 9.89927 17.6879 9.75249C17.5293 9.60571 17.3008 9.53232 17.0025 9.53232C16.6877 9.53232 16.4379 9.60097 16.2533 9.73828C16.071 9.87559 15.9479 10.0378 15.8839 10.2248L14.6836 10.0543C14.7783 9.72289 14.9346 9.4459 15.1524 9.22337C15.3702 8.99846 15.6365 8.83037 15.9514 8.71911C16.2663 8.60547 16.6143 8.54865 16.9954 8.54865C17.2582 8.54865 17.5198 8.57943 17.7802 8.64098C18.0407 8.70253 18.2786 8.80433 18.494 8.94638C18.7095 9.08606 18.8823 9.27663 19.0125 9.51811C19.1451 9.75959 19.2113 10.0614 19.2113 10.4237V14.0742H17.9756V13.3249H17.9329C17.8548 13.4764 17.7447 13.6185 17.6027 13.7511C17.463 13.8813 17.2866 13.9866 17.0736 14.0671C16.8629 14.1452 16.6155 14.1843 16.3314 14.1843ZM16.6652 13.2397C16.9232 13.2397 17.147 13.1888 17.3363 13.087C17.5257 12.9828 17.6713 12.8455 17.7731 12.6751C17.8773 12.5046 17.9294 12.3188 17.9294 12.1175V11.4748C17.8891 11.5079 17.8205 11.5387 17.7234 11.5671C17.6287 11.5955 17.5222 11.6204 17.4038 11.6417C17.2854 11.663 17.1683 11.6819 17.0523 11.6985C16.9363 11.7151 16.8356 11.7293 16.7504 11.7411C16.5586 11.7672 16.387 11.8098 16.2355 11.869C16.084 11.9281 15.9644 12.011 15.8768 12.1175C15.7892 12.2217 15.7454 12.3567 15.7454 12.5224C15.7454 12.7591 15.8319 12.9379 16.0047 13.0586C16.1775 13.1793 16.3977 13.2397 16.6652 13.2397ZM21.7895 6.80149V14.0742H20.504V6.80149H21.7895ZM24.681 14.1843C24.3353 14.1843 24.024 14.1228 23.747 13.9996C23.4724 13.8742 23.2546 13.6895 23.0936 13.4457C22.935 13.2018 22.8557 12.9012 22.8557 12.5437C22.8557 12.2359 22.9125 11.9814 23.0262 11.7802C23.1398 11.579 23.2949 11.418 23.4914 11.2972C23.6879 11.1765 23.9092 11.0853 24.1554 11.0238C24.404 10.9599 24.6609 10.9137 24.926 10.8853C25.2456 10.8522 25.5048 10.8226 25.7037 10.7965C25.9026 10.7681 26.047 10.7255 26.137 10.6687C26.2293 10.6095 26.2754 10.5183 26.2754 10.3952V10.3739C26.2754 10.1064 26.1961 9.89927 26.0375 9.75249C25.8789 9.60571 25.6504 9.53232 25.3522 9.53232C25.0373 9.53232 24.7875 9.60097 24.6029 9.73828C24.4206 9.87559 24.2975 10.0378 24.2335 10.2248L23.0333 10.0543C23.128 9.72289 23.2842 9.4459 23.502 9.22337C23.7198 8.99846 23.9861 8.83037 24.301 8.71911C24.6159 8.60547 24.9639 8.54865 25.345 8.54865C25.6078 8.54865 25.8694 8.57943 26.1298 8.64098C26.3903 8.70253 26.6282 8.80433 26.8436 8.94638C27.0591 9.08606 27.2319 9.27663 27.3621 9.51811C27.4947 9.75959 27.561 10.0614 27.561 10.4237V14.0742H26.3252V13.3249H26.2825C26.2044 13.4764 26.0943 13.6185 25.9523 13.7511C25.8126 13.8813 25.6362 13.9866 25.4232 14.0671C25.2125 14.1452 24.9651 14.1843 24.681 14.1843ZM25.0148 13.2397C25.2728 13.2397 25.4966 13.1888 25.686 13.087C25.8754 12.9828 26.0209 12.8455 26.1227 12.6751C26.2269 12.5046 26.279 12.3188 26.279 12.1175V11.4748C26.2388 11.5079 26.1701 11.5387 26.073 11.5671C25.9783 11.5955 25.8718 11.6204 25.7534 11.6417C25.6351 11.663 25.5179 11.6819 25.4019 11.6985C25.2859 11.7151 25.1852 11.7293 25.1 11.7411C24.9083 11.7672 24.7366 11.8098 24.5851 11.869C24.4336 11.9281 24.314 12.011 24.2264 12.1175C24.1388 12.2217 24.095 12.3567 24.095 12.5224C24.095 12.7591 24.1815 12.9379 24.3543 13.0586C24.5271 13.1793 24.7473 13.2397 25.0148 13.2397ZM30.8777 14.1701C30.4492 14.1701 30.0657 14.06 29.7272 13.8398C29.3886 13.6197 29.1211 13.3001 28.9246 12.881C28.7281 12.462 28.6298 11.953 28.6298 11.354C28.6298 10.748 28.7293 10.2366 28.9281 9.81996C29.1294 9.40092 29.4004 9.08487 29.7414 8.8718C30.0823 8.65637 30.4622 8.54865 30.8813 8.54865C31.2009 8.54865 31.4637 8.6031 31.6696 8.712C31.8756 8.81854 32.0389 8.94756 32.1597 9.09908C32.2804 9.24822 32.3739 9.38909 32.4402 9.52166H32.4935V6.80149H33.7825V14.0742H32.5183V13.2148H32.4402C32.3739 13.3474 32.2781 13.4883 32.1526 13.6374C32.0271 13.7842 31.8614 13.9097 31.6554 14.0138C31.4495 14.118 31.1902 14.1701 30.8777 14.1701ZM31.2364 13.1154C31.5086 13.1154 31.7406 13.042 31.9324 12.8952C32.1242 12.7461 32.2698 12.5389 32.3692 12.2738C32.4686 12.0086 32.5183 11.6997 32.5183 11.3469C32.5183 10.9942 32.4686 10.6876 32.3692 10.4272C32.2721 10.1668 32.1277 9.96437 31.936 9.81996C31.7466 9.67554 31.5134 9.60334 31.2364 9.60334C30.9499 9.60334 30.7108 9.67791 30.5191 9.82706C30.3273 9.97621 30.1829 10.1822 30.0858 10.445C29.9888 10.7077 29.9402 11.0084 29.9402 11.3469C29.9402 11.6879 29.9888 11.9921 30.0858 12.2596C30.1852 12.5247 30.3308 12.7343 30.5226 12.8881C30.7167 13.0397 30.9547 13.1154 31.2364 13.1154Z" fill="#05352E"/>
</svg>
