<svg width="43" height="22" viewBox="0 0 43 22" fill="none" xmlns="http://www.w3.org/2000/svg">
<rect x="0.5" y="1.24219" width="42" height="19" rx="5.68377" fill="#D7DF23"/>
<path d="M11.6381 6.80149H12.9449V11.9151C12.9426 12.3839 12.8431 12.7875 12.6466 13.1261C12.4501 13.4622 12.1755 13.7215 11.8228 13.9038C11.4724 14.0837 11.064 14.1737 10.5976 14.1737C10.1715 14.1737 9.78796 14.0979 9.44705 13.9464C9.10851 13.7925 8.83981 13.5652 8.64095 13.2646C8.44208 12.9639 8.34265 12.5898 8.34265 12.1424H9.65302C9.65539 12.3389 9.698 12.5082 9.78086 12.6502C9.86609 12.7923 9.98328 12.9012 10.1324 12.9769C10.2816 13.0527 10.4532 13.0906 10.6473 13.0906C10.858 13.0906 11.0368 13.0468 11.1836 12.9592C11.3303 12.8692 11.4416 12.7366 11.5174 12.5614C11.5955 12.3862 11.6357 12.1708 11.6381 11.9151V6.80149ZM17.794 11.7802V8.61967H19.0795V14.0742H17.8331V13.1048H17.7762C17.6531 13.4102 17.4507 13.6599 17.169 13.854C16.8896 14.0482 16.5452 14.1452 16.1356 14.1452C15.7781 14.1452 15.4621 14.0659 15.1875 13.9073C14.9152 13.7463 14.7021 13.5131 14.5483 13.2077C14.3944 12.9 14.3174 12.5283 14.3174 12.0927V8.61967H15.6029V11.8938C15.6029 12.2395 15.6976 12.5141 15.887 12.7177C16.0764 12.9213 16.325 13.0231 16.6328 13.0231C16.8222 13.0231 17.0056 12.9769 17.1832 12.8846C17.3608 12.7923 17.5064 12.6549 17.62 12.4727C17.736 12.288 17.794 12.0572 17.794 11.7802ZM20.4014 14.0742V8.61967H21.6869V14.0742H20.4014ZM21.0477 7.84553C20.8441 7.84553 20.6689 7.77805 20.5222 7.64311C20.3754 7.5058 20.302 7.34126 20.302 7.1495C20.302 6.95537 20.3754 6.79084 20.5222 6.65589C20.6689 6.51858 20.8441 6.44993 21.0477 6.44993C21.2537 6.44993 21.4289 6.51858 21.5733 6.65589C21.7201 6.79084 21.7935 6.95537 21.7935 7.1495C21.7935 7.34126 21.7201 7.5058 21.5733 7.64311C21.4289 7.77805 21.2537 7.84553 21.0477 7.84553ZM25.3881 14.1808C24.8436 14.1808 24.376 14.0612 23.9854 13.8221C23.5971 13.583 23.2977 13.2527 23.087 12.8313C22.8786 12.4076 22.7745 11.9199 22.7745 11.3683C22.7745 10.8143 22.881 10.3254 23.0941 9.90163C23.3071 9.4755 23.6078 9.14406 23.9961 8.90732C24.3867 8.66821 24.8483 8.54865 25.381 8.54865C25.8237 8.54865 26.2155 8.63033 26.5564 8.79368C26.8997 8.95466 27.1731 9.18312 27.3767 9.47905C27.5803 9.77261 27.6963 10.1159 27.7248 10.5089H26.4961C26.4463 10.2461 26.328 10.0271 26.1409 9.85192C25.9563 9.67436 25.7089 9.58558 25.3988 9.58558C25.136 9.58558 24.9052 9.6566 24.7063 9.79865C24.5074 9.93833 24.3524 10.1396 24.2411 10.4023C24.1322 10.6651 24.0777 10.98 24.0777 11.3469C24.0777 11.7186 24.1322 12.0382 24.2411 12.3058C24.35 12.5709 24.5027 12.7757 24.6992 12.9201C24.898 13.0621 25.1312 13.1332 25.3988 13.1332C25.5882 13.1332 25.7574 13.0977 25.9066 13.0266C26.0581 12.9532 26.1847 12.8479 26.2865 12.7106C26.3883 12.5733 26.4582 12.4064 26.4961 12.2099H27.7248C27.694 12.5958 27.5803 12.9379 27.3838 13.2362C27.1873 13.5321 26.9198 13.7641 26.5813 13.9322C26.2427 14.0979 25.845 14.1808 25.3881 14.1808ZM31.1951 14.1808C30.6482 14.1808 30.1759 14.0671 29.7782 13.8398C29.3828 13.6102 29.0786 13.2859 28.8656 12.8668C28.6525 12.4454 28.546 11.9495 28.546 11.3789C28.546 10.8178 28.6525 10.3254 28.8656 9.90163C29.081 9.4755 29.3817 9.14406 29.7675 8.90732C30.1534 8.66821 30.6068 8.54865 31.1276 8.54865C31.4638 8.54865 31.781 8.6031 32.0793 8.712C32.38 8.81854 32.6451 8.98426 32.8748 9.20916C33.1068 9.43407 33.2891 9.72053 33.4217 10.0685C33.5542 10.4142 33.6205 10.8261 33.6205 11.3043V11.6985H29.1496V10.832H32.3883C32.3859 10.5858 32.3326 10.3668 32.2285 10.1751C32.1243 9.98094 31.9787 9.82824 31.7917 9.71697C31.607 9.60571 31.3916 9.55007 31.1454 9.55007C30.8826 9.55007 30.6518 9.61399 30.4529 9.74183C30.2541 9.86731 30.099 10.033 29.9877 10.239C29.8788 10.4426 29.8232 10.6663 29.8208 10.9102V11.6665C29.8208 11.9838 29.8788 12.256 29.9948 12.4833C30.1108 12.7082 30.273 12.881 30.4813 13.0018C30.6897 13.1201 30.9335 13.1793 31.2129 13.1793C31.3999 13.1793 31.5692 13.1533 31.7207 13.1012C31.8722 13.0468 32.0036 12.9674 32.1148 12.8633C32.2261 12.7591 32.3102 12.6301 32.367 12.4762L33.5673 12.6112C33.4915 12.9284 33.3471 13.2054 33.134 13.4421C32.9233 13.6765 32.6534 13.8588 32.3244 13.989C31.9953 14.1168 31.6189 14.1808 31.1951 14.1808Z" fill="#05352E"/>
</svg>
