<svg width="43" height="22" viewBox="0 0 43 22" fill="none" xmlns="http://www.w3.org/2000/svg">
<rect x="0.5" y="1.24219" width="42" height="19" rx="5.68377" fill="#D7DF23"/>
<path d="M13.7439 6.80149H15.0614V11.5529C15.0614 12.0737 14.9383 12.5318 14.6921 12.9272C14.4482 13.3226 14.105 13.6315 13.6623 13.854C13.2195 14.0742 12.7023 14.1843 12.1104 14.1843C11.5162 14.1843 10.9977 14.0742 10.555 13.854C10.1123 13.6315 9.76902 13.3226 9.52518 12.9272C9.28134 12.5318 9.15941 12.0737 9.15941 11.5529V6.80149H10.4769V11.4428C10.4769 11.7459 10.5432 12.0157 10.6757 12.2525C10.8107 12.4892 11.0001 12.6751 11.2439 12.81C11.4878 12.9426 11.7766 13.0089 12.1104 13.0089C12.4442 13.0089 12.733 12.9426 12.9769 12.81C13.2231 12.6751 13.4125 12.4892 13.5451 12.2525C13.6776 12.0157 13.7439 11.7459 13.7439 11.4428V6.80149ZM16.4366 14.0742V8.61967H17.6653V9.54652H17.7292C17.8428 9.23402 18.031 8.99018 18.2938 8.81499C18.5566 8.63743 18.8703 8.54865 19.2349 8.54865C19.6042 8.54865 19.9155 8.63861 20.1688 8.81854C20.4245 8.99609 20.6044 9.23875 20.7086 9.54652H20.7654C20.8862 9.24349 21.0898 9.00201 21.3762 8.82209C21.665 8.6398 22.0071 8.54865 22.4025 8.54865C22.9044 8.54865 23.3139 8.70727 23.6312 9.0245C23.9484 9.34174 24.107 9.80457 24.107 10.413V14.0742H22.818V10.6119C22.818 10.2733 22.728 10.0259 22.5481 9.86967C22.3682 9.71106 22.148 9.63175 21.8876 9.63175C21.5774 9.63175 21.3348 9.72881 21.1596 9.92294C20.9868 10.1147 20.9004 10.3645 20.9004 10.6722V14.0742H19.6397V10.5586C19.6397 10.2769 19.5545 10.052 19.384 9.88388C19.2159 9.71579 18.9958 9.63175 18.7235 9.63175C18.5389 9.63175 18.3708 9.6791 18.2192 9.77379C18.0677 9.86612 17.947 9.99751 17.857 10.168C17.7671 10.3361 17.7221 10.5326 17.7221 10.7575V14.0742H16.4366ZM25.468 14.0742V6.80149H26.7535V9.52166H26.8068C26.8731 9.38909 26.9666 9.24822 27.0873 9.09908C27.2081 8.94756 27.3714 8.81854 27.5774 8.712C27.7833 8.6031 28.0461 8.54865 28.3657 8.54865C28.7871 8.54865 29.1671 8.65637 29.5056 8.8718C29.8466 9.08487 30.1164 9.40092 30.3153 9.81996C30.5165 10.2366 30.6172 10.748 30.6172 11.354C30.6172 11.953 30.5189 12.462 30.3224 12.881C30.1259 13.3001 29.8584 13.6197 29.5199 13.8398C29.1813 14.06 28.7978 14.1701 28.3693 14.1701C28.0568 14.1701 27.7976 14.118 27.5916 14.0138C27.3856 13.9097 27.2199 13.7842 27.0944 13.6374C26.9713 13.4883 26.8754 13.3474 26.8068 13.2148H26.7322V14.0742H25.468ZM26.7287 11.3469C26.7287 11.6997 26.7784 12.0086 26.8778 12.2738C26.9796 12.5389 27.1252 12.7461 27.3146 12.8952C27.5064 13.042 27.7384 13.1154 28.0106 13.1154C28.2947 13.1154 28.5326 13.0397 28.7244 12.8881C28.9162 12.7343 29.0606 12.5247 29.1576 12.2596C29.2571 11.9921 29.3068 11.6879 29.3068 11.3469C29.3068 11.0084 29.2583 10.7077 29.1612 10.445C29.0641 10.1822 28.9197 9.97621 28.7279 9.82706C28.5362 9.67791 28.2971 9.60334 28.0106 9.60334C27.736 9.60334 27.5028 9.67554 27.311 9.81996C27.1193 9.96437 26.9737 10.1668 26.8743 10.4272C26.7772 10.6876 26.7287 10.9942 26.7287 11.3469ZM31.71 14.0742V8.61967H32.9955V14.0742H31.71ZM32.3563 7.84553C32.1527 7.84553 31.9775 7.77805 31.8308 7.64311C31.684 7.5058 31.6106 7.34126 31.6106 7.1495C31.6106 6.95537 31.684 6.79084 31.8308 6.65589C31.9775 6.51858 32.1527 6.44993 32.3563 6.44993C32.5623 6.44993 32.7375 6.51858 32.8819 6.65589C33.0287 6.79084 33.1021 6.95537 33.1021 7.1495C33.1021 7.34126 33.0287 7.5058 32.8819 7.64311C32.7375 7.77805 32.5623 7.84553 32.3563 7.84553Z" fill="#05352E"/>
</svg>
