<svg width="43" height="22" viewBox="0 0 43 22" fill="none" xmlns="http://www.w3.org/2000/svg">
<rect x="0.5" y="1.24219" width="42" height="19" rx="5.68377" fill="#D7DF23"/>
<path d="M9.52074 14.0742V6.80149H14.1798V7.90589H10.8382V9.88033H13.8602V10.9847H10.8382V14.0742H9.52074ZM16.8441 14.1843C16.4984 14.1843 16.1871 14.1228 15.9101 13.9996C15.6355 13.8742 15.4177 13.6895 15.2567 13.4457C15.0981 13.2018 15.0188 12.9012 15.0188 12.5437C15.0188 12.2359 15.0756 11.9814 15.1892 11.7802C15.3029 11.579 15.4579 11.418 15.6544 11.2972C15.8509 11.1765 16.0723 11.0853 16.3185 11.0238C16.5671 10.9599 16.8239 10.9137 17.0891 10.8853C17.4087 10.8522 17.6679 10.8226 17.8668 10.7965C18.0657 10.7681 18.2101 10.7255 18.3 10.6687C18.3924 10.6095 18.4385 10.5183 18.4385 10.3952V10.3739C18.4385 10.1064 18.3592 9.89927 18.2006 9.75249C18.042 9.60571 17.8135 9.53232 17.5152 9.53232C17.2004 9.53232 16.9506 9.60097 16.7659 9.73828C16.5837 9.87559 16.4605 10.0378 16.3966 10.2248L15.1963 10.0543C15.291 9.72289 15.4473 9.4459 15.6651 9.22337C15.8829 8.99846 16.1492 8.83037 16.4641 8.71911C16.779 8.60547 17.127 8.54865 17.5081 8.54865C17.7709 8.54865 18.0325 8.57943 18.2929 8.64098C18.5534 8.70253 18.7913 8.80433 19.0067 8.94638C19.2221 9.08606 19.395 9.27663 19.5252 9.51811C19.6578 9.75959 19.724 10.0614 19.724 10.4237V14.0742H18.4882V13.3249H18.4456C18.3675 13.4764 18.2574 13.6185 18.1154 13.7511C17.9757 13.8813 17.7993 13.9866 17.5863 14.0671C17.3756 14.1452 17.1282 14.1843 16.8441 14.1843ZM17.1779 13.2397C17.4359 13.2397 17.6596 13.1888 17.849 13.087C18.0384 12.9828 18.184 12.8455 18.2858 12.6751C18.39 12.5046 18.4421 12.3188 18.4421 12.1175V11.4748C18.4018 11.5079 18.3332 11.5387 18.2361 11.5671C18.1414 11.5955 18.0349 11.6204 17.9165 11.6417C17.7981 11.663 17.681 11.6819 17.565 11.6985C17.4489 11.7151 17.3483 11.7293 17.2631 11.7411C17.0713 11.7672 16.8997 11.8098 16.7482 11.869C16.5967 11.9281 16.4771 12.011 16.3895 12.1175C16.3019 12.2217 16.2581 12.3567 16.2581 12.5224C16.2581 12.7591 16.3445 12.9379 16.5174 13.0586C16.6902 13.1793 16.9104 13.2397 17.1779 13.2397ZM21.0167 14.0742V8.61967H22.2631V9.52876H22.3199C22.4194 9.2139 22.5898 8.97124 22.8313 8.80078C23.0751 8.62796 23.3533 8.54155 23.6658 8.54155C23.7368 8.54155 23.8161 8.5451 23.9037 8.5522C23.9937 8.55694 24.0683 8.56522 24.1275 8.57706V9.75959C24.073 9.74065 23.9866 9.72408 23.8682 9.70987C23.7522 9.6933 23.6398 9.68501 23.5309 9.68501C23.2965 9.68501 23.0858 9.73591 22.8988 9.83771C22.7141 9.93714 22.5685 10.0756 22.462 10.2532C22.3554 10.4308 22.3022 10.6355 22.3022 10.8675V14.0742H21.0167ZM24.9815 14.0742V8.61967H26.2102V9.54652H26.2741C26.3878 9.23402 26.576 8.99018 26.8387 8.81499C27.1015 8.63743 27.4152 8.54865 27.7798 8.54865C28.1491 8.54865 28.4604 8.63861 28.7137 8.81854C28.9694 8.99609 29.1494 9.23875 29.2535 9.54652H29.3103C29.4311 9.24349 29.6347 9.00201 29.9211 8.82209C30.21 8.6398 30.5521 8.54865 30.9474 8.54865C31.4493 8.54865 31.8589 8.70727 32.1761 9.0245C32.4933 9.34174 32.652 9.80457 32.652 10.413V14.0742H31.3629V10.6119C31.3629 10.2733 31.2729 10.0259 31.093 9.86967C30.9131 9.71106 30.6929 9.63175 30.4325 9.63175C30.1224 9.63175 29.8797 9.72881 29.7045 9.92294C29.5317 10.1147 29.4453 10.3645 29.4453 10.6722V14.0742H28.1846V10.5586C28.1846 10.2769 28.0994 10.052 27.9289 9.88388C27.7609 9.71579 27.5407 9.63175 27.2684 9.63175C27.0838 9.63175 26.9157 9.6791 26.7642 9.77379C26.6127 9.86612 26.4919 9.99751 26.402 10.168C26.312 10.3361 26.267 10.5326 26.267 10.7575V14.0742H24.9815Z" fill="#05352E"/>
</svg>
