<svg width="43" height="22" viewBox="0 0 43 22" fill="none" xmlns="http://www.w3.org/2000/svg">
<rect x="0.500122" y="1.24219" width="42" height="19" rx="5.68377" fill="#D7DF23"/>
<path d="M12.7262 8.80078C12.6931 8.49065 12.5534 8.24917 12.3072 8.07635C12.0633 7.90353 11.7461 7.81712 11.3555 7.81712C11.0808 7.81712 10.8453 7.85855 10.6488 7.94141C10.4523 8.02427 10.302 8.13672 10.1978 8.27876C10.0936 8.42081 10.0404 8.58298 10.038 8.76527C10.038 8.91679 10.0723 9.04818 10.141 9.15945C10.212 9.27071 10.3079 9.36541 10.4286 9.44354C10.5494 9.51929 10.6831 9.58321 10.8299 9.6353C10.9767 9.68738 11.1246 9.73118 11.2738 9.76669L11.9556 9.93714C12.2302 10.0011 12.4942 10.0875 12.7475 10.1964C13.0032 10.3053 13.2317 10.4426 13.4329 10.6083C13.6365 10.774 13.7975 10.9741 13.9158 11.2085C14.0342 11.4428 14.0934 11.7174 14.0934 12.0323C14.0934 12.4585 13.9845 12.8337 13.7667 13.158C13.5489 13.48 13.234 13.7321 12.8221 13.9144C12.4125 14.0943 11.9165 14.1843 11.3342 14.1843C10.7683 14.1843 10.2771 14.0967 9.86044 13.9215C9.44614 13.7463 9.1218 13.4906 8.88743 13.1545C8.65542 12.8183 8.52995 12.4087 8.51101 11.9258H9.80717C9.82611 12.1791 9.90424 12.3898 10.0415 12.5579C10.1789 12.726 10.3576 12.8514 10.5778 12.9343C10.8003 13.0172 11.0489 13.0586 11.3235 13.0586C11.61 13.0586 11.8609 13.016 12.0763 12.9308C12.2942 12.8432 12.4646 12.7224 12.5877 12.5685C12.7108 12.4123 12.7736 12.23 12.7759 12.0217C12.7736 11.8323 12.7179 11.676 12.609 11.5529C12.5001 11.4274 12.3474 11.3233 12.1509 11.2404C11.9568 11.1552 11.7295 11.0794 11.4691 11.0131L10.6417 10.8001C10.0427 10.6462 9.56925 10.413 9.22124 10.1005C8.87559 9.78563 8.70277 9.36778 8.70277 8.84695C8.70277 8.41844 8.81877 8.04321 9.05078 7.72124C9.28516 7.39927 9.60358 7.1495 10.006 6.97195C10.4085 6.79202 10.8642 6.70206 11.3732 6.70206C11.8893 6.70206 12.3415 6.79202 12.7298 6.97195C13.1204 7.1495 13.427 7.3969 13.6495 7.71413C13.872 8.029 13.9869 8.39122 13.994 8.80078H12.7262ZM17.9348 8.61967V9.61399H14.7992V8.61967H17.9348ZM15.5733 7.31286H16.8588V12.4336C16.8588 12.6064 16.8849 12.739 16.937 12.8313C16.9914 12.9213 17.0624 12.9828 17.15 13.016C17.2376 13.0491 17.3347 13.0657 17.4412 13.0657C17.5217 13.0657 17.5951 13.0598 17.6614 13.0479C17.7301 13.0361 17.7821 13.0254 17.8176 13.016L18.0343 14.021C17.9656 14.0446 17.8674 14.0707 17.7395 14.0991C17.6141 14.1275 17.4602 14.1441 17.2779 14.1488C16.9559 14.1583 16.6659 14.1097 16.4078 14.0032C16.1498 13.8943 15.945 13.7262 15.7935 13.4989C15.6444 13.2717 15.571 12.9876 15.5733 12.6467V7.31286ZM21.3306 14.1808C20.7979 14.1808 20.3363 14.0636 19.9457 13.8292C19.555 13.5948 19.252 13.2669 19.0366 12.8455C18.8235 12.4241 18.717 11.9317 18.717 11.3683C18.717 10.8048 18.8235 10.3112 19.0366 9.88743C19.252 9.46366 19.555 9.13459 19.9457 8.90021C20.3363 8.66584 20.7979 8.54865 21.3306 8.54865C21.8633 8.54865 22.3249 8.66584 22.7156 8.90021C23.1062 9.13459 23.408 9.46366 23.6211 9.88743C23.8365 10.3112 23.9442 10.8048 23.9442 11.3683C23.9442 11.9317 23.8365 12.4241 23.6211 12.8455C23.408 13.2669 23.1062 13.5948 22.7156 13.8292C22.3249 14.0636 21.8633 14.1808 21.3306 14.1808ZM21.3377 13.1509C21.6265 13.1509 21.868 13.0716 22.0621 12.913C22.2563 12.752 22.4007 12.5366 22.4954 12.2667C22.5924 11.9968 22.641 11.6961 22.641 11.3647C22.641 11.0309 22.5924 10.729 22.4954 10.4592C22.4007 10.1869 22.2563 9.97029 22.0621 9.8093C21.868 9.64832 21.6265 9.56783 21.3377 9.56783C21.0418 9.56783 20.7956 9.64832 20.5991 9.8093C20.4049 9.97029 20.2594 10.1869 20.1623 10.4592C20.0676 10.729 20.0202 11.0309 20.0202 11.3647C20.0202 11.6961 20.0676 11.9968 20.1623 12.2667C20.2594 12.5366 20.4049 12.752 20.5991 12.913C20.7956 13.0716 21.0418 13.1509 21.3377 13.1509ZM25.0353 14.0742V8.61967H26.2818V9.52876H26.3386C26.438 9.2139 26.6085 8.97124 26.85 8.80078C27.0938 8.62796 27.372 8.54155 27.6845 8.54155C27.7555 8.54155 27.8348 8.5451 27.9224 8.5522C28.0124 8.55694 28.0869 8.56522 28.1461 8.57706V9.75959C28.0917 9.74065 28.0053 9.72408 27.8869 9.70987C27.7709 9.6933 27.6584 9.68501 27.5495 9.68501C27.3152 9.68501 27.1045 9.73591 26.9174 9.83771C26.7328 9.93714 26.5872 10.0756 26.4806 10.2532C26.3741 10.4308 26.3208 10.6355 26.3208 10.8675V14.0742H25.0353ZM31.1903 14.1808C30.6435 14.1808 30.1712 14.0671 29.7734 13.8398C29.3781 13.6102 29.0739 13.2859 28.8608 12.8668C28.6477 12.4454 28.5412 11.9495 28.5412 11.3789C28.5412 10.8178 28.6477 10.3254 28.8608 9.90163C29.0762 9.4755 29.3769 9.14406 29.7628 8.90732C30.1487 8.66821 30.602 8.54865 31.1229 8.54865C31.459 8.54865 31.7763 8.6031 32.0746 8.712C32.3752 8.81854 32.6404 8.98426 32.87 9.20916C33.102 9.43407 33.2843 9.72053 33.4169 10.0685C33.5495 10.4142 33.6158 10.8261 33.6158 11.3043V11.6985H29.1449V10.832H32.3835C32.3812 10.5858 32.3279 10.3668 32.2237 10.1751C32.1196 9.98094 31.974 9.82824 31.7869 9.71697C31.6023 9.60571 31.3868 9.55007 31.1406 9.55007C30.8778 9.55007 30.647 9.61399 30.4482 9.74183C30.2493 9.86731 30.0942 10.033 29.983 10.239C29.8741 10.4426 29.8184 10.6663 29.8161 10.9102V11.6665C29.8161 11.9838 29.8741 12.256 29.9901 12.4833C30.1061 12.7082 30.2682 12.881 30.4766 13.0018C30.6849 13.1201 30.9287 13.1793 31.2081 13.1793C31.3951 13.1793 31.5644 13.1533 31.7159 13.1012C31.8674 13.0468 31.9988 12.9674 32.1101 12.8633C32.2214 12.7591 32.3054 12.6301 32.3622 12.4762L33.5625 12.6112C33.4867 12.9284 33.3423 13.2054 33.1293 13.4421C32.9186 13.6765 32.6487 13.8588 32.3196 13.989C31.9905 14.1168 31.6141 14.1808 31.1903 14.1808Z" fill="#05352E"/>
</svg>
