<svg width="67" height="22" viewBox="0 0 67 22" fill="none" xmlns="http://www.w3.org/2000/svg">
<rect x="0.5" y="1.24219" width="66" height="19" rx="5.68377" fill="#D7DF23"/>
<path d="M5.62358 14.2422V6.96946H8.35085C8.90956 6.96946 9.37831 7.07363 9.7571 7.28196C10.1383 7.49029 10.4259 7.77675 10.62 8.14134C10.8165 8.50355 10.9148 8.91548 10.9148 9.37713C10.9148 9.84351 10.8165 10.2578 10.62 10.62C10.4235 10.9822 10.1335 11.2675 9.75 11.4759C9.36648 11.6818 8.89418 11.7848 8.3331 11.7848H6.52557V10.7017H8.15554C8.48224 10.7017 8.74976 10.6449 8.9581 10.5312C9.16643 10.4176 9.32031 10.2614 9.41974 10.0625C9.52154 9.86364 9.57244 9.63518 9.57244 9.37713C9.57244 9.11908 9.52154 8.89181 9.41974 8.69531C9.32031 8.49882 9.16525 8.34612 8.95455 8.23722C8.74621 8.12595 8.47751 8.07031 8.14844 8.07031H6.94105V14.2422H5.62358ZM13.2878 6.96946V14.2422H12.0023V6.96946H13.2878ZM16.1793 14.3523C15.8337 14.3523 15.5224 14.2907 15.2454 14.1676C14.9708 14.0421 14.753 13.8575 14.592 13.6136C14.4334 13.3698 14.354 13.0691 14.354 12.7116C14.354 12.4039 14.4109 12.1494 14.5245 11.9482C14.6381 11.7469 14.7932 11.5859 14.9897 11.4652C15.1862 11.3445 15.4076 11.2533 15.6538 11.1918C15.9023 11.1278 16.1592 11.0817 16.4244 11.0533C16.744 11.0201 17.0032 10.9905 17.2021 10.9645C17.4009 10.9361 17.5453 10.8935 17.6353 10.8366C17.7276 10.7775 17.7738 10.6863 17.7738 10.5632V10.5419C17.7738 10.2744 17.6945 10.0672 17.5359 9.92045C17.3772 9.77367 17.1488 9.70028 16.8505 9.70028C16.5356 9.70028 16.2859 9.76894 16.1012 9.90625C15.9189 10.0436 15.7958 10.2057 15.7319 10.3928L14.5316 10.2223C14.6263 9.89086 14.7826 9.61387 15.0004 9.39134C15.2182 9.16643 15.4845 8.99834 15.7994 8.88707C16.1142 8.77344 16.4622 8.71662 16.8434 8.71662C17.1062 8.71662 17.3678 8.7474 17.6282 8.80895C17.8886 8.8705 18.1265 8.9723 18.342 9.11435C18.5574 9.25402 18.7302 9.4446 18.8604 9.68608C18.993 9.92756 19.0593 10.2294 19.0593 10.5916V14.2422H17.8235V13.4929H17.7809C17.7028 13.6444 17.5927 13.7865 17.4506 13.919C17.311 14.0492 17.1346 14.1546 16.9215 14.2351C16.7108 14.3132 16.4634 14.3523 16.1793 14.3523ZM16.5131 13.4077C16.7712 13.4077 16.9949 13.3568 17.1843 13.255C17.3737 13.1508 17.5193 13.0135 17.6211 12.843C17.7253 12.6726 17.7773 12.4867 17.7773 12.2855V11.6428C17.7371 11.6759 17.6684 11.7067 17.5714 11.7351C17.4767 11.7635 17.3701 11.7884 17.2518 11.8097C17.1334 11.831 17.0162 11.8499 16.9002 11.8665C16.7842 11.883 16.6836 11.8973 16.5984 11.9091C16.4066 11.9351 16.235 11.9777 16.0835 12.0369C15.9319 12.0961 15.8124 12.179 15.7248 12.2855C15.6372 12.3897 15.5934 12.5246 15.5934 12.6903C15.5934 12.9271 15.6798 13.1058 15.8526 13.2266C16.0254 13.3473 16.2456 13.4077 16.5131 13.4077ZM21.6374 11.0462V14.2422H20.3519V8.78764H21.5806V9.71449H21.6445C21.77 9.40909 21.9701 9.16643 22.2447 8.98651C22.5217 8.80658 22.8638 8.71662 23.271 8.71662C23.6474 8.71662 23.9753 8.79711 24.2546 8.9581C24.5363 9.11908 24.7541 9.35227 24.908 9.65767C25.0643 9.96307 25.1412 10.3336 25.1388 10.7692V14.2422H23.8533V10.968C23.8533 10.6035 23.7586 10.3182 23.5692 10.1122C23.3822 9.90625 23.123 9.80327 22.7915 9.80327C22.5666 9.80327 22.3666 9.85298 22.1914 9.95241C22.0186 10.0495 21.8825 10.1903 21.783 10.375C21.686 10.5597 21.6374 10.7834 21.6374 11.0462ZM29.1694 8.78764V9.78196H26.0337V8.78764H29.1694ZM26.8079 7.48082H28.0934V12.6016C28.0934 12.7744 28.1194 12.907 28.1715 12.9993C28.226 13.0893 28.297 13.1508 28.3846 13.1839C28.4722 13.2171 28.5692 13.2337 28.6758 13.2337C28.7563 13.2337 28.8297 13.2277 28.896 13.2159C28.9646 13.2041 29.0167 13.1934 29.0522 13.1839L29.2688 14.1889C29.2002 14.2126 29.1019 14.2386 28.9741 14.267C28.8486 14.2955 28.6947 14.312 28.5124 14.3168C28.1905 14.3262 27.9004 14.2777 27.6424 14.1712C27.3844 14.0623 27.1796 13.8942 27.0281 13.6669C26.8789 13.4396 26.8055 13.1555 26.8079 12.8146V7.48082ZM32.7818 14.2422V6.96946H35.5659C36.0914 6.96946 36.5282 7.05232 36.8762 7.21804C37.2266 7.38139 37.4882 7.60511 37.661 7.8892C37.8362 8.1733 37.9238 8.49527 37.9238 8.85511C37.9238 9.15104 37.867 9.40436 37.7534 9.61506C37.6397 9.82339 37.487 9.99266 37.2953 10.1229C37.1035 10.2531 36.8893 10.3466 36.6525 10.4034V10.4744C36.9106 10.4886 37.158 10.5679 37.3947 10.7124C37.6338 10.8544 37.8291 11.0556 37.9806 11.3161C38.1322 11.5765 38.2079 11.8913 38.2079 12.2607C38.2079 12.6371 38.1168 12.9756 37.9345 13.2763C37.7522 13.5746 37.4776 13.8101 37.1106 13.983C36.7437 14.1558 36.282 14.2422 35.7257 14.2422H32.7818ZM34.0993 13.1413H35.5162C35.9944 13.1413 36.3388 13.0502 36.5495 12.8679C36.7626 12.6832 36.8691 12.4465 36.8691 12.1577C36.8691 11.9422 36.8159 11.7481 36.7093 11.5753C36.6028 11.4001 36.4513 11.2628 36.2548 11.1634C36.0583 11.0616 35.8239 11.0107 35.5517 11.0107H34.0993V13.1413ZM34.0993 10.0625H35.4025C35.6298 10.0625 35.8346 10.0211 36.0169 9.93821C36.1992 9.85298 36.3424 9.73343 36.4466 9.57955C36.5531 9.4233 36.6064 9.23864 36.6064 9.02557C36.6064 8.74384 36.5069 8.51184 36.3081 8.32955C36.1116 8.14725 35.8192 8.05611 35.4309 8.05611H34.0993V10.0625ZM40.8668 14.3523C40.5212 14.3523 40.2099 14.2907 39.9329 14.1676C39.6583 14.0421 39.4405 13.8575 39.2795 13.6136C39.1209 13.3698 39.0415 13.0691 39.0415 12.7116C39.0415 12.4039 39.0984 12.1494 39.212 11.9482C39.3256 11.7469 39.4807 11.5859 39.6772 11.4652C39.8737 11.3445 40.0951 11.2533 40.3413 11.1918C40.5898 11.1278 40.8467 11.0817 41.1119 11.0533C41.4315 11.0201 41.6907 10.9905 41.8896 10.9645C42.0884 10.9361 42.2328 10.8935 42.3228 10.8366C42.4151 10.7775 42.4613 10.6863 42.4613 10.5632V10.5419C42.4613 10.2744 42.382 10.0672 42.2234 9.92045C42.0647 9.77367 41.8363 9.70028 41.538 9.70028C41.2231 9.70028 40.9734 9.76894 40.7887 9.90625C40.6064 10.0436 40.4833 10.2057 40.4194 10.3928L39.2191 10.2223C39.3138 9.89086 39.4701 9.61387 39.6879 9.39134C39.9057 9.16643 40.172 8.99834 40.4869 8.88707C40.8017 8.77344 41.1497 8.71662 41.5309 8.71662C41.7937 8.71662 42.0553 8.7474 42.3157 8.80895C42.5761 8.8705 42.814 8.9723 43.0295 9.11435C43.2449 9.25402 43.4177 9.4446 43.5479 9.68608C43.6805 9.92756 43.7468 10.2294 43.7468 10.5916V14.2422H42.511V13.4929H42.4684C42.3903 13.6444 42.2802 13.7865 42.1381 13.919C41.9985 14.0492 41.8221 14.1546 41.609 14.2351C41.3983 14.3132 41.1509 14.3523 40.8668 14.3523ZM41.2006 13.4077C41.4587 13.4077 41.6824 13.3568 41.8718 13.255C42.0612 13.1508 42.2068 13.0135 42.3086 12.843C42.4128 12.6726 42.4648 12.4867 42.4648 12.2855V11.6428C42.4246 11.6759 42.3559 11.7067 42.2589 11.7351C42.1642 11.7635 42.0576 11.7884 41.9393 11.8097C41.8209 11.831 41.7037 11.8499 41.5877 11.8665C41.4717 11.883 41.3711 11.8973 41.2859 11.9091C41.0941 11.9351 40.9225 11.9777 40.771 12.0369C40.6194 12.0961 40.4999 12.179 40.4123 12.2855C40.3247 12.3897 40.2809 12.5246 40.2809 12.6903C40.2809 12.9271 40.3673 13.1058 40.5401 13.2266C40.7129 13.3473 40.9331 13.4077 41.2006 13.4077ZM49.3505 10.2294L48.1786 10.3572C48.1455 10.2389 48.0875 10.1276 48.0046 10.0234C47.9241 9.91927 47.8152 9.83523 47.6779 9.77131C47.5406 9.70739 47.3725 9.67543 47.1737 9.67543C46.9061 9.67543 46.6812 9.73343 46.4989 9.84943C46.319 9.96544 46.2302 10.1158 46.2326 10.3004C46.2302 10.459 46.2882 10.5881 46.4066 10.6875C46.5273 10.7869 46.7262 10.8686 47.0032 10.9325L47.9336 11.1314C48.4497 11.2427 48.8332 11.419 49.0842 11.6605C49.3375 11.902 49.4653 12.218 49.4677 12.6087C49.4653 12.9519 49.3647 13.255 49.1658 13.5178C48.9693 13.7782 48.6959 13.9818 48.3455 14.1286C47.9951 14.2753 47.5927 14.3487 47.1381 14.3487C46.4705 14.3487 45.9331 14.209 45.5259 13.9297C45.1187 13.648 44.8761 13.2562 44.7979 12.7543L46.0515 12.6335C46.1083 12.8797 46.229 13.0656 46.4137 13.1911C46.5984 13.3165 46.8387 13.3793 47.1346 13.3793C47.44 13.3793 47.685 13.3165 47.8697 13.1911C48.0567 13.0656 48.1502 12.9105 48.1502 12.7259C48.1502 12.5696 48.0898 12.4406 47.9691 12.3388C47.8507 12.237 47.6661 12.1589 47.4151 12.1044L46.4847 11.9091C45.9615 11.8002 45.5745 11.6167 45.3235 11.3587C45.0726 11.0982 44.9483 10.7692 44.9506 10.3714C44.9483 10.0353 45.0394 9.74408 45.2241 9.49787C45.4111 9.24929 45.6703 9.05753 46.0018 8.92259C46.3356 8.78527 46.7203 8.71662 47.1559 8.71662C47.7951 8.71662 48.2982 8.85275 48.6651 9.125C49.0344 9.39725 49.2629 9.76539 49.3505 10.2294ZM52.9425 14.3487C52.3956 14.3487 51.9233 14.2351 51.5256 14.0078C51.1302 13.7782 50.826 13.4538 50.6129 13.0348C50.3999 12.6134 50.2933 12.1174 50.2933 11.5469C50.2933 10.9858 50.3999 10.4934 50.6129 10.0696C50.8284 9.64347 51.129 9.31203 51.5149 9.07528C51.9008 8.83617 52.3542 8.71662 52.875 8.71662C53.2112 8.71662 53.5284 8.77107 53.8267 8.87997C54.1274 8.98651 54.3925 9.15223 54.6222 9.37713C54.8542 9.60204 55.0365 9.88849 55.169 10.2365C55.3016 10.5821 55.3679 10.9941 55.3679 11.4723V11.8665H50.897V11H54.1357C54.1333 10.7538 54.08 10.5348 53.9759 10.343C53.8717 10.1489 53.7261 9.99621 53.5391 9.88494C53.3544 9.77367 53.139 9.71804 52.8928 9.71804C52.63 9.71804 52.3991 9.78196 52.2003 9.9098C52.0014 10.0353 51.8464 10.201 51.7351 10.407C51.6262 10.6106 51.5705 10.8343 51.5682 11.0781V11.8345C51.5682 12.1518 51.6262 12.424 51.7422 12.6513C51.8582 12.8762 52.0204 13.049 52.2287 13.1697C52.437 13.2881 52.6809 13.3473 52.9602 13.3473C53.1473 13.3473 53.3165 13.3213 53.468 13.2692C53.6196 13.2147 53.7509 13.1354 53.8622 13.0312C53.9735 12.9271 54.0575 12.7981 54.1143 12.6442L55.3146 12.7791C55.2389 13.0964 55.0945 13.3733 54.8814 13.6101C54.6707 13.8445 54.4008 14.0268 54.0717 14.157C53.7427 14.2848 53.3662 14.3487 52.9425 14.3487ZM58.4796 14.3381C58.0511 14.3381 57.6676 14.228 57.329 14.0078C56.9905 13.7876 56.723 13.468 56.5265 13.049C56.33 12.63 56.2317 12.121 56.2317 11.522C56.2317 10.916 56.3311 10.4046 56.53 9.98793C56.7312 9.56889 57.0023 9.25284 57.3432 9.03977C57.6841 8.82434 58.0641 8.71662 58.4831 8.71662C58.8027 8.71662 59.0655 8.77107 59.2715 8.87997C59.4775 8.98651 59.6408 9.11553 59.7615 9.26705C59.8823 9.41619 59.9758 9.55705 60.0421 9.68963H60.0953V6.96946H61.3844V14.2422H60.1202V13.3828H60.0421C59.9758 13.5154 59.8799 13.6562 59.7544 13.8054C59.629 13.9522 59.4632 14.0777 59.2573 14.1818C59.0513 14.286 58.7921 14.3381 58.4796 14.3381ZM58.8382 13.2834C59.1105 13.2834 59.3425 13.21 59.5343 13.0632C59.726 12.9141 59.8716 12.7069 59.9711 12.4418C60.0705 12.1766 60.1202 11.8677 60.1202 11.5149C60.1202 11.1622 60.0705 10.8556 59.9711 10.5952C59.874 10.3348 59.7296 10.1323 59.5378 9.98793C59.3484 9.84351 59.1152 9.77131 58.8382 9.77131C58.5518 9.77131 58.3127 9.84588 58.1209 9.99503C57.9292 10.1442 57.7847 10.3501 57.6877 10.6129C57.5906 10.8757 57.5421 11.1764 57.5421 11.5149C57.5421 11.8558 57.5906 12.16 57.6877 12.4276C57.7871 12.6927 57.9327 12.9022 58.1245 13.0561C58.3186 13.2076 58.5565 13.2834 58.8382 13.2834Z" fill="#05352E"/>
</svg>
