<svg width="46" height="22" viewBox="0 0 46 22" fill="none" xmlns="http://www.w3.org/2000/svg">
<rect x="0.5" y="1.24219" width="45" height="19" rx="5.68377" fill="#D7DF23"/>
<path d="M8.58706 14.2422V6.96946H9.90453V10.0483H13.2746V6.96946H14.5956V14.2422H13.2746V11.1527H9.90453V14.2422H8.58706ZM18.3509 14.3487C17.8182 14.3487 17.3566 14.2315 16.966 13.9972C16.5753 13.7628 16.2723 13.4349 16.0569 13.0135C15.8438 12.5921 15.7373 12.0997 15.7373 11.5362C15.7373 10.9728 15.8438 10.4792 16.0569 10.0554C16.2723 9.63163 16.5753 9.30256 16.966 9.06818C17.3566 8.83381 17.8182 8.71662 18.3509 8.71662C18.8836 8.71662 19.3452 8.83381 19.7358 9.06818C20.1265 9.30256 20.4283 9.63163 20.6414 10.0554C20.8568 10.4792 20.9645 10.9728 20.9645 11.5362C20.9645 12.0997 20.8568 12.5921 20.6414 13.0135C20.4283 13.4349 20.1265 13.7628 19.7358 13.9972C19.3452 14.2315 18.8836 14.3487 18.3509 14.3487ZM18.358 13.3189C18.6468 13.3189 18.8883 13.2396 19.0824 13.081C19.2766 12.92 19.421 12.7045 19.5157 12.4347C19.6127 12.1648 19.6613 11.8641 19.6613 11.5327C19.6613 11.1989 19.6127 10.897 19.5157 10.6271C19.421 10.3549 19.2766 10.1383 19.0824 9.97727C18.8883 9.81629 18.6468 9.7358 18.358 9.7358C18.0621 9.7358 17.8159 9.81629 17.6194 9.97727C17.4252 10.1383 17.2796 10.3549 17.1826 10.6271C17.0879 10.897 17.0405 11.1989 17.0405 11.5327C17.0405 11.8641 17.0879 12.1648 17.1826 12.4347C17.2796 12.7045 17.4252 12.92 17.6194 13.081C17.8159 13.2396 18.0621 13.3189 18.358 13.3189ZM23.3411 11.0462V14.2422H22.0556V8.78764H23.2843V9.71449H23.3482C23.4737 9.40909 23.6738 9.16643 23.9484 8.98651C24.2254 8.80658 24.5675 8.71662 24.9747 8.71662C25.3511 8.71662 25.679 8.79711 25.9583 8.9581C26.2401 9.11908 26.4579 9.35227 26.6117 9.65767C26.768 9.96307 26.8449 10.3336 26.8426 10.7692V14.2422H25.557V10.968C25.557 10.6035 25.4624 10.3182 25.273 10.1122C25.0859 9.90625 24.8267 9.80327 24.4953 9.80327C24.2704 9.80327 24.0703 9.85298 23.8951 9.95241C23.7223 10.0495 23.5862 10.1903 23.4867 10.375C23.3897 10.5597 23.3411 10.7834 23.3411 11.0462ZM30.5642 14.3487C30.0173 14.3487 29.545 14.2351 29.1472 14.0078C28.7519 13.7782 28.4477 13.4538 28.2346 13.0348C28.0215 12.6134 27.915 12.1174 27.915 11.5469C27.915 10.9858 28.0215 10.4934 28.2346 10.0696C28.45 9.64347 28.7507 9.31203 29.1366 9.07528C29.5225 8.83617 29.9758 8.71662 30.4967 8.71662C30.8329 8.71662 31.1501 8.77107 31.4484 8.87997C31.749 8.98651 32.0142 9.15223 32.2438 9.37713C32.4758 9.60204 32.6581 9.88849 32.7907 10.2365C32.9233 10.5821 32.9896 10.9941 32.9896 11.4723V11.8665H28.5187V11H31.7573C31.755 10.7538 31.7017 10.5348 31.5975 10.343C31.4934 10.1489 31.3478 9.99621 31.1607 9.88494C30.9761 9.77367 30.7606 9.71804 30.5144 9.71804C30.2517 9.71804 30.0208 9.78196 29.822 9.9098C29.6231 10.0353 29.468 10.201 29.3568 10.407C29.2479 10.6106 29.1922 10.8343 29.1899 11.0781V11.8345C29.1899 12.1518 29.2479 12.424 29.3639 12.6513C29.4799 12.8762 29.642 13.049 29.8504 13.1697C30.0587 13.2881 30.3026 13.3473 30.5819 13.3473C30.7689 13.3473 30.9382 13.3213 31.0897 13.2692C31.2412 13.2147 31.3726 13.1354 31.4839 13.0312C31.5952 12.9271 31.6792 12.7981 31.736 12.6442L32.9363 12.7791C32.8606 13.0964 32.7161 13.3733 32.5031 13.6101C32.2924 13.8445 32.0225 14.0268 31.6934 14.157C31.3643 14.2848 30.9879 14.3487 30.5642 14.3487ZM34.7199 16.2876C34.5447 16.2876 34.3825 16.2734 34.2334 16.245C34.0866 16.219 33.9694 16.1882 33.8818 16.1527L34.1801 15.1513C34.3671 15.2057 34.534 15.2318 34.6808 15.2294C34.8276 15.227 34.9566 15.1809 35.0679 15.0909C35.1815 15.0033 35.2774 14.8565 35.3555 14.6506L35.4656 14.3558L33.4876 8.78764H34.8513L36.1084 12.907H36.1652L37.4258 8.78764H38.793L36.6091 14.9027C36.5073 15.1915 36.3723 15.4389 36.2042 15.6449C36.0362 15.8532 35.8302 16.0118 35.5863 16.1207C35.3449 16.232 35.056 16.2876 34.7199 16.2876Z" fill="#05352E"/>
</svg>
